<svg xmlns="http://www.w3.org/2000/svg" width="50" height="56" viewBox="0 0 50 56" fill="none">
  <path d="M3.95874 18.512L25.0389 30.3464L24.6691 53.2758L3.95874 41.4413V18.512Z" fill="#FFD550"/>
  <path d="M25.4087 4.82837L46.8587 17.0327L37.2432 22.2103L15.4233 10.3758L25.4087 4.82837Z" fill="#FFD550"/>
  <path d="M48.2492 41.2108V18.0032C48.2474 17.668 48.1572 17.3391 47.9878 17.0499C47.8183 16.7606 47.5756 16.5211 47.2841 16.3556L26.5715 4.7047C26.2924 4.54357 25.9758 4.45874 25.6535 4.45874C25.3312 4.45874 25.0147 4.54357 24.7356 4.7047L4.02288 16.3556C3.73138 16.5211 3.48867 16.7606 3.31925 17.0499C3.14982 17.3391 3.05966 17.668 3.05786 18.0032V41.2108C3.05966 41.546 3.14982 41.8748 3.31925 42.1641C3.48867 42.4534 3.73138 42.6929 4.02288 42.8584L24.7356 54.5093C25.0147 54.6704 25.3312 54.7552 25.6535 54.7552C25.9758 54.7552 26.2924 54.6704 26.5715 54.5093L47.2841 42.8584C47.5756 42.6929 47.8183 42.4534 47.9878 42.1641C48.1572 41.8748 48.2474 41.546 48.2492 41.2108V41.2108Z" stroke="#1C1F35" stroke-width="2" stroke-linecap="round" stroke-linejoin="round"/>
  <path d="M37.1867 35.3734V23.1341L14.3557 10.5417" stroke="#1C1F35" stroke-width="2" stroke-linecap="round" stroke-linejoin="round"/>
  <path d="M47.9904 17.0381L25.8655 29.6069L3.31689 17.0381" stroke="#1C1F35" stroke-width="2" stroke-linecap="round" stroke-linejoin="round"/>
  <path d="M25.8656 29.6069L25.6538 54.7446" stroke="#1C1F35" stroke-width="2" stroke-linecap="round" stroke-linejoin="round"/>
  <path d="M0.999886 13.5696L11.635 7.41699" stroke="#1C1F35" stroke-width="2" stroke-linecap="round" stroke-linejoin="round"/>
  <path d="M29.8465 1.50001L40.4871 7.64331" stroke="#1C1F35" stroke-width="2" stroke-linecap="round" stroke-linejoin="round"/>
  <path d="M40.4872 42.1809L29.8467 48.3242" stroke="#1C1F35" stroke-width="2" stroke-linecap="round" stroke-linejoin="round"/>
</svg>