<svg xmlns="http://www.w3.org/2000/svg" width="50" height="54" viewBox="0 0 50 54" fill="none">
  <path d="M2.00342 21.1534V7.37489C2.00342 6.87686 2.20028 6.39923 2.55071 6.04707C2.90113 5.69491 3.37641 5.49707 3.87199 5.49707H41.2433C41.7389 5.49707 42.2142 5.69491 42.5646 6.04707C42.915 6.39923 43.1119 6.87686 43.1119 7.37489V21.1534C43.1119 40.8704 26.4583 47.3959 23.1416 48.4991C22.7648 48.6393 22.3505 48.6393 21.9737 48.4991C18.657 47.3959 2.00342 40.8704 2.00342 21.1534Z" fill="#FFD550" stroke="#1C1F35" stroke-width="2" stroke-linecap="round" stroke-linejoin="round"/>
  <path d="M18.3139 51.2406C15.3891 50.3181 8.21096 46.8345 1.22192 37.7451" stroke="#1C1F35" stroke-width="2" stroke-linecap="round" stroke-linejoin="round"/>
  <path d="M32.8345 18.6416L19.1239 31.7863L12.2803 25.214" stroke="#1C1F35" stroke-width="2" stroke-linecap="round" stroke-linejoin="round"/>
  <path d="M27.4896 29.5548L22.5562 34.5127" stroke="white" stroke-width="2" stroke-linecap="round" stroke-linejoin="round"/>
  <path d="M48.2231 5.45777L48.2231 18.6787" stroke="#1C1F35" stroke-width="2" stroke-linecap="round" stroke-linejoin="round"/>
  <path d="M21.556 1.5L1 1.5" stroke="#1C1F35" stroke-width="2" stroke-linecap="round" stroke-linejoin="round"/>
</svg>