<svg width="64" height="63" viewBox="0 0 64 63" fill="none" xmlns="http://www.w3.org/2000/svg">
<circle cx="31.6304" cy="31.5" r="31" fill="#111C55" stroke="#273270"/>
<path d="M24.1044 22.1408C23.9698 22.1449 23.8375 22.1743 23.7152 22.2272C23.5929 22.28 23.4832 22.3554 23.3925 22.4487C23.3019 22.542 23.2322 22.6514 23.1875 22.7704C23.1427 22.8894 23.124 23.0156 23.1323 23.1416C23.2668 25.3015 23.9008 30.5716 26.9363 33.8583C30.5713 37.8181 35.3052 39.1824 40.1621 38.9808C40.4224 38.9662 40.6672 38.8596 40.8469 38.6826C41.0266 38.5055 41.1279 38.2712 41.1304 38.0268V34.5674C41.1273 34.2446 41.0086 33.9322 40.7933 33.6802C40.578 33.4282 40.2786 33.2513 39.9431 33.1779L37.5108 32.6739C37.2099 32.6138 36.8968 32.6397 36.6118 32.7481C36.3269 32.8566 36.0832 33.0427 35.9123 33.2823L35.3744 34.0454C35.325 34.1153 35.2511 34.1668 35.1656 34.1911C35.08 34.2154 34.9881 34.211 34.9056 34.1786C33.6683 33.6783 28.7384 31.5184 28.1966 27.8753C28.186 27.805 28.1979 27.7333 28.2307 27.6692C28.2635 27.6051 28.3159 27.5516 28.3811 27.5154L29.3571 26.9574C29.6248 26.802 29.835 26.5732 29.9594 26.3022C30.0838 26.0311 30.1163 25.7308 30.0526 25.4419L29.5185 23.1236C29.4404 22.7988 29.2445 22.5093 28.9643 22.3045C28.6841 22.0998 28.3368 21.9923 27.9815 22.0004L24.1044 22.1408Z" stroke="#F6B426"/>
</svg>
