<svg xmlns="http://www.w3.org/2000/svg" width="77" height="126" viewBox="0 0 77 126" fill="none">
  <path d="M42.0714 28.7858V18.8215H47.6682C50.5028 18.8215 53.0575 20.5309 54.1388 23.1511L56.1792 28.0951C56.315 28.4242 56.0731 28.7858 55.717 28.7858H42.0714Z" fill="#FFD550" stroke="#1C1F35" stroke-width="2"/>
  <path d="M4.42859 35.4285H42.0714" stroke="#1C1F35" stroke-width="2" stroke-linecap="round" stroke-linejoin="round"/>
  <path d="M45.3929 53.1431C49.0616 53.1431 52.0357 50.169 52.0357 46.5003C52.0357 42.8315 49.0616 39.8574 45.3929 39.8574C41.7241 39.8574 38.75 42.8315 38.75 46.5003C38.75 50.169 41.7241 53.1431 45.3929 53.1431Z" stroke="#1C1F35" stroke-width="2" stroke-linecap="round" stroke-linejoin="round"/>
  <path d="M16.6071 53.1431C20.2758 53.1431 23.2499 50.169 23.2499 46.5003C23.2499 42.8315 20.2758 39.8574 16.6071 39.8574C12.9383 39.8574 9.96423 42.8315 9.96423 46.5003C9.96423 50.169 12.9383 53.1431 16.6071 53.1431Z" fill="#FFD550" stroke="#1C1F35" stroke-width="2" stroke-linecap="round" stroke-linejoin="round"/>
  <path d="M38.75 45.3926H23.25" stroke="#1C1F35" stroke-width="2" stroke-linecap="round" stroke-linejoin="round"/>
  <path d="M9.90895 45.3926H6.31073C5.81156 45.3926 5.33283 45.1884 4.97986 44.8251C4.62689 44.4617 4.42859 43.9689 4.42859 43.4551V16.3301C4.42859 15.8162 4.62689 15.3234 4.97986 14.9601C5.33283 14.5967 5.81156 14.3926 6.31073 14.3926H42.0714V40.3551" stroke="#1C1F35" stroke-width="2" stroke-linecap="round" stroke-linejoin="round"/>
  <path d="M42.0714 28.7861H57.5714V43.548C57.5714 44.0374 57.3673 44.5068 57.0039 44.8528C56.6406 45.1989 56.1478 45.3933 55.6339 45.3933H51.8973" stroke="#1C1F35" stroke-width="2" stroke-linecap="round" stroke-linejoin="round"/>
  <path d="M8.85718 28.0947L8.85718 18.8215" stroke="#1C1F35" stroke-width="2" stroke-linecap="round" stroke-linejoin="round"/>
  <path d="M28.7858 31L38.059 31" stroke="#1C1F35" stroke-width="2" stroke-linecap="round" stroke-linejoin="round"/>
  <path d="M28.7857 49.7148L32.1072 49.7148" stroke="#1C1F35" stroke-width="2" stroke-linecap="round" stroke-linejoin="round"/>
</svg>