<svg xmlns="http://www.w3.org/2000/svg" width="76" height="115" viewBox="0 0 76 115" fill="none">
  <path d="M17.3044 55.4348H53.174" stroke="#1C1F35" stroke-width="2" stroke-linecap="round" stroke-linejoin="round"/>
  <path d="M34.3333 40.4766L49.8553 31.1317" stroke="#1C1F35" stroke-width="2" stroke-linecap="round" stroke-linejoin="round"/>
  <path d="M9.6958 37.8877L15.711 43.9029" stroke="#1C1F35" stroke-width="2" stroke-linecap="round" stroke-linejoin="round"/>
  <path d="M1 35.7139L7.01521 41.7291" stroke="#1C1F35" stroke-width="2" stroke-linecap="round" stroke-linejoin="round"/>
  <path d="M15.7682 35.4434L25.2257 44.5155C26.4868 45.7266 28.0957 46.4883 29.8132 46.6874C31.5308 46.8865 33.2652 46.5124 34.7585 45.6206L72.7391 23.0045L68.073 17.1449C66.8593 15.6262 65.1553 14.6023 63.269 14.2582C61.3827 13.9141 59.4385 14.2726 57.7877 15.2688L46.6494 21.9765L31.5976 16.8365L27.4584 18.6612C27.1487 18.7971 26.8774 19.0108 26.6696 19.2824C26.4617 19.554 26.3239 19.8749 26.2689 20.2154C26.2139 20.556 26.2435 20.9052 26.355 21.2309C26.4664 21.5567 26.6561 21.8484 26.9065 22.0793L34.608 29.1725L27.5838 33.2845L20.5597 30.2005L16.3452 32.0509C16.0386 32.1859 15.7696 32.397 15.5627 32.6652C15.3558 32.9335 15.2174 33.2503 15.1602 33.5871C15.1029 33.9239 15.1285 34.27 15.2346 34.5941C15.3408 34.9183 15.5242 35.2101 15.7682 35.4434V35.4434Z" stroke="#1C1F35" stroke-width="2" stroke-linecap="round" stroke-linejoin="round"/>
  <path d="M68.9347 18.4781C62.9047 23.2141 56.9523 23.8094 52.6304 18.4781L56.0263 16.2707C60.2464 13.5277 65.8659 14.4886 68.9347 18.4781Z" fill="#FFD550" stroke="#1C1F35" stroke-width="2"/>
</svg>