<svg xmlns="http://www.w3.org/2000/svg" width="77" height="116" viewBox="0 0 77 116" fill="none">
  <path d="M2.33325 45H54.7142" stroke="#141414" stroke-width="2" stroke-linecap="round" stroke-linejoin="round"/>
  <path d="M32.7143 45V2.91304C32.7143 2.40567 32.5093 1.91908 32.1444 1.56032C31.7796 1.20155 31.2847 1 30.7687 1H7.42177C6.90578 1 6.41091 1.20155 6.04604 1.56032C5.68118 1.91908 5.4762 2.40567 5.4762 2.91304V45" stroke="#141414" stroke-width="2" stroke-linecap="round" stroke-linejoin="round"/>
  <path d="M32.7142 13.5715H48.5714C50.2282 13.5715 51.5714 14.9147 51.5714 16.5715V43.9525H32.7142V13.5715Z" fill="#FFD550" stroke="#141414" stroke-width="2" stroke-linecap="round" stroke-linejoin="round"/>
  <path d="M13.8571 10.4285H21.1904" stroke="#141414" stroke-width="2" stroke-linecap="round" stroke-linejoin="round"/>
  <path d="M1.28564 40.8096L1.28564 26.1429" stroke="#141414" stroke-width="2" stroke-linecap="round" stroke-linejoin="round"/>
  <path d="M55.7618 30.3333L55.7618 15.6666" stroke="#141414" stroke-width="2" stroke-linecap="round" stroke-linejoin="round"/>
  <path d="M35.8571 9.38086L43.1904 9.38086" stroke="#141414" stroke-width="2" stroke-linecap="round" stroke-linejoin="round"/>
  <path d="M17 26.1428H24.3333" stroke="#141414" stroke-width="2" stroke-linecap="round" stroke-linejoin="round"/>
  <path d="M13.8571 35.5715H21.1904" stroke="#141414" stroke-width="2" stroke-linecap="round" stroke-linejoin="round"/>
  <path d="M40.0476 35.5715H44.2381" stroke="#141414" stroke-width="2" stroke-linecap="round" stroke-linejoin="round"/>
  <path d="M40.0476 26.1428H44.2381" stroke="#141414" stroke-width="2" stroke-linecap="round" stroke-linejoin="round"/>
</svg>