<svg width="227" height="161" viewBox="0 0 227 161" fill="none" xmlns="http://www.w3.org/2000/svg">
<path d="M84.112 23.95C84.112 24.37 84.0607 24.65 83.958 24.79C83.8647 24.93 83.6733 25 83.384 25H78.106V15.2H84.056V16.25H79.506V19.442H83.384V20.506H79.506V23.95H84.112ZM94.13 17.16C94.8207 17.16 95.376 17.3747 95.796 17.804C96.216 18.2333 96.426 18.8027 96.426 19.512V25H95.082V19.554C95.082 19.0407 94.9793 18.672 94.774 18.448C94.578 18.2147 94.2513 18.098 93.794 18.098C93.1033 18.098 92.464 18.42 91.876 19.064C91.8853 19.1293 91.89 19.2227 91.89 19.344V25H90.574V19.414C90.574 18.994 90.4667 18.672 90.252 18.448C90.0373 18.2147 89.734 18.098 89.342 18.098C88.9967 18.098 88.6607 18.1867 88.334 18.364C88.0167 18.532 87.69 18.798 87.354 19.162V25H86.024V19.96C86.024 18.6067 85.968 17.79 85.856 17.51C86.0147 17.4353 86.178 17.3747 86.346 17.328C86.5233 17.272 86.6773 17.244 86.808 17.244C86.9947 17.244 87.13 17.3187 87.214 17.468C87.298 17.608 87.3447 17.8367 87.354 18.154C87.6993 17.8087 88.0587 17.5567 88.432 17.398C88.8053 17.2393 89.23 17.16 89.706 17.16C90.1353 17.16 90.518 17.258 90.854 17.454C91.19 17.6407 91.4467 17.902 91.624 18.238C91.9693 17.8647 92.3427 17.594 92.744 17.426C93.1547 17.2487 93.6167 17.16 94.13 17.16ZM104.408 22.76C104.408 23.3013 104.44 23.712 104.506 23.992C104.58 24.272 104.706 24.5147 104.884 24.72C104.753 24.8227 104.594 24.9113 104.408 24.986C104.221 25.0513 104.048 25.084 103.89 25.084C103.46 25.084 103.204 24.7013 103.12 23.936C102.84 24.3187 102.48 24.6173 102.042 24.832C101.612 25.0373 101.127 25.14 100.586 25.14C99.8855 25.14 99.3208 24.958 98.8915 24.594C98.4715 24.23 98.2615 23.7447 98.2615 23.138C98.2615 21.4207 99.8668 20.4827 103.078 20.324V19.778C103.078 19.2367 102.942 18.8353 102.672 18.574C102.401 18.3127 101.981 18.182 101.412 18.182C101.038 18.182 100.688 18.2567 100.362 18.406C100.035 18.5553 99.6615 18.8167 99.2415 19.19C99.1762 19.2367 99.1155 19.26 99.0595 19.26C98.9382 19.26 98.8075 19.1993 98.6675 19.078C98.5275 18.9473 98.3968 18.77 98.2755 18.546C98.6675 18.1073 99.1528 17.7667 99.7315 17.524C100.31 17.2813 100.912 17.16 101.538 17.16C102.434 17.16 103.134 17.3933 103.638 17.86C104.151 18.3173 104.408 18.9567 104.408 19.778V22.76ZM100.88 24.174C101.309 24.174 101.71 24.048 102.084 23.796C102.457 23.5347 102.788 23.166 103.078 22.69V21.192C100.763 21.2947 99.6055 21.9153 99.6055 23.054C99.6055 23.418 99.7128 23.698 99.9275 23.894C100.152 24.0807 100.469 24.174 100.88 24.174ZM106.809 17.3H108.125V25H106.809V17.3ZM107.397 15.886C106.875 15.886 106.613 15.6247 106.613 15.102V14.948C106.613 14.4253 106.875 14.164 107.397 14.164H107.537C108.06 14.164 108.321 14.4253 108.321 14.948V15.102C108.321 15.6247 108.06 15.886 107.537 15.886H107.397ZM110.702 13.926H112.018V25H110.702V13.926ZM81.186 44.14C80.01 44.14 79.1047 43.7947 78.47 43.104C77.8353 42.404 77.518 41.4053 77.518 40.108C77.518 39.3053 77.6627 38.6053 77.952 38.008C78.2413 37.4107 78.6567 36.9533 79.198 36.636C79.7393 36.3187 80.3787 36.16 81.116 36.16C81.9933 36.16 82.712 36.384 83.272 36.832C83.8413 37.2707 84.1773 37.8633 84.28 38.61C84.1307 38.694 83.972 38.764 83.804 38.82C83.636 38.8667 83.4867 38.89 83.356 38.89C83.244 38.89 83.1553 38.8573 83.09 38.792C83.034 38.7267 82.9827 38.6053 82.936 38.428C82.8147 37.9987 82.6 37.6767 82.292 37.462C81.984 37.238 81.592 37.126 81.116 37.126C80.4253 37.126 79.8747 37.3967 79.464 37.938C79.0627 38.47 78.862 39.1933 78.862 40.108C78.862 41.0693 79.0673 41.816 79.478 42.348C79.8887 42.88 80.458 43.146 81.186 43.146C82.2873 43.146 83.02 42.5767 83.384 41.438C83.636 41.438 83.8273 41.508 83.958 41.648C84.098 41.7787 84.168 41.9653 84.168 42.208C84.168 42.544 84.028 42.8613 83.748 43.16C83.4773 43.4587 83.1133 43.6967 82.656 43.874C82.1987 44.0513 81.7087 44.14 81.186 44.14ZM88.712 44.14C87.6107 44.14 86.7753 43.7993 86.206 43.118C85.6367 42.4367 85.352 41.4427 85.352 40.136C85.352 38.8293 85.6367 37.84 86.206 37.168C86.7753 36.496 87.6107 36.16 88.712 36.16C89.8133 36.16 90.6487 36.496 91.218 37.168C91.7967 37.84 92.086 38.8293 92.086 40.136C92.086 41.4427 91.7967 42.4367 91.218 43.118C90.6487 43.7993 89.8133 44.14 88.712 44.14ZM88.712 43.174C89.412 43.174 89.9207 42.9313 90.238 42.446C90.5647 41.9607 90.728 41.1907 90.728 40.136C90.728 39.0907 90.5647 38.33 90.238 37.854C89.9207 37.3687 89.412 37.126 88.712 37.126C88.012 37.126 87.4987 37.3687 87.172 37.854C86.8547 38.33 86.696 39.0907 86.696 40.136C86.696 41.1907 86.8593 41.9607 87.186 42.446C87.5127 42.9313 88.0213 43.174 88.712 43.174ZM99.9776 42.166C99.9776 42.6887 99.9869 43.0573 100.006 43.272C100.034 43.4867 100.08 43.6827 100.146 43.86C99.8096 44 99.4596 44.07 99.0956 44.07C98.9183 44.07 98.7969 43.9673 98.7316 43.762C98.6756 43.5473 98.6476 43.1507 98.6476 42.572V38.82C98.6476 38.2227 98.5403 37.798 98.3256 37.546C98.1203 37.2847 97.7749 37.154 97.2896 37.154C96.5709 37.154 95.8243 37.504 95.0496 38.204V44H93.7196V38.89C93.7196 37.602 93.6636 36.804 93.5516 36.496C93.9903 36.328 94.3356 36.244 94.5876 36.244C94.8956 36.244 95.0496 36.5147 95.0496 37.056V37.196C95.4976 36.832 95.9176 36.5707 96.3096 36.412C96.7109 36.244 97.1356 36.16 97.5836 36.16C98.3863 36.16 98.9836 36.3793 99.3756 36.818C99.7769 37.2473 99.9776 37.9053 99.9776 38.792V42.166ZM106.073 42.922C106.147 42.9593 106.208 43.0247 106.255 43.118C106.301 43.202 106.325 43.3 106.325 43.412C106.325 43.5987 106.255 43.734 106.115 43.818C105.975 43.9207 105.779 44 105.527 44.056C105.284 44.112 105.018 44.14 104.729 44.14C104.103 44.14 103.604 43.972 103.231 43.636C102.857 43.2907 102.671 42.8333 102.671 42.264V37.238H101.313V36.3H102.671V34.2H104.001V36.3H105.835V37.238H104.001V42.082C104.001 42.4553 104.075 42.7307 104.225 42.908C104.374 43.076 104.603 43.16 104.911 43.16C105.284 43.16 105.671 43.0807 106.073 42.922ZM113.322 41.76C113.322 42.3013 113.354 42.712 113.42 42.992C113.494 43.272 113.62 43.5147 113.798 43.72C113.667 43.8227 113.508 43.9113 113.322 43.986C113.135 44.0513 112.962 44.084 112.804 44.084C112.374 44.084 112.118 43.7013 112.034 42.936C111.754 43.3187 111.394 43.6173 110.956 43.832C110.526 44.0373 110.041 44.14 109.5 44.14C108.8 44.14 108.235 43.958 107.806 43.594C107.386 43.23 107.176 42.7447 107.176 42.138C107.176 40.4207 108.781 39.4827 111.992 39.324V38.778C111.992 38.2367 111.856 37.8353 111.586 37.574C111.315 37.3127 110.895 37.182 110.326 37.182C109.952 37.182 109.602 37.2567 109.276 37.406C108.949 37.5553 108.576 37.8167 108.156 38.19C108.09 38.2367 108.03 38.26 107.974 38.26C107.852 38.26 107.722 38.1993 107.582 38.078C107.442 37.9473 107.311 37.77 107.19 37.546C107.582 37.1073 108.067 36.7667 108.646 36.524C109.224 36.2813 109.826 36.16 110.452 36.16C111.348 36.16 112.048 36.3933 112.552 36.86C113.065 37.3173 113.322 37.9567 113.322 38.778V41.76ZM109.794 43.174C110.223 43.174 110.624 43.048 110.998 42.796C111.371 42.5347 111.702 42.166 111.992 41.69V40.192C109.677 40.2947 108.52 40.9153 108.52 42.054C108.52 42.418 108.627 42.698 108.842 42.894C109.066 43.0807 109.383 43.174 109.794 43.174ZM118.551 44.14C117.375 44.14 116.47 43.7947 115.835 43.104C115.201 42.404 114.883 41.4053 114.883 40.108C114.883 39.3053 115.028 38.6053 115.317 38.008C115.607 37.4107 116.022 36.9533 116.563 36.636C117.105 36.3187 117.744 36.16 118.481 36.16C119.359 36.16 120.077 36.384 120.637 36.832C121.207 37.2707 121.543 37.8633 121.645 38.61C121.496 38.694 121.337 38.764 121.169 38.82C121.001 38.8667 120.852 38.89 120.721 38.89C120.609 38.89 120.521 38.8573 120.455 38.792C120.399 38.7267 120.348 38.6053 120.301 38.428C120.18 37.9987 119.965 37.6767 119.657 37.462C119.349 37.238 118.957 37.126 118.481 37.126C117.791 37.126 117.24 37.3967 116.829 37.938C116.428 38.47 116.227 39.1933 116.227 40.108C116.227 41.0693 116.433 41.816 116.843 42.348C117.254 42.88 117.823 43.146 118.551 43.146C119.653 43.146 120.385 42.5767 120.749 41.438C121.001 41.438 121.193 41.508 121.323 41.648C121.463 41.7787 121.533 41.9653 121.533 42.208C121.533 42.544 121.393 42.8613 121.113 43.16C120.843 43.4587 120.479 43.6967 120.021 43.874C119.564 44.0513 119.074 44.14 118.551 44.14ZM127.127 42.922C127.202 42.9593 127.263 43.0247 127.309 43.118C127.356 43.202 127.379 43.3 127.379 43.412C127.379 43.5987 127.309 43.734 127.169 43.818C127.029 43.9207 126.833 44 126.581 44.056C126.339 44.112 126.073 44.14 125.783 44.14C125.158 44.14 124.659 43.972 124.285 43.636C123.912 43.2907 123.725 42.8333 123.725 42.264V37.238H122.367V36.3H123.725V34.2H125.055V36.3H126.889V37.238H125.055V42.082C125.055 42.4553 125.13 42.7307 125.279 42.908C125.429 43.076 125.657 43.16 125.965 43.16C126.339 43.16 126.726 43.0807 127.127 42.922ZM135.398 40.164C135.389 40.2293 135.375 40.3227 135.356 40.444C135.338 40.556 135.328 40.6493 135.328 40.724C135.328 41.032 135.482 41.186 135.79 41.186C136.098 41.186 136.392 41.0647 136.672 40.822C136.952 40.57 137.181 40.2293 137.358 39.8C137.536 39.3613 137.624 38.8713 137.624 38.33C137.624 37.6113 137.456 36.9813 137.12 36.44C136.784 35.8893 136.313 35.4693 135.706 35.18C135.109 34.8813 134.418 34.732 133.634 34.732C132.785 34.732 132.034 34.9187 131.38 35.292C130.736 35.6653 130.232 36.1833 129.868 36.846C129.514 37.5087 129.336 38.26 129.336 39.1C129.336 40.0053 129.518 40.7893 129.882 41.452C130.246 42.1147 130.764 42.6233 131.436 42.978C132.108 43.3327 132.897 43.51 133.802 43.51C134.446 43.51 134.988 43.44 135.426 43.3C135.865 43.16 136.285 42.9547 136.686 42.684C136.91 42.8053 137.022 42.9687 137.022 43.174C137.022 43.3607 136.873 43.538 136.574 43.706C136.285 43.874 135.888 44.0093 135.384 44.112C134.89 44.224 134.362 44.28 133.802 44.28C132.729 44.28 131.791 44.0793 130.988 43.678C130.195 43.2673 129.579 42.6747 129.14 41.9C128.702 41.116 128.482 40.1733 128.482 39.072C128.482 38.1293 128.702 37.2707 129.14 36.496C129.588 35.712 130.204 35.096 130.988 34.648C131.772 34.1907 132.65 33.962 133.62 33.962C134.582 33.962 135.426 34.1487 136.154 34.522C136.892 34.8953 137.461 35.418 137.862 36.09C138.273 36.7527 138.478 37.5087 138.478 38.358C138.478 39.0767 138.348 39.716 138.086 40.276C137.825 40.8267 137.48 41.2513 137.05 41.55C136.63 41.8487 136.187 41.998 135.72 41.998C135.44 41.998 135.193 41.9233 134.978 41.774C134.773 41.6153 134.633 41.41 134.558 41.158C134.222 41.718 133.695 41.998 132.976 41.998C132.36 41.998 131.866 41.7973 131.492 41.396C131.128 40.9853 130.946 40.4113 130.946 39.674C130.946 39.0487 131.049 38.4933 131.254 38.008C131.469 37.5133 131.768 37.1307 132.15 36.86C132.533 36.5893 132.976 36.454 133.48 36.454C134.162 36.454 134.642 36.7153 134.922 37.238L135.02 36.678H135.958L135.398 40.164ZM133.088 41.186C133.564 41.186 133.938 40.948 134.208 40.472C134.488 39.996 134.628 39.436 134.628 38.792C134.628 38.2973 134.526 37.9193 134.32 37.658C134.124 37.3967 133.854 37.266 133.508 37.266C133.032 37.266 132.668 37.49 132.416 37.938C132.174 38.386 132.052 38.9553 132.052 39.646C132.052 40.1407 132.136 40.5233 132.304 40.794C132.482 41.0553 132.743 41.186 133.088 41.186ZM140.466 32.926H141.782V44H140.466V32.926ZM146.872 44.14C145.771 44.14 144.935 43.7993 144.366 43.118C143.797 42.4367 143.512 41.4427 143.512 40.136C143.512 38.8293 143.797 37.84 144.366 37.168C144.935 36.496 145.771 36.16 146.872 36.16C147.973 36.16 148.809 36.496 149.378 37.168C149.957 37.84 150.246 38.8293 150.246 40.136C150.246 41.4427 149.957 42.4367 149.378 43.118C148.809 43.7993 147.973 44.14 146.872 44.14ZM146.872 43.174C147.572 43.174 148.081 42.9313 148.398 42.446C148.725 41.9607 148.888 41.1907 148.888 40.136C148.888 39.0907 148.725 38.33 148.398 37.854C148.081 37.3687 147.572 37.126 146.872 37.126C146.172 37.126 145.659 37.3687 145.332 37.854C145.015 38.33 144.856 39.0907 144.856 40.136C144.856 41.1907 145.019 41.9607 145.346 42.446C145.673 42.9313 146.181 43.174 146.872 43.174ZM158.138 35.754C158.352 35.754 158.506 35.8193 158.6 35.95C158.702 36.0713 158.754 36.2767 158.754 36.566C158.754 36.706 158.749 36.8133 158.74 36.888C158.068 36.888 157.596 36.9767 157.326 37.154C157.68 37.5927 157.858 38.12 157.858 38.736C157.858 39.6227 157.587 40.2947 157.046 40.752C156.504 41.2 155.711 41.424 154.666 41.424C154.096 41.424 153.686 41.466 153.434 41.55C153.191 41.6247 153.07 41.7507 153.07 41.928C153.07 42.124 153.224 42.2687 153.532 42.362C153.849 42.446 154.367 42.488 155.086 42.488C156.159 42.488 156.985 42.67 157.564 43.034C158.152 43.398 158.446 43.9113 158.446 44.574C158.446 45.2927 158.128 45.8527 157.494 46.254C156.859 46.6553 155.963 46.856 154.806 46.856C153.695 46.856 152.841 46.6787 152.244 46.324C151.656 45.9787 151.362 45.4747 151.362 44.812C151.362 44.42 151.497 44.0887 151.768 43.818C152.048 43.538 152.444 43.342 152.958 43.23V43.188C152.65 43.1133 152.402 42.978 152.216 42.782C152.038 42.5767 151.95 42.3387 151.95 42.068C151.95 41.8347 152.043 41.6247 152.23 41.438C152.426 41.2513 152.687 41.116 153.014 41.032C152.594 40.808 152.262 40.514 152.02 40.15C151.786 39.7767 151.67 39.3613 151.67 38.904C151.67 38.008 151.945 37.3267 152.496 36.86C153.056 36.3933 153.868 36.16 154.932 36.16C155.548 36.16 156.094 36.286 156.57 36.538C156.794 36.2953 157.046 36.104 157.326 35.964C157.606 35.824 157.876 35.754 158.138 35.754ZM154.75 40.458C155.366 40.458 155.809 40.3273 156.08 40.066C156.35 39.8047 156.486 39.38 156.486 38.792C156.486 38.204 156.346 37.7747 156.066 37.504C155.795 37.2333 155.356 37.098 154.75 37.098C154.162 37.098 153.728 37.238 153.448 37.518C153.168 37.7887 153.028 38.2133 153.028 38.792C153.028 39.9027 153.602 40.458 154.75 40.458ZM154.862 43.496C153.443 43.496 152.734 43.8833 152.734 44.658C152.734 45.47 153.424 45.876 154.806 45.876C155.571 45.876 156.15 45.7733 156.542 45.568C156.934 45.3627 157.13 45.0593 157.13 44.658C157.13 44.2567 156.948 43.9627 156.584 43.776C156.229 43.5893 155.655 43.496 154.862 43.496ZM160.307 36.3H161.623V44H160.307V36.3ZM160.895 34.886C160.373 34.886 160.111 34.6247 160.111 34.102V33.948C160.111 33.4253 160.373 33.164 160.895 33.164H161.035C161.558 33.164 161.819 33.4253 161.819 33.948V34.102C161.819 34.6247 161.558 34.886 161.035 34.886H160.895ZM166.412 44.14C165.927 44.14 165.46 44.07 165.012 43.93C164.564 43.79 164.2 43.608 163.92 43.384C163.65 43.1507 163.514 42.8987 163.514 42.628C163.514 42.46 163.57 42.3153 163.682 42.194C163.804 42.0633 163.958 41.984 164.144 41.956C164.434 42.376 164.76 42.684 165.124 42.88C165.488 43.076 165.936 43.174 166.468 43.174C167 43.174 167.402 43.0573 167.672 42.824C167.943 42.5813 168.078 42.264 168.078 41.872C168.078 41.62 167.994 41.4147 167.826 41.256C167.668 41.088 167.462 40.9573 167.21 40.864C166.968 40.7613 166.636 40.654 166.216 40.542C165.666 40.3927 165.222 40.248 164.886 40.108C164.56 39.9587 164.275 39.744 164.032 39.464C163.799 39.1747 163.682 38.7967 163.682 38.33C163.682 37.8633 163.813 37.4667 164.074 37.14C164.336 36.8133 164.672 36.5707 165.082 36.412C165.493 36.244 165.922 36.16 166.37 36.16C166.996 36.16 167.551 36.286 168.036 36.538C168.531 36.7807 168.914 37.1213 169.184 37.56C169.072 37.7187 168.951 37.8447 168.82 37.938C168.69 38.0313 168.568 38.078 168.456 38.078C168.316 38.078 168.19 38.0127 168.078 37.882C167.63 37.3593 167.056 37.098 166.356 37.098C165.927 37.098 165.586 37.196 165.334 37.392C165.082 37.588 164.956 37.8867 164.956 38.288C164.956 38.54 165.036 38.7453 165.194 38.904C165.353 39.0533 165.554 39.1747 165.796 39.268C166.039 39.352 166.366 39.4453 166.776 39.548C167.336 39.6973 167.784 39.842 168.12 39.982C168.456 40.122 168.746 40.3413 168.988 40.64C169.231 40.9387 169.352 41.3353 169.352 41.83C169.352 42.5487 169.086 43.1133 168.554 43.524C168.032 43.9347 167.318 44.14 166.412 44.14ZM174.801 42.922C174.876 42.9593 174.936 43.0247 174.983 43.118C175.03 43.202 175.053 43.3 175.053 43.412C175.053 43.5987 174.983 43.734 174.843 43.818C174.703 43.9207 174.507 44 174.255 44.056C174.012 44.112 173.746 44.14 173.457 44.14C172.832 44.14 172.332 43.972 171.959 43.636C171.586 43.2907 171.399 42.8333 171.399 42.264V37.238H170.041V36.3H171.399V34.2H172.729V36.3H174.563V37.238H172.729V42.082C172.729 42.4553 172.804 42.7307 172.953 42.908C173.102 43.076 173.331 43.16 173.639 43.16C174.012 43.16 174.4 43.0807 174.801 42.922ZM176.604 36.3H177.92V44H176.604V36.3ZM177.192 34.886C176.669 34.886 176.408 34.6247 176.408 34.102V33.948C176.408 33.4253 176.669 33.164 177.192 33.164H177.332C177.855 33.164 178.116 33.4253 178.116 33.948V34.102C178.116 34.6247 177.855 34.886 177.332 34.886H177.192ZM183.465 44.14C182.289 44.14 181.384 43.7947 180.749 43.104C180.115 42.404 179.797 41.4053 179.797 40.108C179.797 39.3053 179.942 38.6053 180.231 38.008C180.521 37.4107 180.936 36.9533 181.477 36.636C182.019 36.3187 182.658 36.16 183.395 36.16C184.273 36.16 184.991 36.384 185.551 36.832C186.121 37.2707 186.457 37.8633 186.559 38.61C186.41 38.694 186.251 38.764 186.083 38.82C185.915 38.8667 185.766 38.89 185.635 38.89C185.523 38.89 185.435 38.8573 185.369 38.792C185.313 38.7267 185.262 38.6053 185.215 38.428C185.094 37.9987 184.879 37.6767 184.571 37.462C184.263 37.238 183.871 37.126 183.395 37.126C182.705 37.126 182.154 37.3967 181.743 37.938C181.342 38.47 181.141 39.1933 181.141 40.108C181.141 41.0693 181.347 41.816 181.757 42.348C182.168 42.88 182.737 43.146 183.465 43.146C184.567 43.146 185.299 42.5767 185.663 41.438C185.915 41.438 186.107 41.508 186.237 41.648C186.377 41.7787 186.447 41.9653 186.447 42.208C186.447 42.544 186.307 42.8613 186.027 43.16C185.757 43.4587 185.393 43.6967 184.935 43.874C184.478 44.0513 183.988 44.14 183.465 44.14ZM190.543 44.14C190.058 44.14 189.591 44.07 189.143 43.93C188.695 43.79 188.331 43.608 188.051 43.384C187.781 43.1507 187.645 42.8987 187.645 42.628C187.645 42.46 187.701 42.3153 187.813 42.194C187.935 42.0633 188.089 41.984 188.275 41.956C188.565 42.376 188.891 42.684 189.255 42.88C189.619 43.076 190.067 43.174 190.599 43.174C191.131 43.174 191.533 43.0573 191.803 42.824C192.074 42.5813 192.209 42.264 192.209 41.872C192.209 41.62 192.125 41.4147 191.957 41.256C191.799 41.088 191.593 40.9573 191.341 40.864C191.099 40.7613 190.767 40.654 190.347 40.542C189.797 40.3927 189.353 40.248 189.017 40.108C188.691 39.9587 188.406 39.744 188.163 39.464C187.93 39.1747 187.813 38.7967 187.813 38.33C187.813 37.8633 187.944 37.4667 188.205 37.14C188.467 36.8133 188.803 36.5707 189.213 36.412C189.624 36.244 190.053 36.16 190.501 36.16C191.127 36.16 191.682 36.286 192.167 36.538C192.662 36.7807 193.045 37.1213 193.315 37.56C193.203 37.7187 193.082 37.8447 192.951 37.938C192.821 38.0313 192.699 38.078 192.587 38.078C192.447 38.078 192.321 38.0127 192.209 37.882C191.761 37.3593 191.187 37.098 190.487 37.098C190.058 37.098 189.717 37.196 189.465 37.392C189.213 37.588 189.087 37.8867 189.087 38.288C189.087 38.54 189.167 38.7453 189.325 38.904C189.484 39.0533 189.685 39.1747 189.927 39.268C190.17 39.352 190.497 39.4453 190.907 39.548C191.467 39.6973 191.915 39.842 192.251 39.982C192.587 40.122 192.877 40.3413 193.119 40.64C193.362 40.9387 193.483 41.3353 193.483 41.83C193.483 42.5487 193.217 43.1133 192.685 43.524C192.163 43.9347 191.449 44.14 190.543 44.14ZM196.09 44.028C195.567 44.028 195.306 43.7667 195.306 43.244V43.09C195.306 42.5673 195.567 42.306 196.09 42.306H196.23C196.753 42.306 197.014 42.5673 197.014 43.09V43.244C197.014 43.7667 196.753 44.028 196.23 44.028H196.09ZM202.51 44.14C201.334 44.14 200.429 43.7947 199.794 43.104C199.16 42.404 198.842 41.4053 198.842 40.108C198.842 39.3053 198.987 38.6053 199.276 38.008C199.566 37.4107 199.981 36.9533 200.522 36.636C201.064 36.3187 201.703 36.16 202.44 36.16C203.318 36.16 204.036 36.384 204.596 36.832C205.166 37.2707 205.502 37.8633 205.604 38.61C205.455 38.694 205.296 38.764 205.128 38.82C204.96 38.8667 204.811 38.89 204.68 38.89C204.568 38.89 204.48 38.8573 204.414 38.792C204.358 38.7267 204.307 38.6053 204.26 38.428C204.139 37.9987 203.924 37.6767 203.616 37.462C203.308 37.238 202.916 37.126 202.44 37.126C201.75 37.126 201.199 37.3967 200.788 37.938C200.387 38.47 200.186 39.1933 200.186 40.108C200.186 41.0693 200.392 41.816 200.802 42.348C201.213 42.88 201.782 43.146 202.51 43.146C203.612 43.146 204.344 42.5767 204.708 41.438C204.96 41.438 205.152 41.508 205.282 41.648C205.422 41.7787 205.492 41.9653 205.492 42.208C205.492 42.544 205.352 42.8613 205.072 43.16C204.802 43.4587 204.438 43.6967 203.98 43.874C203.523 44.0513 203.033 44.14 202.51 44.14ZM210.036 44.14C208.935 44.14 208.1 43.7993 207.53 43.118C206.961 42.4367 206.676 41.4427 206.676 40.136C206.676 38.8293 206.961 37.84 207.53 37.168C208.1 36.496 208.935 36.16 210.036 36.16C211.138 36.16 211.973 36.496 212.542 37.168C213.121 37.84 213.41 38.8293 213.41 40.136C213.41 41.4427 213.121 42.4367 212.542 43.118C211.973 43.7993 211.138 44.14 210.036 44.14ZM210.036 43.174C210.736 43.174 211.245 42.9313 211.562 42.446C211.889 41.9607 212.052 41.1907 212.052 40.136C212.052 39.0907 211.889 38.33 211.562 37.854C211.245 37.3687 210.736 37.126 210.036 37.126C209.336 37.126 208.823 37.3687 208.496 37.854C208.179 38.33 208.02 39.0907 208.02 40.136C208.02 41.1907 208.184 41.9607 208.51 42.446C208.837 42.9313 209.346 43.174 210.036 43.174ZM223.22 36.16C223.91 36.16 224.466 36.3747 224.886 36.804C225.306 37.2333 225.516 37.8027 225.516 38.512V44H224.172V38.554C224.172 38.0407 224.069 37.672 223.864 37.448C223.668 37.2147 223.341 37.098 222.884 37.098C222.193 37.098 221.554 37.42 220.966 38.064C220.975 38.1293 220.98 38.2227 220.98 38.344V44H219.664V38.414C219.664 37.994 219.556 37.672 219.342 37.448C219.127 37.2147 218.824 37.098 218.432 37.098C218.086 37.098 217.75 37.1867 217.424 37.364C217.106 37.532 216.78 37.798 216.444 38.162V44H215.114V38.96C215.114 37.6067 215.058 36.79 214.946 36.51C215.104 36.4353 215.268 36.3747 215.436 36.328C215.613 36.272 215.767 36.244 215.898 36.244C216.084 36.244 216.22 36.3187 216.304 36.468C216.388 36.608 216.434 36.8367 216.444 37.154C216.789 36.8087 217.148 36.5567 217.522 36.398C217.895 36.2393 218.32 36.16 218.796 36.16C219.225 36.16 219.608 36.258 219.944 36.454C220.28 36.6407 220.536 36.902 220.714 37.238C221.059 36.8647 221.432 36.594 221.834 36.426C222.244 36.2487 222.706 36.16 223.22 36.16Z" fill="white"/>
<circle cx="31.5" cy="31.5" r="31" fill="#111C55" stroke="#273270"/>
<path d="M40.996 23H23.004C22.4495 23 22 23.3755 22 23.8387V37.1613C22 37.6245 22.4495 38 23.004 38H40.996C41.5505 38 42 37.6245 42 37.1613V23.8387C42 23.3755 41.5505 23 40.996 23Z" stroke="#F6B426"/>
<path d="M22 23L32.4247 30L42 23.2294" stroke="#F6B426"/>
<path d="M82.068 118.14C80.6773 118.14 79.604 117.706 78.848 116.838C78.1013 115.961 77.728 114.715 77.728 113.1C77.728 111.495 78.106 110.253 78.862 109.376C79.618 108.499 80.6867 108.06 82.068 108.06C82.628 108.06 83.1507 108.158 83.636 108.354C84.1307 108.541 84.546 108.807 84.882 109.152C84.826 109.367 84.7327 109.549 84.602 109.698C84.4713 109.847 84.336 109.922 84.196 109.922C84.0653 109.922 83.944 109.88 83.832 109.796C83.552 109.581 83.2673 109.427 82.978 109.334C82.698 109.231 82.3853 109.18 82.04 109.18C81.088 109.18 80.3693 109.511 79.884 110.174C79.3987 110.827 79.156 111.803 79.156 113.1C79.156 114.379 79.3987 115.349 79.884 116.012C80.3787 116.675 81.0973 117.006 82.04 117.006C82.4693 117.006 82.866 116.941 83.23 116.81C83.594 116.67 83.9393 116.455 84.266 116.166C84.4153 116.203 84.5413 116.283 84.644 116.404C84.7467 116.525 84.798 116.661 84.798 116.81C84.798 117.043 84.672 117.263 84.42 117.468C84.168 117.664 83.8273 117.827 83.398 117.958C82.978 118.079 82.5347 118.14 82.068 118.14ZM92.3353 115.76C92.3353 116.301 92.3679 116.712 92.4333 116.992C92.5079 117.272 92.6339 117.515 92.8113 117.72C92.6806 117.823 92.5219 117.911 92.3353 117.986C92.1486 118.051 91.9759 118.084 91.8173 118.084C91.3879 118.084 91.1313 117.701 91.0473 116.936C90.7673 117.319 90.4079 117.617 89.9693 117.832C89.5399 118.037 89.0546 118.14 88.5133 118.14C87.8133 118.14 87.2486 117.958 86.8193 117.594C86.3993 117.23 86.1893 116.745 86.1893 116.138C86.1893 114.421 87.7946 113.483 91.0053 113.324V112.778C91.0053 112.237 90.8699 111.835 90.5993 111.574C90.3286 111.313 89.9086 111.182 89.3393 111.182C88.9659 111.182 88.6159 111.257 88.2893 111.406C87.9626 111.555 87.5893 111.817 87.1693 112.19C87.1039 112.237 87.0433 112.26 86.9873 112.26C86.8659 112.26 86.7353 112.199 86.5953 112.078C86.4553 111.947 86.3246 111.77 86.2033 111.546C86.5953 111.107 87.0806 110.767 87.6593 110.524C88.2379 110.281 88.8399 110.16 89.4653 110.16C90.3613 110.16 91.0613 110.393 91.5653 110.86C92.0786 111.317 92.3353 111.957 92.3353 112.778V115.76ZM88.8073 117.174C89.2366 117.174 89.6379 117.048 90.0113 116.796C90.3846 116.535 90.7159 116.166 91.0053 115.69V114.192C88.6906 114.295 87.5333 114.915 87.5333 116.054C87.5333 116.418 87.6406 116.698 87.8553 116.894C88.0793 117.081 88.3966 117.174 88.8073 117.174ZM94.5969 106.926H95.9129V118H94.5969V106.926ZM98.343 106.926H99.659V118H98.343V106.926ZM109.464 118.14C108.186 118.14 107.229 117.837 106.594 117.23C105.96 116.623 105.642 115.709 105.642 114.486V108.2H107.028V114.682C107.028 115.485 107.229 116.082 107.63 116.474C108.032 116.857 108.643 117.048 109.464 117.048C110.295 117.048 110.906 116.857 111.298 116.474C111.69 116.091 111.886 115.494 111.886 114.682V108.2H113.272V114.486C113.272 115.737 112.96 116.661 112.334 117.258C111.718 117.846 110.762 118.14 109.464 118.14ZM117.836 118.14C117.351 118.14 116.884 118.07 116.436 117.93C115.988 117.79 115.624 117.608 115.344 117.384C115.074 117.151 114.938 116.899 114.938 116.628C114.938 116.46 114.994 116.315 115.106 116.194C115.228 116.063 115.382 115.984 115.568 115.956C115.858 116.376 116.184 116.684 116.548 116.88C116.912 117.076 117.36 117.174 117.892 117.174C118.424 117.174 118.826 117.057 119.096 116.824C119.367 116.581 119.502 116.264 119.502 115.872C119.502 115.62 119.418 115.415 119.25 115.256C119.092 115.088 118.886 114.957 118.634 114.864C118.392 114.761 118.06 114.654 117.64 114.542C117.09 114.393 116.646 114.248 116.31 114.108C115.984 113.959 115.699 113.744 115.456 113.464C115.223 113.175 115.106 112.797 115.106 112.33C115.106 111.863 115.237 111.467 115.498 111.14C115.76 110.813 116.096 110.571 116.506 110.412C116.917 110.244 117.346 110.16 117.794 110.16C118.42 110.16 118.975 110.286 119.46 110.538C119.955 110.781 120.338 111.121 120.608 111.56C120.496 111.719 120.375 111.845 120.244 111.938C120.114 112.031 119.992 112.078 119.88 112.078C119.74 112.078 119.614 112.013 119.502 111.882C119.054 111.359 118.48 111.098 117.78 111.098C117.351 111.098 117.01 111.196 116.758 111.392C116.506 111.588 116.38 111.887 116.38 112.288C116.38 112.54 116.46 112.745 116.618 112.904C116.777 113.053 116.978 113.175 117.22 113.268C117.463 113.352 117.79 113.445 118.2 113.548C118.76 113.697 119.208 113.842 119.544 113.982C119.88 114.122 120.17 114.341 120.412 114.64C120.655 114.939 120.776 115.335 120.776 115.83C120.776 116.549 120.51 117.113 119.978 117.524C119.456 117.935 118.742 118.14 117.836 118.14ZM80.276 138.386C79.548 137.425 78.9973 136.356 78.624 135.18C78.26 134.004 78.078 132.837 78.078 131.68C78.078 130.532 78.26 129.375 78.624 128.208C78.9973 127.032 79.548 125.963 80.276 125.002H81.452C80.7707 126.019 80.262 127.093 79.926 128.222C79.5993 129.351 79.436 130.504 79.436 131.68C79.436 134.153 80.108 136.389 81.452 138.386H80.276ZM86.7951 137.168C85.5631 137.168 84.6297 136.743 83.9951 135.894C83.3697 135.035 83.0571 133.827 83.0571 132.268C83.0571 130.607 83.3697 129.323 83.9951 128.418C84.6297 127.513 85.5631 127.06 86.7951 127.06C88.0271 127.06 88.9557 127.513 89.5811 128.418C90.2157 129.323 90.5331 130.607 90.5331 132.268C90.5331 133.827 90.2157 135.035 89.5811 135.894C88.9557 136.743 88.0271 137.168 86.7951 137.168ZM86.7951 136.118C87.6164 136.118 88.2231 135.782 88.6151 135.11C89.0071 134.438 89.2031 133.491 89.2031 132.268C89.2031 130.933 89.0071 129.907 88.6151 129.188C88.2231 128.469 87.6164 128.11 86.7951 128.11C85.1897 128.11 84.3871 129.496 84.3871 132.268C84.3871 134.835 85.1897 136.118 86.7951 136.118ZM95.4767 137.168C94.2447 137.168 93.3114 136.743 92.6767 135.894C92.0514 135.035 91.7387 133.827 91.7387 132.268C91.7387 130.607 92.0514 129.323 92.6767 128.418C93.3114 127.513 94.2447 127.06 95.4767 127.06C96.7087 127.06 97.6374 127.513 98.2627 128.418C98.8974 129.323 99.2147 130.607 99.2147 132.268C99.2147 133.827 98.8974 135.035 98.2627 135.894C97.6374 136.743 96.7087 137.168 95.4767 137.168ZM95.4767 136.118C96.2981 136.118 96.9047 135.782 97.2967 135.11C97.6887 134.438 97.8847 133.491 97.8847 132.268C97.8847 130.933 97.6887 129.907 97.2967 129.188C96.9047 128.469 96.2981 128.11 95.4767 128.11C93.8714 128.11 93.0687 129.496 93.0687 132.268C93.0687 134.835 93.8714 136.118 95.4767 136.118ZM100.826 138.386C102.17 136.389 102.842 134.153 102.842 131.68C102.842 130.504 102.674 129.351 102.338 128.222C102.012 127.093 101.508 126.019 100.826 125.002H102.002C102.73 125.963 103.276 127.032 103.64 128.208C104.014 129.375 104.2 130.532 104.2 131.68C104.2 132.837 104.014 134.004 103.64 135.18C103.276 136.356 102.73 137.425 102.002 138.386H100.826ZM114.413 136.048V137H109.793V136.048H111.501V128.768C111.267 128.945 111.015 129.099 110.745 129.23C110.474 129.351 110.227 129.412 110.003 129.412C109.797 129.412 109.634 129.356 109.513 129.244C109.391 129.132 109.331 128.978 109.331 128.782C109.331 128.642 109.354 128.525 109.401 128.432C109.793 128.395 110.227 128.269 110.703 128.054C111.179 127.839 111.599 127.555 111.963 127.2H112.775V136.048H114.413ZM120.839 136.048V137H116.219V136.048H117.927V128.768C117.693 128.945 117.441 129.099 117.171 129.23C116.9 129.351 116.653 129.412 116.429 129.412C116.223 129.412 116.06 129.356 115.939 129.244C115.817 129.132 115.757 128.978 115.757 128.782C115.757 128.642 115.78 128.525 115.827 128.432C116.219 128.395 116.653 128.269 117.129 128.054C117.605 127.839 118.025 127.555 118.389 127.2H119.201V136.048H120.839ZM128.58 130.168C128.58 131.101 128.226 132.03 127.516 132.954C126.807 133.869 125.757 134.881 124.366 135.992H128.468V137H122.462V136.314C123.676 135.325 124.623 134.485 125.304 133.794C125.995 133.103 126.499 132.464 126.816 131.876C127.143 131.279 127.306 130.672 127.306 130.056C127.306 129.468 127.152 129.011 126.844 128.684C126.536 128.357 126.098 128.194 125.528 128.194C124.324 128.194 123.652 128.922 123.512 130.378C123.13 130.378 122.859 130.317 122.7 130.196C122.551 130.075 122.476 129.874 122.476 129.594C122.476 129.174 122.598 128.782 122.84 128.418C123.092 128.045 123.447 127.751 123.904 127.536C124.371 127.312 124.912 127.2 125.528 127.2C126.471 127.2 127.213 127.452 127.754 127.956C128.305 128.451 128.58 129.188 128.58 130.168ZM138.085 131.946C138.571 132.067 138.977 132.305 139.303 132.66C139.63 133.005 139.793 133.519 139.793 134.2C139.793 135.105 139.481 135.819 138.855 136.342C138.239 136.865 137.409 137.126 136.363 137.126C135.729 137.126 135.169 137.051 134.683 136.902C134.207 136.753 133.839 136.557 133.577 136.314C133.316 136.062 133.185 135.791 133.185 135.502C133.185 135.278 133.26 135.101 133.409 134.97C133.559 134.83 133.731 134.76 133.927 134.76C134.198 135.199 134.515 135.535 134.879 135.768C135.253 136.001 135.761 136.118 136.405 136.118C137.077 136.118 137.595 135.95 137.959 135.614C138.323 135.269 138.505 134.802 138.505 134.214C138.505 133.626 138.342 133.187 138.015 132.898C137.689 132.599 137.25 132.45 136.699 132.45L136.251 132.464C136.046 132.483 135.883 132.492 135.761 132.492C135.603 132.492 135.463 132.408 135.341 132.24C135.229 132.063 135.173 131.895 135.173 131.736C135.173 131.587 135.225 131.512 135.327 131.512H136.475C137.045 131.512 137.479 131.363 137.777 131.064C138.085 130.765 138.239 130.313 138.239 129.706C138.239 129.23 138.085 128.861 137.777 128.6C137.469 128.329 137.017 128.194 136.419 128.194C135.897 128.194 135.472 128.325 135.145 128.586C134.828 128.838 134.548 129.211 134.305 129.706C134.035 129.706 133.82 129.645 133.661 129.524C133.512 129.393 133.437 129.216 133.437 128.992C133.437 128.74 133.563 128.474 133.815 128.194C134.067 127.914 134.422 127.681 134.879 127.494C135.346 127.298 135.869 127.2 136.447 127.2C137.39 127.2 138.137 127.419 138.687 127.858C139.247 128.287 139.527 128.903 139.527 129.706C139.527 130.285 139.392 130.761 139.121 131.134C138.851 131.507 138.505 131.778 138.085 131.946ZM144.747 130.714C145.335 130.714 145.862 130.84 146.329 131.092C146.805 131.344 147.173 131.717 147.435 132.212C147.705 132.697 147.841 133.285 147.841 133.976C147.841 134.592 147.705 135.138 147.435 135.614C147.173 136.081 146.795 136.445 146.301 136.706C145.815 136.967 145.251 137.098 144.607 137.098C143.879 137.098 143.253 136.925 142.731 136.58C142.217 136.225 141.825 135.749 141.555 135.152C141.293 134.545 141.163 133.864 141.163 133.108C141.163 132.025 141.363 131.027 141.765 130.112C142.175 129.197 142.726 128.474 143.417 127.942C144.117 127.401 144.873 127.13 145.685 127.13C146.002 127.13 146.226 127.214 146.357 127.382C146.497 127.541 146.567 127.779 146.567 128.096C145.559 128.096 144.714 128.399 144.033 129.006C143.351 129.603 142.885 130.415 142.633 131.442C142.913 131.227 143.239 131.055 143.613 130.924C143.986 130.784 144.364 130.714 144.747 130.714ZM144.635 136.09C145.251 136.09 145.722 135.894 146.049 135.502C146.385 135.101 146.553 134.578 146.553 133.934C146.553 133.178 146.38 132.623 146.035 132.268C145.699 131.904 145.223 131.722 144.607 131.722C144.196 131.722 143.804 131.811 143.431 131.988C143.067 132.156 142.745 132.385 142.465 132.674C142.455 132.767 142.451 132.912 142.451 133.108C142.451 134.004 142.628 134.727 142.983 135.278C143.337 135.819 143.888 136.09 144.635 136.09ZM152.687 130.56C153.303 130.56 153.849 130.691 154.325 130.952C154.801 131.204 155.169 131.573 155.431 132.058C155.701 132.534 155.837 133.099 155.837 133.752C155.837 134.788 155.538 135.609 154.941 136.216C154.343 136.823 153.541 137.126 152.533 137.126C151.926 137.126 151.399 137.042 150.951 136.874C150.503 136.697 150.157 136.473 149.915 136.202C149.681 135.931 149.565 135.656 149.565 135.376C149.565 134.928 149.803 134.671 150.279 134.606C150.671 135.623 151.408 136.132 152.491 136.132C153.163 136.132 153.671 135.922 154.017 135.502C154.371 135.073 154.549 134.508 154.549 133.808C154.549 133.052 154.371 132.492 154.017 132.128C153.671 131.764 153.177 131.582 152.533 131.582C152.103 131.582 151.735 131.666 151.427 131.834C151.119 132.002 150.839 132.263 150.587 132.618L149.677 132.464L150.013 127.2H155.165V128.194H151.119L150.923 131.078C151.399 130.733 151.987 130.56 152.687 130.56ZM164.565 134.76H160.309V134.116C161.205 132.875 161.877 131.727 162.325 130.672C162.773 129.617 163.044 128.46 163.137 127.2C163.221 127.181 163.343 127.172 163.501 127.172C164.108 127.172 164.411 127.494 164.411 128.138C164.411 128.931 164.131 129.86 163.571 130.924C163.021 131.988 162.4 132.931 161.709 133.752H164.565V131.05H165.839V133.752H167.071V134.76H165.839V137H164.565V134.76ZM172.776 131.96C173.466 132.249 173.947 132.604 174.218 133.024C174.488 133.444 174.624 133.948 174.624 134.536C174.624 135.376 174.325 136.02 173.728 136.468C173.14 136.907 172.328 137.126 171.292 137.126C170.265 137.126 169.453 136.907 168.856 136.468C168.268 136.02 167.974 135.376 167.974 134.536C167.974 133.948 168.114 133.444 168.394 133.024C168.674 132.595 169.154 132.24 169.836 131.96C169.294 131.68 168.888 131.363 168.618 131.008C168.356 130.644 168.226 130.201 168.226 129.678C168.226 128.903 168.506 128.287 169.066 127.83C169.626 127.363 170.368 127.13 171.292 127.13C172.225 127.13 172.967 127.363 173.518 127.83C174.068 128.287 174.344 128.903 174.344 129.678C174.344 130.21 174.213 130.658 173.952 131.022C173.7 131.386 173.308 131.699 172.776 131.96ZM171.292 128.11C170.75 128.11 170.316 128.25 169.99 128.53C169.663 128.801 169.5 129.169 169.5 129.636C169.5 130.056 169.654 130.425 169.962 130.742C170.279 131.05 170.722 131.302 171.292 131.498C171.964 131.283 172.426 131.031 172.678 130.742C172.939 130.453 173.07 130.084 173.07 129.636C173.07 129.169 172.906 128.801 172.58 128.53C172.262 128.25 171.833 128.11 171.292 128.11ZM171.292 136.132C171.917 136.132 172.412 135.992 172.776 135.712C173.149 135.423 173.336 135.031 173.336 134.536C173.336 134.219 173.275 133.953 173.154 133.738C173.042 133.514 172.841 133.309 172.552 133.122C172.262 132.935 171.842 132.739 171.292 132.534C170.573 132.805 170.055 133.089 169.738 133.388C169.42 133.687 169.262 134.069 169.262 134.536C169.262 135.031 169.444 135.423 169.808 135.712C170.172 135.992 170.666 136.132 171.292 136.132ZM179.124 127.172C180.291 127.172 181.149 127.531 181.7 128.25C182.251 128.969 182.526 129.925 182.526 131.12C182.526 132.212 182.316 133.215 181.896 134.13C181.485 135.035 180.921 135.759 180.202 136.3C179.483 136.832 178.69 137.098 177.822 137.098C177.505 137.098 177.276 137.019 177.136 136.86C176.996 136.692 176.926 136.449 176.926 136.132C177.99 136.132 178.872 135.843 179.572 135.264C180.272 134.685 180.757 133.897 181.028 132.898C180.757 133.085 180.445 133.239 180.09 133.36C179.745 133.481 179.385 133.542 179.012 133.542C178.069 133.542 177.304 133.267 176.716 132.716C176.137 132.165 175.848 131.391 175.848 130.392C175.848 129.767 175.993 129.211 176.282 128.726C176.571 128.231 176.963 127.849 177.458 127.578C177.953 127.307 178.508 127.172 179.124 127.172ZM179.152 132.534C179.955 132.534 180.645 132.245 181.224 131.666C181.233 131.545 181.238 131.363 181.238 131.12C181.238 130.196 181.079 129.477 180.762 128.964C180.445 128.451 179.889 128.194 179.096 128.194C178.471 128.194 177.985 128.404 177.64 128.824C177.304 129.235 177.136 129.776 177.136 130.448C177.136 131.148 177.309 131.671 177.654 132.016C178.009 132.361 178.508 132.534 179.152 132.534Z" fill="white"/>
<circle cx="31.5" cy="124.5" r="31" fill="#111C55" stroke="#273270"/>
<path d="M23.9741 115.141C23.8394 115.145 23.7071 115.174 23.5848 115.227C23.4625 115.28 23.3528 115.355 23.2622 115.449C23.1715 115.542 23.1018 115.651 23.0571 115.77C23.0124 115.889 22.9936 116.016 23.0019 116.142C23.1364 118.301 23.7704 123.572 26.8059 126.858C30.4409 130.818 35.1748 132.182 40.0317 131.981C40.292 131.966 40.5368 131.86 40.7165 131.683C40.8962 131.506 40.9975 131.271 41 131.027V127.567C40.997 127.245 40.8783 126.932 40.663 126.68C40.4476 126.428 40.1482 126.251 39.8127 126.178L37.3804 125.674C37.0796 125.614 36.7664 125.64 36.4815 125.748C36.1965 125.857 35.9528 126.043 35.7819 126.282L35.244 127.045C35.1946 127.115 35.1208 127.167 35.0352 127.191C34.9496 127.215 34.8577 127.211 34.7752 127.179C33.5379 126.678 28.6081 124.518 28.0663 120.875C28.0557 120.805 28.0675 120.733 28.1003 120.669C28.1332 120.605 28.1855 120.552 28.2507 120.515L29.2267 119.957C29.4944 119.802 29.7047 119.573 29.8291 119.302C29.9535 119.031 29.986 118.731 29.9222 118.442L29.3881 116.124C29.31 115.799 29.1142 115.509 28.8339 115.305C28.5537 115.1 28.2064 114.992 27.8511 115L23.9741 115.141Z" stroke="#F6B426"/>
</svg>
