<svg width="325" height="138" viewBox="0 0 325 138" fill="none" xmlns="http://www.w3.org/2000/svg">
<circle cx="29" cy="29" r="29" fill="url(#paint0_linear_1_1557)"/>
<path d="M41 37.4598V24.5402C40.999 24.3536 40.9512 24.1705 40.8612 24.0095C40.7712 23.8484 40.6423 23.7151 40.4875 23.623L29.4875 17.1369C29.3393 17.0472 29.1711 17 29 17C28.8289 17 28.6607 17.0472 28.5125 17.1369L17.5125 23.623C17.3577 23.7151 17.2288 23.8484 17.1388 24.0095C17.0488 24.1705 17.001 24.3536 17 24.5402V37.4598C17.001 37.6464 17.0488 37.8295 17.1388 37.9905C17.2288 38.1516 17.3577 38.2849 17.5125 38.377L28.5125 44.8631C28.6607 44.9528 28.8289 45 29 45C29.1711 45 29.3393 44.9528 29.4875 44.8631L40.4875 38.377C40.6423 38.2849 40.7712 38.1516 40.8612 37.9905C40.9512 37.8295 40.999 37.6464 41 37.4598V37.4598Z" stroke="#141414" stroke-width="1.5" stroke-linecap="round" stroke-linejoin="round"/>
<path d="M35 34V27.0995L23 20" stroke="#141414" stroke-width="1.5" stroke-linecap="round" stroke-linejoin="round"/>
<path d="M41 24L29.1138 31L17 24" stroke="#141414" stroke-width="1.5" stroke-linecap="round" stroke-linejoin="round"/>
<path d="M29 31V45" stroke="#141414" stroke-width="1.5" stroke-linecap="round" stroke-linejoin="round"/>
<path d="M75.75 38C75.5667 38 75.425 37.95 75.325 37.85C75.225 37.7333 75.175 37.5917 75.175 37.425V21.1C75.175 20.9167 75.225 20.775 75.325 20.675C75.425 20.5583 75.5667 20.5 75.75 20.5H81.425C83.1417 20.5 84.525 20.7583 85.575 21.275C86.625 21.7917 87.3917 22.5583 87.875 23.575C88.3583 24.575 88.6083 25.8083 88.625 27.275C88.6417 28.025 88.65 28.6833 88.65 29.25C88.65 29.8167 88.6417 30.4667 88.625 31.2C88.5917 32.7333 88.3333 34.0083 87.85 35.025C87.3833 36.025 86.6333 36.775 85.6 37.275C84.5833 37.7583 83.2333 38 81.55 38H75.75ZM77.625 35.875H81.425C82.575 35.875 83.4917 35.7167 84.175 35.4C84.8583 35.0833 85.35 34.575 85.65 33.875C85.9667 33.175 86.1333 32.25 86.15 31.1C86.1833 30.6 86.2 30.1667 86.2 29.8C86.2 29.4167 86.2 29.0417 86.2 28.675C86.2 28.2917 86.1833 27.8583 86.15 27.375C86.1167 25.7583 85.7333 24.5667 85 23.8C84.2667 23.0167 83.0333 22.625 81.3 22.625H77.625V35.875ZM97.2613 38.25C95.5447 38.25 94.178 37.725 93.1613 36.675C92.1447 35.6083 91.5863 34.1583 91.4863 32.325C91.4697 32.1083 91.4613 31.8333 91.4613 31.5C91.4613 31.15 91.4697 30.8667 91.4863 30.65C91.553 29.4667 91.828 28.4333 92.3113 27.55C92.7947 26.65 93.453 25.9583 94.2863 25.475C95.1363 24.9917 96.128 24.75 97.2613 24.75C98.528 24.75 99.5863 25.0167 100.436 25.55C101.303 26.0833 101.961 26.8417 102.411 27.825C102.861 28.8083 103.086 29.9583 103.086 31.275V31.7C103.086 31.8833 103.028 32.025 102.911 32.125C102.811 32.225 102.678 32.275 102.511 32.275H93.8613C93.8613 32.2917 93.8613 32.325 93.8613 32.375C93.8613 32.425 93.8613 32.4667 93.8613 32.5C93.8947 33.1833 94.0447 33.825 94.3113 34.425C94.578 35.0083 94.9613 35.4833 95.4613 35.85C95.9613 36.2167 96.5613 36.4 97.2613 36.4C97.8613 36.4 98.3613 36.3083 98.7613 36.125C99.1613 35.9417 99.4863 35.7417 99.7363 35.525C99.9863 35.2917 100.153 35.1167 100.236 35C100.386 34.7833 100.503 34.6583 100.586 34.625C100.67 34.575 100.803 34.55 100.986 34.55H102.186C102.353 34.55 102.486 34.6 102.586 34.7C102.703 34.7833 102.753 34.9083 102.736 35.075C102.72 35.325 102.586 35.6333 102.336 36C102.086 36.35 101.728 36.7 101.261 37.05C100.795 37.4 100.228 37.6917 99.5613 37.925C98.8947 38.1417 98.128 38.25 97.2613 38.25ZM93.8613 30.55H100.711V30.475C100.711 29.725 100.57 29.0583 100.286 28.475C100.02 27.8917 99.628 27.4333 99.1113 27.1C98.5947 26.75 97.978 26.575 97.2613 26.575C96.5447 26.575 95.928 26.75 95.4113 27.1C94.9113 27.4333 94.528 27.8917 94.2613 28.475C93.9947 29.0583 93.8613 29.725 93.8613 30.475V30.55ZM106.676 38C106.509 38 106.367 37.95 106.251 37.85C106.151 37.7333 106.101 37.5917 106.101 37.425V20.825C106.101 20.6583 106.151 20.525 106.251 20.425C106.367 20.3083 106.509 20.25 106.676 20.25H107.851C108.034 20.25 108.176 20.3083 108.276 20.425C108.376 20.525 108.426 20.6583 108.426 20.825V37.425C108.426 37.5917 108.376 37.7333 108.276 37.85C108.176 37.95 108.034 38 107.851 38H106.676ZM112.974 38C112.807 38 112.665 37.95 112.549 37.85C112.449 37.7333 112.399 37.5917 112.399 37.425V25.575C112.399 25.4083 112.449 25.275 112.549 25.175C112.665 25.0583 112.807 25 112.974 25H114.174C114.34 25 114.474 25.0583 114.574 25.175C114.674 25.275 114.724 25.4083 114.724 25.575V37.425C114.724 37.5917 114.674 37.7333 114.574 37.85C114.474 37.95 114.34 38 114.174 38H112.974ZM112.774 22.575C112.607 22.575 112.465 22.525 112.349 22.425C112.249 22.3083 112.199 22.1667 112.199 22V20.65C112.199 20.4833 112.249 20.35 112.349 20.25C112.465 20.1333 112.607 20.075 112.774 20.075H114.349C114.515 20.075 114.649 20.1333 114.749 20.25C114.865 20.35 114.924 20.4833 114.924 20.65V22C114.924 22.1667 114.865 22.3083 114.749 22.425C114.649 22.525 114.515 22.575 114.349 22.575H112.774ZM122.979 38C122.729 38 122.529 37.9417 122.379 37.825C122.245 37.7083 122.137 37.5583 122.054 37.375L117.429 25.775C117.395 25.6917 117.379 25.6083 117.379 25.525C117.379 25.375 117.429 25.25 117.529 25.15C117.629 25.05 117.754 25 117.904 25H119.104C119.287 25 119.429 25.05 119.529 25.15C119.629 25.25 119.687 25.3417 119.704 25.425L123.529 35.275L127.329 25.425C127.362 25.3417 127.42 25.25 127.504 25.15C127.604 25.05 127.745 25 127.929 25H129.154C129.287 25 129.404 25.05 129.504 25.15C129.62 25.25 129.679 25.375 129.679 25.525C129.679 25.6083 129.662 25.6917 129.629 25.775L124.979 37.375C124.912 37.5583 124.804 37.7083 124.654 37.825C124.52 37.9417 124.32 38 124.054 38H122.979ZM137.007 38.25C135.291 38.25 133.924 37.725 132.907 36.675C131.891 35.6083 131.332 34.1583 131.232 32.325C131.216 32.1083 131.207 31.8333 131.207 31.5C131.207 31.15 131.216 30.8667 131.232 30.65C131.299 29.4667 131.574 28.4333 132.057 27.55C132.541 26.65 133.199 25.9583 134.032 25.475C134.882 24.9917 135.874 24.75 137.007 24.75C138.274 24.75 139.332 25.0167 140.182 25.55C141.049 26.0833 141.707 26.8417 142.157 27.825C142.607 28.8083 142.832 29.9583 142.832 31.275V31.7C142.832 31.8833 142.774 32.025 142.657 32.125C142.557 32.225 142.424 32.275 142.257 32.275H133.607C133.607 32.2917 133.607 32.325 133.607 32.375C133.607 32.425 133.607 32.4667 133.607 32.5C133.641 33.1833 133.791 33.825 134.057 34.425C134.324 35.0083 134.707 35.4833 135.207 35.85C135.707 36.2167 136.307 36.4 137.007 36.4C137.607 36.4 138.107 36.3083 138.507 36.125C138.907 35.9417 139.232 35.7417 139.482 35.525C139.732 35.2917 139.899 35.1167 139.982 35C140.132 34.7833 140.249 34.6583 140.332 34.625C140.416 34.575 140.549 34.55 140.732 34.55H141.932C142.099 34.55 142.232 34.6 142.332 34.7C142.449 34.7833 142.499 34.9083 142.482 35.075C142.466 35.325 142.332 35.6333 142.082 36C141.832 36.35 141.474 36.7 141.007 37.05C140.541 37.4 139.974 37.6917 139.307 37.925C138.641 38.1417 137.874 38.25 137.007 38.25ZM133.607 30.55H140.457V30.475C140.457 29.725 140.316 29.0583 140.032 28.475C139.766 27.8917 139.374 27.4333 138.857 27.1C138.341 26.75 137.724 26.575 137.007 26.575C136.291 26.575 135.674 26.75 135.157 27.1C134.657 27.4333 134.274 27.8917 134.007 28.475C133.741 29.0583 133.607 29.725 133.607 30.475V30.55ZM146.397 38C146.23 38 146.088 37.95 145.972 37.85C145.872 37.7333 145.822 37.5917 145.822 37.425V25.6C145.822 25.4333 145.872 25.2917 145.972 25.175C146.088 25.0583 146.23 25 146.397 25H147.547C147.713 25 147.855 25.0583 147.972 25.175C148.088 25.2917 148.147 25.4333 148.147 25.6V26.7C148.48 26.1333 148.938 25.7083 149.522 25.425C150.105 25.1417 150.805 25 151.622 25H152.622C152.788 25 152.922 25.0583 153.022 25.175C153.122 25.275 153.172 25.4083 153.172 25.575V26.6C153.172 26.7667 153.122 26.9 153.022 27C152.922 27.1 152.788 27.15 152.622 27.15H151.122C150.222 27.15 149.513 27.4167 148.997 27.95C148.48 28.4667 148.222 29.175 148.222 30.075V37.425C148.222 37.5917 148.163 37.7333 148.047 37.85C147.93 37.95 147.788 38 147.622 38H146.397ZM157.594 42.75C157.46 42.75 157.344 42.7 157.244 42.6C157.144 42.5 157.094 42.3833 157.094 42.25C157.094 42.1833 157.102 42.1167 157.119 42.05C157.135 41.9833 157.169 41.9 157.219 41.8L159.144 37.225L154.369 25.95C154.285 25.75 154.244 25.6083 154.244 25.525C154.244 25.375 154.294 25.25 154.394 25.15C154.494 25.05 154.619 25 154.769 25H155.994C156.16 25 156.294 25.0417 156.394 25.125C156.494 25.2083 156.56 25.3083 156.594 25.425L160.394 34.525L164.294 25.425C164.344 25.3083 164.41 25.2083 164.494 25.125C164.594 25.0417 164.735 25 164.919 25H166.094C166.244 25 166.369 25.05 166.469 25.15C166.569 25.25 166.619 25.3667 166.619 25.5C166.619 25.5833 166.577 25.7333 166.494 25.95L159.394 42.325C159.344 42.4417 159.269 42.5417 159.169 42.625C159.085 42.7083 158.952 42.75 158.769 42.75H157.594ZM179.882 38.25C178.615 38.25 177.557 38.0083 176.707 37.525C175.857 37.0417 175.207 36.375 174.757 35.525C174.307 34.6583 174.057 33.675 174.007 32.575C173.99 32.2917 173.982 31.9333 173.982 31.5C173.982 31.05 173.99 30.6917 174.007 30.425C174.057 29.3083 174.307 28.325 174.757 27.475C175.224 26.625 175.882 25.9583 176.732 25.475C177.582 24.9917 178.632 24.75 179.882 24.75C181.132 24.75 182.182 24.9917 183.032 25.475C183.882 25.9583 184.532 26.625 184.982 27.475C185.449 28.325 185.707 29.3083 185.757 30.425C185.774 30.6917 185.782 31.05 185.782 31.5C185.782 31.9333 185.774 32.2917 185.757 32.575C185.707 33.675 185.457 34.6583 185.007 35.525C184.557 36.375 183.907 37.0417 183.057 37.525C182.207 38.0083 181.149 38.25 179.882 38.25ZM179.882 36.325C180.915 36.325 181.74 36 182.357 35.35C182.974 34.6833 183.307 33.7167 183.357 32.45C183.374 32.2 183.382 31.8833 183.382 31.5C183.382 31.1167 183.374 30.8 183.357 30.55C183.307 29.2833 182.974 28.325 182.357 27.675C181.74 27.0083 180.915 26.675 179.882 26.675C178.849 26.675 178.015 27.0083 177.382 27.675C176.765 28.325 176.44 29.2833 176.407 30.55C176.39 30.8 176.382 31.1167 176.382 31.5C176.382 31.8833 176.39 32.2 176.407 32.45C176.44 33.7167 176.765 34.6833 177.382 35.35C178.015 36 178.849 36.325 179.882 36.325ZM189.488 38C189.321 38 189.179 37.95 189.063 37.85C188.963 37.7333 188.913 37.5917 188.913 37.425V25.575C188.913 25.4083 188.963 25.275 189.063 25.175C189.179 25.0583 189.321 25 189.488 25H190.663C190.829 25 190.963 25.0583 191.063 25.175C191.179 25.275 191.238 25.4083 191.238 25.575V26.675C191.671 26.1083 192.213 25.65 192.863 25.3C193.529 24.9333 194.379 24.75 195.413 24.75C196.496 24.75 197.413 24.9917 198.163 25.475C198.929 25.9417 199.504 26.6 199.888 27.45C200.271 28.2833 200.463 29.2583 200.463 30.375V37.425C200.463 37.5917 200.413 37.7333 200.313 37.85C200.213 37.95 200.079 38 199.912 38H198.663C198.496 38 198.354 37.95 198.238 37.85C198.138 37.7333 198.088 37.5917 198.088 37.425V30.5C198.088 29.3333 197.804 28.425 197.238 27.775C196.671 27.1083 195.838 26.775 194.738 26.775C193.704 26.775 192.871 27.1083 192.238 27.775C191.621 28.425 191.313 29.3333 191.313 30.5V37.425C191.313 37.5917 191.254 37.7333 191.138 37.85C191.038 37.95 190.904 38 190.737 38H189.488ZM214.292 38C214.125 38 213.983 37.95 213.867 37.85C213.767 37.7333 213.717 37.5917 213.717 37.425V22.725H208.917C208.75 22.725 208.608 22.675 208.492 22.575C208.392 22.4583 208.342 22.3167 208.342 22.15V21.1C208.342 20.9167 208.392 20.775 208.492 20.675C208.608 20.5583 208.75 20.5 208.917 20.5H220.967C221.15 20.5 221.292 20.5583 221.392 20.675C221.508 20.775 221.567 20.9167 221.567 21.1V22.15C221.567 22.3167 221.508 22.4583 221.392 22.575C221.292 22.675 221.15 22.725 220.967 22.725H216.192V37.425C216.192 37.5917 216.133 37.7333 216.017 37.85C215.917 37.95 215.775 38 215.592 38H214.292ZM224.546 38C224.379 38 224.238 37.95 224.121 37.85C224.021 37.7333 223.971 37.5917 223.971 37.425V25.575C223.971 25.4083 224.021 25.275 224.121 25.175C224.238 25.0583 224.379 25 224.546 25H225.746C225.913 25 226.046 25.0583 226.146 25.175C226.246 25.275 226.296 25.4083 226.296 25.575V37.425C226.296 37.5917 226.246 37.7333 226.146 37.85C226.046 37.95 225.913 38 225.746 38H224.546ZM224.346 22.575C224.179 22.575 224.038 22.525 223.921 22.425C223.821 22.3083 223.771 22.1667 223.771 22V20.65C223.771 20.4833 223.821 20.35 223.921 20.25C224.038 20.1333 224.179 20.075 224.346 20.075H225.921C226.088 20.075 226.221 20.1333 226.321 20.25C226.438 20.35 226.496 20.4833 226.496 20.65V22C226.496 22.1667 226.438 22.3083 226.321 22.425C226.221 22.525 226.088 22.575 225.921 22.575H224.346ZM230.845 38C230.678 38 230.537 37.95 230.42 37.85C230.32 37.7333 230.27 37.5917 230.27 37.425V25.575C230.27 25.4083 230.32 25.275 230.42 25.175C230.537 25.0583 230.678 25 230.845 25H231.97C232.137 25 232.27 25.0583 232.37 25.175C232.487 25.275 232.545 25.4083 232.545 25.575V26.45C232.928 25.9333 233.412 25.525 233.995 25.225C234.578 24.9083 235.278 24.75 236.095 24.75C237.978 24.7333 239.312 25.5 240.095 27.05C240.478 26.35 241.037 25.7917 241.77 25.375C242.503 24.9583 243.337 24.75 244.27 24.75C245.137 24.75 245.92 24.95 246.62 25.35C247.337 25.75 247.895 26.3583 248.295 27.175C248.712 27.975 248.92 28.9833 248.92 30.2V37.425C248.92 37.5917 248.862 37.7333 248.745 37.85C248.645 37.95 248.512 38 248.345 38H247.17C247.003 38 246.862 37.95 246.745 37.85C246.645 37.7333 246.595 37.5917 246.595 37.425V30.425C246.595 29.4917 246.462 28.7583 246.195 28.225C245.928 27.6917 245.57 27.3167 245.12 27.1C244.67 26.8833 244.178 26.775 243.645 26.775C243.212 26.775 242.77 26.8833 242.32 27.1C241.87 27.3167 241.495 27.6917 241.195 28.225C240.912 28.7583 240.77 29.4917 240.77 30.425V37.425C240.77 37.5917 240.712 37.7333 240.595 37.85C240.495 37.95 240.362 38 240.195 38H239.02C238.853 38 238.712 37.95 238.595 37.85C238.495 37.7333 238.445 37.5917 238.445 37.425V30.425C238.445 29.4917 238.303 28.7583 238.02 28.225C237.737 27.6917 237.37 27.3167 236.92 27.1C236.47 26.8833 235.995 26.775 235.495 26.775C235.062 26.775 234.62 26.8833 234.17 27.1C233.72 27.3167 233.345 27.6917 233.045 28.225C232.762 28.7583 232.62 29.4833 232.62 30.4V37.425C232.62 37.5917 232.562 37.7333 232.445 37.85C232.345 37.95 232.212 38 232.045 38H230.845ZM257.662 38.25C255.945 38.25 254.578 37.725 253.562 36.675C252.545 35.6083 251.987 34.1583 251.887 32.325C251.87 32.1083 251.862 31.8333 251.862 31.5C251.862 31.15 251.87 30.8667 251.887 30.65C251.953 29.4667 252.228 28.4333 252.712 27.55C253.195 26.65 253.853 25.9583 254.687 25.475C255.537 24.9917 256.528 24.75 257.662 24.75C258.928 24.75 259.987 25.0167 260.837 25.55C261.703 26.0833 262.362 26.8417 262.812 27.825C263.262 28.8083 263.487 29.9583 263.487 31.275V31.7C263.487 31.8833 263.428 32.025 263.312 32.125C263.212 32.225 263.078 32.275 262.912 32.275H254.262C254.262 32.2917 254.262 32.325 254.262 32.375C254.262 32.425 254.262 32.4667 254.262 32.5C254.295 33.1833 254.445 33.825 254.712 34.425C254.978 35.0083 255.362 35.4833 255.862 35.85C256.362 36.2167 256.962 36.4 257.662 36.4C258.262 36.4 258.762 36.3083 259.162 36.125C259.562 35.9417 259.887 35.7417 260.137 35.525C260.387 35.2917 260.553 35.1167 260.637 35C260.787 34.7833 260.903 34.6583 260.987 34.625C261.07 34.575 261.203 34.55 261.387 34.55H262.587C262.753 34.55 262.887 34.6 262.987 34.7C263.103 34.7833 263.153 34.9083 263.137 35.075C263.12 35.325 262.987 35.6333 262.737 36C262.487 36.35 262.128 36.7 261.662 37.05C261.195 37.4 260.628 37.6917 259.962 37.925C259.295 38.1417 258.528 38.25 257.662 38.25ZM254.262 30.55H261.112V30.475C261.112 29.725 260.97 29.0583 260.687 28.475C260.42 27.8917 260.028 27.4333 259.512 27.1C258.995 26.75 258.378 26.575 257.662 26.575C256.945 26.575 256.328 26.75 255.812 27.1C255.312 27.4333 254.928 27.8917 254.662 28.475C254.395 29.0583 254.262 29.725 254.262 30.475V30.55Z" fill="#1C1F35"/>
<circle cx="29" cy="109" r="29" fill="url(#paint1_linear_1_1557)"/>
<path d="M42.9643 101H16.0357C15.4637 101 15 101.448 15 102V116C15 116.552 15.4637 117 16.0357 117H42.9643C43.5363 117 44 116.552 44 116V102C44 101.448 43.5363 101 42.9643 101Z" stroke="#1C1F35" stroke-width="1.5" stroke-linecap="round" stroke-linejoin="round"/>
<path d="M29.5 113C31.433 113 33 111.433 33 109.5C33 107.567 31.433 106 29.5 106C27.567 106 26 107.567 26 109.5C26 111.433 27.567 113 29.5 113Z" stroke="#1C1F35" stroke-width="1.5" stroke-linecap="round" stroke-linejoin="round"/>
<path d="M36 101L44 108" stroke="#1C1F35" stroke-width="1.5" stroke-linecap="round" stroke-linejoin="round"/>
<path d="M36 117L44 110" stroke="#1C1F35" stroke-width="1.5" stroke-linecap="round" stroke-linejoin="round"/>
<path d="M23 101L15 108" stroke="#1C1F35" stroke-width="1.5" stroke-linecap="round" stroke-linejoin="round"/>
<path d="M23 117L15 110" stroke="#1C1F35" stroke-width="1.5" stroke-linecap="round" stroke-linejoin="round"/>
<path d="M81.45 118.25C80.0333 118.25 78.8167 118.008 77.8 117.525C76.7833 117.025 76 116.267 75.45 115.25C74.9 114.217 74.5917 112.925 74.525 111.375C74.5083 110.642 74.5 109.942 74.5 109.275C74.5 108.592 74.5083 107.883 74.525 107.15C74.5917 105.617 74.9083 104.342 75.475 103.325C76.0583 102.292 76.8583 101.525 77.875 101.025C78.9083 100.508 80.1 100.25 81.45 100.25C82.8167 100.25 84.0083 100.508 85.025 101.025C86.0583 101.525 86.8667 102.292 87.45 103.325C88.0333 104.342 88.35 105.617 88.4 107.15C88.4333 107.883 88.45 108.592 88.45 109.275C88.45 109.942 88.4333 110.642 88.4 111.375C88.35 112.925 88.0417 114.217 87.475 115.25C86.925 116.267 86.1417 117.025 85.125 117.525C84.1083 118.008 82.8833 118.25 81.45 118.25ZM81.45 116.125C82.7333 116.125 83.775 115.742 84.575 114.975C85.3917 114.208 85.8333 112.967 85.9 111.25C85.9333 110.5 85.95 109.833 85.95 109.25C85.95 108.65 85.9333 107.983 85.9 107.25C85.8667 106.1 85.65 105.167 85.25 104.45C84.8667 103.733 84.35 103.208 83.7 102.875C83.05 102.542 82.3 102.375 81.45 102.375C80.6333 102.375 79.9 102.542 79.25 102.875C78.6 103.208 78.075 103.733 77.675 104.45C77.2917 105.167 77.075 106.1 77.025 107.25C77.0083 107.983 77 108.65 77 109.25C77 109.833 77.0083 110.5 77.025 111.25C77.0917 112.967 77.5333 114.208 78.35 114.975C79.1667 115.742 80.2 116.125 81.45 116.125ZM92.3689 122.75C92.2023 122.75 92.0606 122.692 91.9439 122.575C91.8439 122.475 91.7939 122.342 91.7939 122.175V105.575C91.7939 105.408 91.8439 105.275 91.9439 105.175C92.0606 105.058 92.2023 105 92.3689 105H93.5189C93.6856 105 93.8189 105.058 93.9189 105.175C94.0356 105.275 94.0939 105.408 94.0939 105.575V106.675C94.4939 106.125 95.0273 105.667 95.6939 105.3C96.3606 104.933 97.1939 104.75 98.1939 104.75C99.1273 104.75 99.9189 104.908 100.569 105.225C101.236 105.542 101.777 105.975 102.194 106.525C102.627 107.075 102.952 107.7 103.169 108.4C103.386 109.1 103.502 109.85 103.519 110.65C103.536 110.917 103.544 111.2 103.544 111.5C103.544 111.8 103.536 112.083 103.519 112.35C103.502 113.133 103.386 113.883 103.169 114.6C102.952 115.3 102.627 115.925 102.194 116.475C101.777 117.008 101.236 117.442 100.569 117.775C99.9189 118.092 99.1273 118.25 98.1939 118.25C97.2273 118.25 96.4106 118.075 95.7439 117.725C95.0939 117.358 94.5606 116.908 94.1439 116.375V122.175C94.1439 122.342 94.0939 122.475 93.9939 122.575C93.8939 122.692 93.7523 122.75 93.5689 122.75H92.3689ZM97.6689 116.225C98.5356 116.225 99.2106 116.042 99.6939 115.675C100.194 115.292 100.552 114.8 100.769 114.2C100.986 113.583 101.111 112.925 101.144 112.225C101.161 111.742 101.161 111.258 101.144 110.775C101.111 110.075 100.986 109.425 100.769 108.825C100.552 108.208 100.194 107.717 99.6939 107.35C99.2106 106.967 98.5356 106.775 97.6689 106.775C96.8523 106.775 96.1856 106.967 95.6689 107.35C95.1689 107.733 94.7939 108.225 94.5439 108.825C94.3106 109.408 94.1773 110.008 94.1439 110.625C94.1273 110.892 94.1189 111.208 94.1189 111.575C94.1189 111.942 94.1273 112.267 94.1439 112.55C94.1606 113.133 94.2939 113.708 94.5439 114.275C94.8106 114.842 95.2023 115.308 95.7189 115.675C96.2356 116.042 96.8856 116.225 97.6689 116.225ZM111.59 118C110.657 118 109.898 117.825 109.315 117.475C108.732 117.108 108.307 116.6 108.04 115.95C107.773 115.283 107.64 114.5 107.64 113.6V107H105.69C105.523 107 105.382 106.95 105.265 106.85C105.165 106.733 105.115 106.592 105.115 106.425V105.575C105.115 105.408 105.165 105.275 105.265 105.175C105.382 105.058 105.523 105 105.69 105H107.64V100.825C107.64 100.658 107.69 100.525 107.79 100.425C107.907 100.308 108.048 100.25 108.215 100.25H109.39C109.557 100.25 109.69 100.308 109.79 100.425C109.907 100.525 109.965 100.658 109.965 100.825V105H113.065C113.232 105 113.365 105.058 113.465 105.175C113.582 105.275 113.64 105.408 113.64 105.575V106.425C113.64 106.592 113.582 106.733 113.465 106.85C113.365 106.95 113.232 107 113.065 107H109.965V113.425C109.965 114.208 110.098 114.825 110.365 115.275C110.632 115.725 111.107 115.95 111.79 115.95H113.315C113.482 115.95 113.615 116.008 113.715 116.125C113.832 116.225 113.89 116.358 113.89 116.525V117.425C113.89 117.592 113.832 117.733 113.715 117.85C113.615 117.95 113.482 118 113.315 118H111.59ZM116.856 118C116.689 118 116.547 117.95 116.431 117.85C116.331 117.733 116.281 117.592 116.281 117.425V105.575C116.281 105.408 116.331 105.275 116.431 105.175C116.547 105.058 116.689 105 116.856 105H118.056C118.222 105 118.356 105.058 118.456 105.175C118.556 105.275 118.606 105.408 118.606 105.575V117.425C118.606 117.592 118.556 117.733 118.456 117.85C118.356 117.95 118.222 118 118.056 118H116.856ZM116.656 102.575C116.489 102.575 116.347 102.525 116.231 102.425C116.131 102.308 116.081 102.167 116.081 102V100.65C116.081 100.483 116.131 100.35 116.231 100.25C116.347 100.133 116.489 100.075 116.656 100.075H118.231C118.397 100.075 118.531 100.133 118.631 100.25C118.747 100.35 118.806 100.483 118.806 100.65V102C118.806 102.167 118.747 102.308 118.631 102.425C118.531 102.525 118.397 102.575 118.231 102.575H116.656ZM123.154 118C122.988 118 122.846 117.95 122.729 117.85C122.629 117.733 122.579 117.592 122.579 117.425V105.575C122.579 105.408 122.629 105.275 122.729 105.175C122.846 105.058 122.988 105 123.154 105H124.279C124.446 105 124.579 105.058 124.679 105.175C124.796 105.275 124.854 105.408 124.854 105.575V106.45C125.238 105.933 125.721 105.525 126.304 105.225C126.888 104.908 127.588 104.75 128.404 104.75C130.288 104.733 131.621 105.5 132.404 107.05C132.788 106.35 133.346 105.792 134.079 105.375C134.813 104.958 135.646 104.75 136.579 104.75C137.446 104.75 138.229 104.95 138.929 105.35C139.646 105.75 140.204 106.358 140.604 107.175C141.021 107.975 141.229 108.983 141.229 110.2V117.425C141.229 117.592 141.171 117.733 141.054 117.85C140.954 117.95 140.821 118 140.654 118H139.479C139.313 118 139.171 117.95 139.054 117.85C138.954 117.733 138.904 117.592 138.904 117.425V110.425C138.904 109.492 138.771 108.758 138.504 108.225C138.238 107.692 137.879 107.317 137.429 107.1C136.979 106.883 136.488 106.775 135.954 106.775C135.521 106.775 135.079 106.883 134.629 107.1C134.179 107.317 133.804 107.692 133.504 108.225C133.221 108.758 133.079 109.492 133.079 110.425V117.425C133.079 117.592 133.021 117.733 132.904 117.85C132.804 117.95 132.671 118 132.504 118H131.329C131.163 118 131.021 117.95 130.904 117.85C130.804 117.733 130.754 117.592 130.754 117.425V110.425C130.754 109.492 130.613 108.758 130.329 108.225C130.046 107.692 129.679 107.317 129.229 107.1C128.779 106.883 128.304 106.775 127.804 106.775C127.371 106.775 126.929 106.883 126.479 107.1C126.029 107.317 125.654 107.692 125.354 108.225C125.071 108.758 124.929 109.483 124.929 110.4V117.425C124.929 117.592 124.871 117.733 124.754 117.85C124.654 117.95 124.521 118 124.354 118H123.154ZM145.371 118C145.205 118 145.063 117.95 144.946 117.85C144.846 117.733 144.796 117.592 144.796 117.425V105.575C144.796 105.408 144.846 105.275 144.946 105.175C145.063 105.058 145.205 105 145.371 105H146.571C146.738 105 146.871 105.058 146.971 105.175C147.071 105.275 147.121 105.408 147.121 105.575V117.425C147.121 117.592 147.071 117.733 146.971 117.85C146.871 117.95 146.738 118 146.571 118H145.371ZM145.171 102.575C145.005 102.575 144.863 102.525 144.746 102.425C144.646 102.308 144.596 102.167 144.596 102V100.65C144.596 100.483 144.646 100.35 144.746 100.25C144.863 100.133 145.005 100.075 145.171 100.075H146.746C146.913 100.075 147.046 100.133 147.146 100.25C147.263 100.35 147.321 100.483 147.321 100.65V102C147.321 102.167 147.263 102.308 147.146 102.425C147.046 102.525 146.913 102.575 146.746 102.575H145.171ZM150.723 118C150.556 118 150.415 117.95 150.298 117.85C150.198 117.733 150.148 117.592 150.148 117.425V116.55C150.148 116.4 150.181 116.258 150.248 116.125C150.331 115.992 150.415 115.867 150.498 115.75L157.398 106.975H150.948C150.781 106.975 150.64 106.925 150.523 106.825C150.423 106.725 150.373 106.583 150.373 106.4V105.575C150.373 105.408 150.423 105.275 150.523 105.175C150.64 105.058 150.781 105 150.948 105H159.848C160.015 105 160.148 105.058 160.248 105.175C160.365 105.275 160.423 105.408 160.423 105.575V106.5C160.423 106.65 160.381 106.783 160.298 106.9C160.231 107.017 160.156 107.142 160.073 107.275L153.248 116.025H160.348C160.515 116.025 160.648 116.075 160.748 116.175C160.865 116.275 160.923 116.417 160.923 116.6V117.425C160.923 117.592 160.865 117.733 160.748 117.85C160.648 117.95 160.515 118 160.348 118H150.723ZM168.721 118.25C167.005 118.25 165.638 117.725 164.621 116.675C163.605 115.608 163.046 114.158 162.946 112.325C162.93 112.108 162.921 111.833 162.921 111.5C162.921 111.15 162.93 110.867 162.946 110.65C163.013 109.467 163.288 108.433 163.771 107.55C164.255 106.65 164.913 105.958 165.746 105.475C166.596 104.992 167.588 104.75 168.721 104.75C169.988 104.75 171.046 105.017 171.896 105.55C172.763 106.083 173.421 106.842 173.871 107.825C174.321 108.808 174.546 109.958 174.546 111.275V111.7C174.546 111.883 174.488 112.025 174.371 112.125C174.271 112.225 174.138 112.275 173.971 112.275H165.321C165.321 112.292 165.321 112.325 165.321 112.375C165.321 112.425 165.321 112.467 165.321 112.5C165.355 113.183 165.505 113.825 165.771 114.425C166.038 115.008 166.421 115.483 166.921 115.85C167.421 116.217 168.021 116.4 168.721 116.4C169.321 116.4 169.821 116.308 170.221 116.125C170.621 115.942 170.946 115.742 171.196 115.525C171.446 115.292 171.613 115.117 171.696 115C171.846 114.783 171.963 114.658 172.046 114.625C172.13 114.575 172.263 114.55 172.446 114.55H173.646C173.813 114.55 173.946 114.6 174.046 114.7C174.163 114.783 174.213 114.908 174.196 115.075C174.18 115.325 174.046 115.633 173.796 116C173.546 116.35 173.188 116.7 172.721 117.05C172.255 117.4 171.688 117.692 171.021 117.925C170.355 118.142 169.588 118.25 168.721 118.25ZM165.321 110.55H172.171V110.475C172.171 109.725 172.03 109.058 171.746 108.475C171.48 107.892 171.088 107.433 170.571 107.1C170.055 106.75 169.438 106.575 168.721 106.575C168.005 106.575 167.388 106.75 166.871 107.1C166.371 107.433 165.988 107.892 165.721 108.475C165.455 109.058 165.321 109.725 165.321 110.475V110.55ZM182.286 118.25C181.369 118.25 180.577 118.092 179.911 117.775C179.244 117.442 178.694 117 178.261 116.45C177.844 115.883 177.527 115.242 177.311 114.525C177.111 113.808 176.994 113.05 176.961 112.25C176.944 111.983 176.936 111.733 176.936 111.5C176.936 111.267 176.944 111.017 176.961 110.75C176.994 109.967 177.111 109.217 177.311 108.5C177.527 107.783 177.844 107.142 178.261 106.575C178.694 106.008 179.244 105.567 179.911 105.25C180.577 104.917 181.369 104.75 182.286 104.75C183.269 104.75 184.086 104.925 184.736 105.275C185.386 105.625 185.919 106.058 186.336 106.575V100.825C186.336 100.658 186.386 100.525 186.486 100.425C186.602 100.308 186.744 100.25 186.911 100.25H188.111C188.277 100.25 188.411 100.308 188.511 100.425C188.627 100.525 188.686 100.658 188.686 100.825V117.425C188.686 117.592 188.627 117.733 188.511 117.85C188.411 117.95 188.277 118 188.111 118H186.986C186.802 118 186.661 117.95 186.561 117.85C186.461 117.733 186.411 117.592 186.411 117.425V116.375C185.994 116.908 185.452 117.358 184.786 117.725C184.119 118.075 183.286 118.25 182.286 118.25ZM182.811 116.225C183.644 116.225 184.311 116.033 184.811 115.65C185.311 115.267 185.686 114.783 185.936 114.2C186.186 113.6 186.319 112.992 186.336 112.375C186.352 112.108 186.361 111.792 186.361 111.425C186.361 111.042 186.352 110.717 186.336 110.45C186.319 109.867 186.177 109.292 185.911 108.725C185.661 108.158 185.277 107.692 184.761 107.325C184.261 106.958 183.611 106.775 182.811 106.775C181.961 106.775 181.286 106.967 180.786 107.35C180.286 107.717 179.927 108.208 179.711 108.825C179.494 109.425 179.369 110.075 179.336 110.775C179.319 111.258 179.319 111.742 179.336 112.225C179.369 112.925 179.494 113.583 179.711 114.2C179.927 114.8 180.286 115.292 180.786 115.675C181.286 116.042 181.961 116.225 182.811 116.225ZM202.622 118C202.455 118 202.314 117.95 202.197 117.85C202.097 117.733 202.047 117.592 202.047 117.425V102.725H197.247C197.08 102.725 196.939 102.675 196.822 102.575C196.722 102.458 196.672 102.317 196.672 102.15V101.1C196.672 100.917 196.722 100.775 196.822 100.675C196.939 100.558 197.08 100.5 197.247 100.5H209.297C209.48 100.5 209.622 100.558 209.722 100.675C209.839 100.775 209.897 100.917 209.897 101.1V102.15C209.897 102.317 209.839 102.458 209.722 102.575C209.622 102.675 209.48 102.725 209.297 102.725H204.522V117.425C204.522 117.592 204.464 117.733 204.347 117.85C204.247 117.95 204.105 118 203.922 118H202.622ZM210.923 118C210.756 118 210.615 117.95 210.498 117.85C210.398 117.733 210.348 117.592 210.348 117.425V105.6C210.348 105.433 210.398 105.292 210.498 105.175C210.615 105.058 210.756 105 210.923 105H212.073C212.24 105 212.381 105.058 212.498 105.175C212.615 105.292 212.673 105.433 212.673 105.6V106.7C213.006 106.133 213.465 105.708 214.048 105.425C214.631 105.142 215.331 105 216.148 105H217.148C217.315 105 217.448 105.058 217.548 105.175C217.648 105.275 217.698 105.408 217.698 105.575V106.6C217.698 106.767 217.648 106.9 217.548 107C217.448 107.1 217.315 107.15 217.148 107.15H215.648C214.748 107.15 214.04 107.417 213.523 107.95C213.006 108.467 212.748 109.175 212.748 110.075V117.425C212.748 117.592 212.69 117.733 212.573 117.85C212.456 117.95 212.315 118 212.148 118H210.923ZM223.275 118.25C222.441 118.25 221.683 118.083 221 117.75C220.316 117.417 219.766 116.967 219.35 116.4C218.933 115.833 218.725 115.192 218.725 114.475C218.725 113.325 219.191 112.408 220.125 111.725C221.058 111.042 222.275 110.592 223.775 110.375L227.5 109.85V109.125C227.5 108.325 227.266 107.7 226.8 107.25C226.35 106.8 225.608 106.575 224.575 106.575C223.825 106.575 223.216 106.725 222.75 107.025C222.3 107.325 221.983 107.708 221.8 108.175C221.7 108.425 221.525 108.55 221.275 108.55H220.15C219.966 108.55 219.825 108.5 219.725 108.4C219.641 108.283 219.6 108.15 219.6 108C219.6 107.75 219.691 107.442 219.875 107.075C220.075 106.708 220.375 106.35 220.775 106C221.175 105.65 221.683 105.358 222.3 105.125C222.933 104.875 223.7 104.75 224.6 104.75C225.6 104.75 226.441 104.883 227.125 105.15C227.808 105.4 228.341 105.742 228.725 106.175C229.125 106.608 229.408 107.1 229.575 107.65C229.758 108.2 229.85 108.758 229.85 109.325V117.425C229.85 117.592 229.791 117.733 229.675 117.85C229.575 117.95 229.441 118 229.275 118H228.125C227.941 118 227.8 117.95 227.7 117.85C227.6 117.733 227.55 117.592 227.55 117.425V116.35C227.333 116.65 227.041 116.95 226.675 117.25C226.308 117.533 225.85 117.775 225.3 117.975C224.75 118.158 224.075 118.25 223.275 118.25ZM223.8 116.375C224.483 116.375 225.108 116.233 225.675 115.95C226.241 115.65 226.683 115.192 227 114.575C227.333 113.958 227.5 113.183 227.5 112.25V111.55L224.6 111.975C223.416 112.142 222.525 112.425 221.925 112.825C221.325 113.208 221.025 113.7 221.025 114.3C221.025 114.767 221.158 115.158 221.425 115.475C221.708 115.775 222.058 116 222.475 116.15C222.908 116.3 223.35 116.375 223.8 116.375ZM237.725 118C237.475 118 237.275 117.942 237.125 117.825C236.991 117.708 236.883 117.558 236.8 117.375L232.175 105.775C232.141 105.692 232.125 105.608 232.125 105.525C232.125 105.375 232.175 105.25 232.275 105.15C232.375 105.05 232.5 105 232.65 105H233.85C234.033 105 234.175 105.05 234.275 105.15C234.375 105.25 234.433 105.342 234.45 105.425L238.275 115.275L242.075 105.425C242.108 105.342 242.166 105.25 242.25 105.15C242.35 105.05 242.491 105 242.675 105H243.9C244.033 105 244.15 105.05 244.25 105.15C244.366 105.25 244.425 105.375 244.425 105.525C244.425 105.608 244.408 105.692 244.375 105.775L239.725 117.375C239.658 117.558 239.55 117.708 239.4 117.825C239.266 117.942 239.066 118 238.8 118H237.725ZM251.754 118.25C250.037 118.25 248.67 117.725 247.654 116.675C246.637 115.608 246.079 114.158 245.979 112.325C245.962 112.108 245.954 111.833 245.954 111.5C245.954 111.15 245.962 110.867 245.979 110.65C246.045 109.467 246.32 108.433 246.804 107.55C247.287 106.65 247.945 105.958 248.779 105.475C249.629 104.992 250.62 104.75 251.754 104.75C253.02 104.75 254.079 105.017 254.929 105.55C255.795 106.083 256.454 106.842 256.904 107.825C257.354 108.808 257.579 109.958 257.579 111.275V111.7C257.579 111.883 257.52 112.025 257.404 112.125C257.304 112.225 257.17 112.275 257.004 112.275H248.354C248.354 112.292 248.354 112.325 248.354 112.375C248.354 112.425 248.354 112.467 248.354 112.5C248.387 113.183 248.537 113.825 248.804 114.425C249.07 115.008 249.454 115.483 249.954 115.85C250.454 116.217 251.054 116.4 251.754 116.4C252.354 116.4 252.854 116.308 253.254 116.125C253.654 115.942 253.979 115.742 254.229 115.525C254.479 115.292 254.645 115.117 254.729 115C254.879 114.783 254.995 114.658 255.079 114.625C255.162 114.575 255.295 114.55 255.479 114.55H256.679C256.845 114.55 256.979 114.6 257.079 114.7C257.195 114.783 257.245 114.908 257.229 115.075C257.212 115.325 257.079 115.633 256.829 116C256.579 116.35 256.22 116.7 255.754 117.05C255.287 117.4 254.72 117.692 254.054 117.925C253.387 118.142 252.62 118.25 251.754 118.25ZM248.354 110.55H255.204V110.475C255.204 109.725 255.062 109.058 254.779 108.475C254.512 107.892 254.12 107.433 253.604 107.1C253.087 106.75 252.47 106.575 251.754 106.575C251.037 106.575 250.42 106.75 249.904 107.1C249.404 107.433 249.02 107.892 248.754 108.475C248.487 109.058 248.354 109.725 248.354 110.475V110.55ZM261.168 118C261.001 118 260.859 117.95 260.743 117.85C260.643 117.733 260.593 117.592 260.593 117.425V100.825C260.593 100.658 260.643 100.525 260.743 100.425C260.859 100.308 261.001 100.25 261.168 100.25H262.343C262.526 100.25 262.668 100.308 262.768 100.425C262.868 100.525 262.918 100.658 262.918 100.825V117.425C262.918 117.592 262.868 117.733 262.768 117.85C262.668 117.95 262.526 118 262.343 118H261.168ZM279.4 118.25C277.866 118.25 276.591 117.967 275.575 117.4C274.575 116.833 273.816 116.042 273.3 115.025C272.783 114.008 272.5 112.825 272.45 111.475C272.433 110.792 272.425 110.058 272.425 109.275C272.425 108.492 272.433 107.742 272.45 107.025C272.5 105.675 272.783 104.492 273.3 103.475C273.816 102.458 274.575 101.667 275.575 101.1C276.591 100.533 277.866 100.25 279.4 100.25C280.55 100.25 281.558 100.408 282.425 100.725C283.291 101.042 284.008 101.467 284.575 102C285.158 102.533 285.6 103.133 285.9 103.8C286.2 104.45 286.366 105.125 286.4 105.825C286.416 105.975 286.366 106.1 286.25 106.2C286.15 106.3 286.025 106.35 285.875 106.35H284.5C284.35 106.35 284.216 106.308 284.1 106.225C284 106.142 283.925 105.992 283.875 105.775C283.591 104.475 283.058 103.583 282.275 103.1C281.508 102.617 280.541 102.375 279.375 102.375C278.041 102.375 276.983 102.758 276.2 103.525C275.416 104.275 274.991 105.483 274.925 107.15C274.875 108.517 274.875 109.917 274.925 111.35C274.991 113.017 275.416 114.233 276.2 115C276.983 115.75 278.041 116.125 279.375 116.125C280.541 116.125 281.508 115.883 282.275 115.4C283.058 114.917 283.591 114.025 283.875 112.725C283.925 112.508 284 112.358 284.1 112.275C284.216 112.192 284.35 112.15 284.5 112.15H285.875C286.025 112.15 286.15 112.2 286.25 112.3C286.366 112.4 286.416 112.525 286.4 112.675C286.366 113.375 286.2 114.058 285.9 114.725C285.6 115.375 285.158 115.967 284.575 116.5C284.008 117.033 283.291 117.458 282.425 117.775C281.558 118.092 280.55 118.25 279.4 118.25ZM294.75 118.25C293.484 118.25 292.425 118.008 291.575 117.525C290.725 117.042 290.075 116.375 289.625 115.525C289.175 114.658 288.925 113.675 288.875 112.575C288.859 112.292 288.85 111.933 288.85 111.5C288.85 111.05 288.859 110.692 288.875 110.425C288.925 109.308 289.175 108.325 289.625 107.475C290.092 106.625 290.75 105.958 291.6 105.475C292.45 104.992 293.5 104.75 294.75 104.75C296 104.75 297.05 104.992 297.9 105.475C298.75 105.958 299.4 106.625 299.85 107.475C300.317 108.325 300.575 109.308 300.625 110.425C300.642 110.692 300.65 111.05 300.65 111.5C300.65 111.933 300.642 112.292 300.625 112.575C300.575 113.675 300.325 114.658 299.875 115.525C299.425 116.375 298.775 117.042 297.925 117.525C297.075 118.008 296.017 118.25 294.75 118.25ZM294.75 116.325C295.784 116.325 296.609 116 297.225 115.35C297.842 114.683 298.175 113.717 298.225 112.45C298.242 112.2 298.25 111.883 298.25 111.5C298.25 111.117 298.242 110.8 298.225 110.55C298.175 109.283 297.842 108.325 297.225 107.675C296.609 107.008 295.784 106.675 294.75 106.675C293.717 106.675 292.884 107.008 292.25 107.675C291.634 108.325 291.309 109.283 291.275 110.55C291.259 110.8 291.25 111.117 291.25 111.5C291.25 111.883 291.259 112.2 291.275 112.45C291.309 113.717 291.634 114.683 292.25 115.35C292.884 116 293.717 116.325 294.75 116.325ZM308.281 118.25C307.347 118.25 306.547 118.133 305.881 117.9C305.214 117.667 304.672 117.383 304.256 117.05C303.839 116.717 303.522 116.383 303.306 116.05C303.106 115.717 302.997 115.45 302.981 115.25C302.964 115.067 303.022 114.925 303.156 114.825C303.289 114.725 303.422 114.675 303.556 114.675H304.656C304.756 114.675 304.831 114.692 304.881 114.725C304.947 114.742 305.031 114.808 305.131 114.925C305.347 115.158 305.589 115.392 305.856 115.625C306.122 115.858 306.447 116.05 306.831 116.2C307.231 116.35 307.722 116.425 308.306 116.425C309.156 116.425 309.856 116.267 310.406 115.95C310.956 115.617 311.231 115.133 311.231 114.5C311.231 114.083 311.114 113.75 310.881 113.5C310.664 113.25 310.264 113.025 309.681 112.825C309.114 112.625 308.331 112.417 307.331 112.2C306.331 111.967 305.539 111.683 304.956 111.35C304.372 111 303.956 110.592 303.706 110.125C303.456 109.642 303.331 109.1 303.331 108.5C303.331 107.883 303.514 107.292 303.881 106.725C304.247 106.142 304.781 105.667 305.481 105.3C306.197 104.933 307.089 104.75 308.156 104.75C309.022 104.75 309.764 104.858 310.381 105.075C310.997 105.292 311.506 105.567 311.906 105.9C312.306 106.217 312.606 106.533 312.806 106.85C313.006 107.167 313.114 107.433 313.131 107.65C313.147 107.817 313.097 107.958 312.981 108.075C312.864 108.175 312.731 108.225 312.581 108.225H311.531C311.414 108.225 311.314 108.2 311.231 108.15C311.164 108.1 311.097 108.042 311.031 107.975C310.864 107.758 310.664 107.542 310.431 107.325C310.214 107.108 309.922 106.933 309.556 106.8C309.206 106.65 308.739 106.575 308.156 106.575C307.322 106.575 306.697 106.75 306.281 107.1C305.864 107.45 305.656 107.892 305.656 108.425C305.656 108.742 305.747 109.025 305.931 109.275C306.114 109.525 306.464 109.75 306.981 109.95C307.497 110.15 308.264 110.367 309.281 110.6C310.381 110.817 311.247 111.108 311.881 111.475C312.514 111.842 312.964 112.267 313.231 112.75C313.497 113.233 313.631 113.792 313.631 114.425C313.631 115.125 313.422 115.767 313.006 116.35C312.606 116.933 312.006 117.4 311.206 117.75C310.422 118.083 309.447 118.25 308.281 118.25ZM321.575 118C320.642 118 319.884 117.825 319.3 117.475C318.717 117.108 318.292 116.6 318.025 115.95C317.759 115.283 317.625 114.5 317.625 113.6V107H315.675C315.509 107 315.367 106.95 315.25 106.85C315.15 106.733 315.1 106.592 315.1 106.425V105.575C315.1 105.408 315.15 105.275 315.25 105.175C315.367 105.058 315.509 105 315.675 105H317.625V100.825C317.625 100.658 317.675 100.525 317.775 100.425C317.892 100.308 318.034 100.25 318.2 100.25H319.375C319.542 100.25 319.675 100.308 319.775 100.425C319.892 100.525 319.95 100.658 319.95 100.825V105H323.05C323.217 105 323.35 105.058 323.45 105.175C323.567 105.275 323.625 105.408 323.625 105.575V106.425C323.625 106.592 323.567 106.733 323.45 106.85C323.35 106.95 323.217 107 323.05 107H319.95V113.425C319.95 114.208 320.084 114.825 320.35 115.275C320.617 115.725 321.092 115.95 321.775 115.95H323.3C323.467 115.95 323.6 116.008 323.7 116.125C323.817 116.225 323.875 116.358 323.875 116.525V117.425C323.875 117.592 323.817 117.733 323.7 117.85C323.6 117.95 323.467 118 323.3 118H321.575Z" fill="#1C1F35"/>
<defs>
<linearGradient id="paint0_linear_1_1557" x1="-1.64433" y1="12.5667" x2="71.3201" y2="17.7482" gradientUnits="userSpaceOnUse">
<stop stop-color="#FFB629"/>
<stop offset="0.507189" stop-color="#FFDA56"/>
<stop offset="1" stop-color="#FFD7A6"/>
</linearGradient>
<linearGradient id="paint1_linear_1_1557" x1="-1.64433" y1="92.5667" x2="71.3201" y2="97.7482" gradientUnits="userSpaceOnUse">
<stop stop-color="#FFB629"/>
<stop offset="0.507189" stop-color="#FFDA56"/>
<stop offset="1" stop-color="#FFD7A6"/>
</linearGradient>
</defs>
</svg>
