<svg width="417" height="139" viewBox="0 0 417 139" fill="none" xmlns="http://www.w3.org/2000/svg">
<rect width="417" height="139" fill="url(#paint0_linear_1_1337)"/>
<path d="M162 0H417V139H222L162 0Z" fill="white" fill-opacity="0.2"/>
<path d="M121.75 62C121.583 62 121.442 61.95 121.325 61.85C121.225 61.7333 121.175 61.5917 121.175 61.425V45.1C121.175 44.9167 121.225 44.775 121.325 44.675C121.442 44.5583 121.583 44.5 121.75 44.5H123C123.2 44.5 123.35 44.55 123.45 44.65C123.55 44.75 123.608 44.8333 123.625 44.9L128.925 55L134.25 44.9C134.283 44.8333 134.342 44.75 134.425 44.65C134.525 44.55 134.675 44.5 134.875 44.5H136.1C136.283 44.5 136.425 44.5583 136.525 44.675C136.642 44.775 136.7 44.9167 136.7 45.1V61.425C136.7 61.5917 136.642 61.7333 136.525 61.85C136.425 61.95 136.283 62 136.1 62H134.875C134.708 62 134.567 61.95 134.45 61.85C134.35 61.7333 134.3 61.5917 134.3 61.425V49.125L130.125 57.275C130.058 57.4417 129.958 57.575 129.825 57.675C129.692 57.7583 129.525 57.8 129.325 57.8H128.55C128.333 57.8 128.158 57.7583 128.025 57.675C127.908 57.575 127.808 57.4417 127.725 57.275L123.55 49.125V61.425C123.55 61.5917 123.492 61.7333 123.375 61.85C123.275 61.95 123.142 62 122.975 62H121.75ZM146.024 62.25C144.757 62.25 143.699 62.0083 142.849 61.525C141.999 61.0417 141.349 60.375 140.899 59.525C140.449 58.6583 140.199 57.675 140.149 56.575C140.132 56.2917 140.124 55.9333 140.124 55.5C140.124 55.05 140.132 54.6917 140.149 54.425C140.199 53.3083 140.449 52.325 140.899 51.475C141.365 50.625 142.024 49.9583 142.874 49.475C143.724 48.9917 144.774 48.75 146.024 48.75C147.274 48.75 148.324 48.9917 149.174 49.475C150.024 49.9583 150.674 50.625 151.124 51.475C151.59 52.325 151.849 53.3083 151.899 54.425C151.915 54.6917 151.924 55.05 151.924 55.5C151.924 55.9333 151.915 56.2917 151.899 56.575C151.849 57.675 151.599 58.6583 151.149 59.525C150.699 60.375 150.049 61.0417 149.199 61.525C148.349 62.0083 147.29 62.25 146.024 62.25ZM146.024 60.325C147.057 60.325 147.882 60 148.499 59.35C149.115 58.6833 149.449 57.7167 149.499 56.45C149.515 56.2 149.524 55.8833 149.524 55.5C149.524 55.1167 149.515 54.8 149.499 54.55C149.449 53.2833 149.115 52.325 148.499 51.675C147.882 51.0083 147.057 50.675 146.024 50.675C144.99 50.675 144.157 51.0083 143.524 51.675C142.907 52.325 142.582 53.2833 142.549 54.55C142.532 54.8 142.524 55.1167 142.524 55.5C142.524 55.8833 142.532 56.2 142.549 56.45C142.582 57.7167 142.907 58.6833 143.524 59.35C144.157 60 144.99 60.325 146.024 60.325ZM159.115 62C158.865 62 158.665 61.9417 158.515 61.825C158.382 61.7083 158.274 61.5583 158.19 61.375L153.565 49.775C153.532 49.6917 153.515 49.6083 153.515 49.525C153.515 49.375 153.565 49.25 153.665 49.15C153.765 49.05 153.89 49 154.04 49H155.24C155.424 49 155.565 49.05 155.665 49.15C155.765 49.25 155.824 49.3417 155.84 49.425L159.665 59.275L163.465 49.425C163.499 49.3417 163.557 49.25 163.64 49.15C163.74 49.05 163.882 49 164.065 49H165.29C165.424 49 165.54 49.05 165.64 49.15C165.757 49.25 165.815 49.375 165.815 49.525C165.815 49.6083 165.799 49.6917 165.765 49.775L161.115 61.375C161.049 61.5583 160.94 61.7083 160.79 61.825C160.657 61.9417 160.457 62 160.19 62H159.115ZM169.008 62C168.841 62 168.7 61.95 168.583 61.85C168.483 61.7333 168.433 61.5917 168.433 61.425V49.575C168.433 49.4083 168.483 49.275 168.583 49.175C168.7 49.0583 168.841 49 169.008 49H170.208C170.375 49 170.508 49.0583 170.608 49.175C170.708 49.275 170.758 49.4083 170.758 49.575V61.425C170.758 61.5917 170.708 61.7333 170.608 61.85C170.508 61.95 170.375 62 170.208 62H169.008ZM168.808 46.575C168.641 46.575 168.5 46.525 168.383 46.425C168.283 46.3083 168.233 46.1667 168.233 46V44.65C168.233 44.4833 168.283 44.35 168.383 44.25C168.5 44.1333 168.641 44.075 168.808 44.075H170.383C170.55 44.075 170.683 44.1333 170.783 44.25C170.9 44.35 170.958 44.4833 170.958 44.65V46C170.958 46.1667 170.9 46.3083 170.783 46.425C170.683 46.525 170.55 46.575 170.383 46.575H168.808ZM175.307 62C175.14 62 174.999 61.95 174.882 61.85C174.782 61.7333 174.732 61.5917 174.732 61.425V49.575C174.732 49.4083 174.782 49.275 174.882 49.175C174.999 49.0583 175.14 49 175.307 49H176.482C176.649 49 176.782 49.0583 176.882 49.175C176.999 49.275 177.057 49.4083 177.057 49.575V50.675C177.49 50.1083 178.032 49.65 178.682 49.3C179.349 48.9333 180.199 48.75 181.232 48.75C182.315 48.75 183.232 48.9917 183.982 49.475C184.749 49.9417 185.324 50.6 185.707 51.45C186.09 52.2833 186.282 53.2583 186.282 54.375V61.425C186.282 61.5917 186.232 61.7333 186.132 61.85C186.032 61.95 185.899 62 185.732 62H184.482C184.315 62 184.174 61.95 184.057 61.85C183.957 61.7333 183.907 61.5917 183.907 61.425V54.5C183.907 53.3333 183.624 52.425 183.057 51.775C182.49 51.1083 181.657 50.775 180.557 50.775C179.524 50.775 178.69 51.1083 178.057 51.775C177.44 52.425 177.132 53.3333 177.132 54.5V61.425C177.132 61.5917 177.074 61.7333 176.957 61.85C176.857 61.95 176.724 62 176.557 62H175.307ZM195.218 67.5C194.085 67.5 193.151 67.35 192.418 67.05C191.701 66.75 191.135 66.3833 190.718 65.95C190.318 65.5333 190.026 65.1083 189.843 64.675C189.676 64.2583 189.585 63.925 189.568 63.675C189.551 63.5083 189.601 63.3667 189.718 63.25C189.851 63.1333 189.993 63.075 190.143 63.075H191.343C191.493 63.075 191.618 63.1083 191.718 63.175C191.818 63.2417 191.901 63.3833 191.968 63.6C192.068 63.85 192.218 64.125 192.418 64.425C192.618 64.7417 192.926 65.0083 193.343 65.225C193.76 65.4583 194.343 65.575 195.093 65.575C195.876 65.575 196.535 65.4667 197.068 65.25C197.601 65.05 198.001 64.6833 198.268 64.15C198.551 63.6333 198.693 62.9167 198.693 62V60.3C198.293 60.8167 197.768 61.25 197.118 61.6C196.468 61.9333 195.651 62.1 194.668 62.1C193.735 62.1 192.935 61.9417 192.268 61.625C191.601 61.2917 191.051 60.85 190.618 60.3C190.201 59.7333 189.885 59.0917 189.668 58.375C189.468 57.6583 189.351 56.9083 189.318 56.125C189.301 55.6583 189.301 55.2 189.318 54.75C189.351 53.9667 189.468 53.2167 189.668 52.5C189.885 51.7833 190.201 51.1417 190.618 50.575C191.051 50.0083 191.601 49.5667 192.268 49.25C192.935 48.9167 193.735 48.75 194.668 48.75C195.668 48.75 196.493 48.9417 197.143 49.325C197.81 49.6917 198.351 50.1417 198.768 50.675V49.6C198.768 49.4333 198.818 49.2917 198.918 49.175C199.035 49.0583 199.176 49 199.343 49H200.493C200.66 49 200.801 49.0583 200.918 49.175C201.035 49.2917 201.093 49.4333 201.093 49.6V61.725C201.093 62.8417 200.901 63.8333 200.518 64.7C200.151 65.5667 199.535 66.25 198.668 66.75C197.818 67.25 196.668 67.5 195.218 67.5ZM195.168 60.1C196.001 60.1 196.668 59.9083 197.168 59.525C197.685 59.1417 198.06 58.6583 198.293 58.075C198.543 57.4917 198.676 56.9 198.693 56.3C198.71 56.0667 198.718 55.7833 198.718 55.45C198.718 55.1 198.71 54.8083 198.693 54.575C198.676 53.975 198.543 53.3833 198.293 52.8C198.06 52.2167 197.685 51.7333 197.168 51.35C196.668 50.9667 196.001 50.775 195.168 50.775C194.335 50.775 193.668 50.9667 193.168 51.35C192.668 51.7167 192.31 52.2083 192.093 52.825C191.876 53.425 191.751 54.075 191.718 54.775C191.701 55.2083 191.701 55.65 191.718 56.1C191.751 56.8 191.876 57.4583 192.093 58.075C192.31 58.675 192.668 59.1667 193.168 59.55C193.668 59.9167 194.335 60.1 195.168 60.1ZM212.529 66.75C212.396 66.75 212.279 66.7 212.179 66.6C212.079 66.5 212.029 66.3833 212.029 66.25C212.029 66.1833 212.038 66.1167 212.054 66.05C212.071 65.9833 212.104 65.9 212.154 65.8L214.079 61.225L209.304 49.95C209.221 49.75 209.179 49.6083 209.179 49.525C209.179 49.375 209.229 49.25 209.329 49.15C209.429 49.05 209.554 49 209.704 49H210.929C211.096 49 211.229 49.0417 211.329 49.125C211.429 49.2083 211.496 49.3083 211.529 49.425L215.329 58.525L219.229 49.425C219.279 49.3083 219.346 49.2083 219.429 49.125C219.529 49.0417 219.671 49 219.854 49H221.029C221.179 49 221.304 49.05 221.404 49.15C221.504 49.25 221.554 49.3667 221.554 49.5C221.554 49.5833 221.513 49.7333 221.429 49.95L214.329 66.325C214.279 66.4417 214.204 66.5417 214.104 66.625C214.021 66.7083 213.888 66.75 213.704 66.75H212.529ZM228.909 62.25C227.643 62.25 226.584 62.0083 225.734 61.525C224.884 61.0417 224.234 60.375 223.784 59.525C223.334 58.6583 223.084 57.675 223.034 56.575C223.018 56.2917 223.009 55.9333 223.009 55.5C223.009 55.05 223.018 54.6917 223.034 54.425C223.084 53.3083 223.334 52.325 223.784 51.475C224.251 50.625 224.909 49.9583 225.759 49.475C226.609 48.9917 227.659 48.75 228.909 48.75C230.159 48.75 231.209 48.9917 232.059 49.475C232.909 49.9583 233.559 50.625 234.009 51.475C234.476 52.325 234.734 53.3083 234.784 54.425C234.801 54.6917 234.809 55.05 234.809 55.5C234.809 55.9333 234.801 56.2917 234.784 56.575C234.734 57.675 234.484 58.6583 234.034 59.525C233.584 60.375 232.934 61.0417 232.084 61.525C231.234 62.0083 230.176 62.25 228.909 62.25ZM228.909 60.325C229.943 60.325 230.768 60 231.384 59.35C232.001 58.6833 232.334 57.7167 232.384 56.45C232.401 56.2 232.409 55.8833 232.409 55.5C232.409 55.1167 232.401 54.8 232.384 54.55C232.334 53.2833 232.001 52.325 231.384 51.675C230.768 51.0083 229.943 50.675 228.909 50.675C227.876 50.675 227.043 51.0083 226.409 51.675C225.793 52.325 225.468 53.2833 225.434 54.55C225.418 54.8 225.409 55.1167 225.409 55.5C225.409 55.8833 225.418 56.2 225.434 56.45C225.468 57.7167 225.793 58.6833 226.409 59.35C227.043 60 227.876 60.325 228.909 60.325ZM242.79 62.25C241.723 62.25 240.815 62.0167 240.065 61.55C239.332 61.0667 238.773 60.4 238.39 59.55C238.007 58.7 237.815 57.725 237.815 56.625V49.575C237.815 49.4083 237.865 49.275 237.965 49.175C238.082 49.0583 238.223 49 238.39 49H239.64C239.807 49 239.94 49.0583 240.04 49.175C240.157 49.275 240.215 49.4083 240.215 49.575V56.5C240.215 58.9833 241.298 60.225 243.465 60.225C244.498 60.225 245.323 59.9 245.94 59.25C246.573 58.5833 246.89 57.6667 246.89 56.5V49.575C246.89 49.4083 246.94 49.275 247.04 49.175C247.157 49.0583 247.298 49 247.465 49H248.69C248.873 49 249.015 49.0583 249.115 49.175C249.215 49.275 249.265 49.4083 249.265 49.575V61.425C249.265 61.5917 249.215 61.7333 249.115 61.85C249.015 61.95 248.873 62 248.69 62H247.54C247.373 62 247.232 61.95 247.115 61.85C247.015 61.7333 246.965 61.5917 246.965 61.425V60.325C246.515 60.9083 245.965 61.375 245.315 61.725C244.682 62.075 243.84 62.25 242.79 62.25ZM253.554 62C253.387 62 253.246 61.95 253.129 61.85C253.029 61.7333 252.979 61.5917 252.979 61.425V49.6C252.979 49.4333 253.029 49.2917 253.129 49.175C253.246 49.0583 253.387 49 253.554 49H254.704C254.871 49 255.012 49.0583 255.129 49.175C255.246 49.2917 255.304 49.4333 255.304 49.6V50.7C255.637 50.1333 256.096 49.7083 256.679 49.425C257.262 49.1417 257.962 49 258.779 49H259.779C259.946 49 260.079 49.0583 260.179 49.175C260.279 49.275 260.329 49.4083 260.329 49.575V50.6C260.329 50.7667 260.279 50.9 260.179 51C260.079 51.1 259.946 51.15 259.779 51.15H258.279C257.379 51.15 256.671 51.4167 256.154 51.95C255.637 52.4667 255.379 53.175 255.379 54.075V61.425C255.379 61.5917 255.321 61.7333 255.204 61.85C255.087 61.95 254.946 62 254.779 62H253.554ZM268.618 66.75C268.451 66.75 268.31 66.6917 268.193 66.575C268.093 66.475 268.043 66.3417 268.043 66.175V49.575C268.043 49.4083 268.093 49.275 268.193 49.175C268.31 49.0583 268.451 49 268.618 49H269.768C269.935 49 270.068 49.0583 270.168 49.175C270.285 49.275 270.343 49.4083 270.343 49.575V50.675C270.743 50.125 271.276 49.6667 271.943 49.3C272.61 48.9333 273.443 48.75 274.443 48.75C275.376 48.75 276.168 48.9083 276.818 49.225C277.485 49.5417 278.026 49.975 278.443 50.525C278.876 51.075 279.201 51.7 279.418 52.4C279.635 53.1 279.751 53.85 279.768 54.65C279.785 54.9167 279.793 55.2 279.793 55.5C279.793 55.8 279.785 56.0833 279.768 56.35C279.751 57.1333 279.635 57.8833 279.418 58.6C279.201 59.3 278.876 59.925 278.443 60.475C278.026 61.0083 277.485 61.4417 276.818 61.775C276.168 62.0917 275.376 62.25 274.443 62.25C273.476 62.25 272.66 62.075 271.993 61.725C271.343 61.3583 270.81 60.9083 270.393 60.375V66.175C270.393 66.3417 270.343 66.475 270.243 66.575C270.143 66.6917 270.001 66.75 269.818 66.75H268.618ZM273.918 60.225C274.785 60.225 275.46 60.0417 275.943 59.675C276.443 59.2917 276.801 58.8 277.018 58.2C277.235 57.5833 277.36 56.925 277.393 56.225C277.41 55.7417 277.41 55.2583 277.393 54.775C277.36 54.075 277.235 53.425 277.018 52.825C276.801 52.2083 276.443 51.7167 275.943 51.35C275.46 50.9667 274.785 50.775 273.918 50.775C273.101 50.775 272.435 50.9667 271.918 51.35C271.418 51.7333 271.043 52.225 270.793 52.825C270.56 53.4083 270.426 54.0083 270.393 54.625C270.376 54.8917 270.368 55.2083 270.368 55.575C270.368 55.9417 270.376 56.2667 270.393 56.55C270.41 57.1333 270.543 57.7083 270.793 58.275C271.06 58.8417 271.451 59.3083 271.968 59.675C272.485 60.0417 273.135 60.225 273.918 60.225ZM283.486 62C283.319 62 283.177 61.95 283.061 61.85C282.961 61.7333 282.911 61.5917 282.911 61.425V49.6C282.911 49.4333 282.961 49.2917 283.061 49.175C283.177 49.0583 283.319 49 283.486 49H284.636C284.802 49 284.944 49.0583 285.061 49.175C285.177 49.2917 285.236 49.4333 285.236 49.6V50.7C285.569 50.1333 286.027 49.7083 286.611 49.425C287.194 49.1417 287.894 49 288.711 49H289.711C289.877 49 290.011 49.0583 290.111 49.175C290.211 49.275 290.261 49.4083 290.261 49.575V50.6C290.261 50.7667 290.211 50.9 290.111 51C290.011 51.1 289.877 51.15 289.711 51.15H288.211C287.311 51.15 286.602 51.4167 286.086 51.95C285.569 52.4667 285.311 53.175 285.311 54.075V61.425C285.311 61.5917 285.252 61.7333 285.136 61.85C285.019 61.95 284.877 62 284.711 62H283.486ZM297.488 62.25C296.222 62.25 295.163 62.0083 294.313 61.525C293.463 61.0417 292.813 60.375 292.363 59.525C291.913 58.6583 291.663 57.675 291.613 56.575C291.597 56.2917 291.588 55.9333 291.588 55.5C291.588 55.05 291.597 54.6917 291.613 54.425C291.663 53.3083 291.913 52.325 292.363 51.475C292.83 50.625 293.488 49.9583 294.338 49.475C295.188 48.9917 296.238 48.75 297.488 48.75C298.738 48.75 299.788 48.9917 300.638 49.475C301.488 49.9583 302.138 50.625 302.588 51.475C303.055 52.325 303.313 53.3083 303.363 54.425C303.38 54.6917 303.388 55.05 303.388 55.5C303.388 55.9333 303.38 56.2917 303.363 56.575C303.313 57.675 303.063 58.6583 302.613 59.525C302.163 60.375 301.513 61.0417 300.663 61.525C299.813 62.0083 298.755 62.25 297.488 62.25ZM297.488 60.325C298.522 60.325 299.347 60 299.963 59.35C300.58 58.6833 300.913 57.7167 300.963 56.45C300.98 56.2 300.988 55.8833 300.988 55.5C300.988 55.1167 300.98 54.8 300.963 54.55C300.913 53.2833 300.58 52.325 299.963 51.675C299.347 51.0083 298.522 50.675 297.488 50.675C296.455 50.675 295.622 51.0083 294.988 51.675C294.372 52.325 294.047 53.2833 294.013 54.55C293.997 54.8 293.988 55.1167 293.988 55.5C293.988 55.8833 293.997 56.2 294.013 56.45C294.047 57.7167 294.372 58.6833 294.988 59.35C295.622 60 296.455 60.325 297.488 60.325ZM311.269 62.25C310.352 62.25 309.561 62.0917 308.894 61.775C308.227 61.4417 307.677 61 307.244 60.45C306.827 59.8833 306.511 59.2417 306.294 58.525C306.094 57.8083 305.977 57.05 305.944 56.25C305.927 55.9833 305.919 55.7333 305.919 55.5C305.919 55.2667 305.927 55.0167 305.944 54.75C305.977 53.9667 306.094 53.2167 306.294 52.5C306.511 51.7833 306.827 51.1417 307.244 50.575C307.677 50.0083 308.227 49.5667 308.894 49.25C309.561 48.9167 310.352 48.75 311.269 48.75C312.252 48.75 313.069 48.925 313.719 49.275C314.369 49.625 314.902 50.0583 315.319 50.575V44.825C315.319 44.6583 315.369 44.525 315.469 44.425C315.586 44.3083 315.727 44.25 315.894 44.25H317.094C317.261 44.25 317.394 44.3083 317.494 44.425C317.611 44.525 317.669 44.6583 317.669 44.825V61.425C317.669 61.5917 317.611 61.7333 317.494 61.85C317.394 61.95 317.261 62 317.094 62H315.969C315.786 62 315.644 61.95 315.544 61.85C315.444 61.7333 315.394 61.5917 315.394 61.425V60.375C314.977 60.9083 314.436 61.3583 313.769 61.725C313.102 62.075 312.269 62.25 311.269 62.25ZM311.794 60.225C312.627 60.225 313.294 60.0333 313.794 59.65C314.294 59.2667 314.669 58.7833 314.919 58.2C315.169 57.6 315.302 56.9917 315.319 56.375C315.336 56.1083 315.344 55.7917 315.344 55.425C315.344 55.0417 315.336 54.7167 315.319 54.45C315.302 53.8667 315.161 53.2917 314.894 52.725C314.644 52.1583 314.261 51.6917 313.744 51.325C313.244 50.9583 312.594 50.775 311.794 50.775C310.944 50.775 310.269 50.9667 309.769 51.35C309.269 51.7167 308.911 52.2083 308.694 52.825C308.477 53.425 308.352 54.075 308.319 54.775C308.302 55.2583 308.302 55.7417 308.319 56.225C308.352 56.925 308.477 57.5833 308.694 58.2C308.911 58.8 309.269 59.2917 309.769 59.675C310.269 60.0417 310.944 60.225 311.794 60.225ZM326.237 62.25C325.17 62.25 324.262 62.0167 323.512 61.55C322.779 61.0667 322.22 60.4 321.837 59.55C321.454 58.7 321.262 57.725 321.262 56.625V49.575C321.262 49.4083 321.312 49.275 321.412 49.175C321.529 49.0583 321.67 49 321.837 49H323.087C323.254 49 323.387 49.0583 323.487 49.175C323.604 49.275 323.662 49.4083 323.662 49.575V56.5C323.662 58.9833 324.745 60.225 326.912 60.225C327.945 60.225 328.77 59.9 329.387 59.25C330.02 58.5833 330.337 57.6667 330.337 56.5V49.575C330.337 49.4083 330.387 49.275 330.487 49.175C330.604 49.0583 330.745 49 330.912 49H332.137C332.32 49 332.462 49.0583 332.562 49.175C332.662 49.275 332.712 49.4083 332.712 49.575V61.425C332.712 61.5917 332.662 61.7333 332.562 61.85C332.462 61.95 332.32 62 332.137 62H330.987C330.82 62 330.679 61.95 330.562 61.85C330.462 61.7333 330.412 61.5917 330.412 61.425V60.325C329.962 60.9083 329.412 61.375 328.762 61.725C328.129 62.075 327.287 62.25 326.237 62.25ZM341.676 62.25C340.493 62.25 339.468 62.025 338.601 61.575C337.751 61.1083 337.093 60.45 336.626 59.6C336.16 58.7333 335.91 57.7 335.876 56.5C335.86 56.25 335.851 55.9167 335.851 55.5C335.851 55.0833 335.86 54.75 335.876 54.5C335.91 53.3 336.16 52.275 336.626 51.425C337.093 50.5583 337.751 49.9 338.601 49.45C339.468 48.9833 340.493 48.75 341.676 48.75C342.643 48.75 343.468 48.8833 344.151 49.15C344.851 49.4167 345.426 49.7583 345.876 50.175C346.326 50.5917 346.66 51.0417 346.876 51.525C347.11 52.0083 347.235 52.4667 347.251 52.9C347.268 53.0667 347.218 53.2 347.101 53.3C346.985 53.4 346.843 53.45 346.676 53.45H345.476C345.31 53.45 345.185 53.4167 345.101 53.35C345.018 53.2667 344.935 53.1333 344.851 52.95C344.551 52.1333 344.143 51.5583 343.626 51.225C343.11 50.8917 342.468 50.725 341.701 50.725C340.701 50.725 339.885 51.0333 339.251 51.65C338.635 52.2667 338.301 53.2583 338.251 54.625C338.235 55.225 338.235 55.8083 338.251 56.375C338.301 57.7583 338.635 58.7583 339.251 59.375C339.885 59.975 340.701 60.275 341.701 60.275C342.468 60.275 343.11 60.1083 343.626 59.775C344.143 59.4417 344.551 58.8667 344.851 58.05C344.935 57.8667 345.018 57.7417 345.101 57.675C345.185 57.5917 345.31 57.55 345.476 57.55H346.676C346.843 57.55 346.985 57.6 347.101 57.7C347.218 57.8 347.268 57.9333 347.251 58.1C347.235 58.45 347.16 58.8083 347.026 59.175C346.893 59.5417 346.676 59.9167 346.376 60.3C346.093 60.6667 345.735 61 345.301 61.3C344.868 61.5833 344.343 61.8167 343.726 62C343.126 62.1667 342.443 62.25 341.676 62.25ZM355.295 62C354.362 62 353.603 61.825 353.02 61.475C352.437 61.1083 352.012 60.6 351.745 59.95C351.478 59.2833 351.345 58.5 351.345 57.6V51H349.395C349.228 51 349.087 50.95 348.97 50.85C348.87 50.7333 348.82 50.5917 348.82 50.425V49.575C348.82 49.4083 348.87 49.275 348.97 49.175C349.087 49.0583 349.228 49 349.395 49H351.345V44.825C351.345 44.6583 351.395 44.525 351.495 44.425C351.612 44.3083 351.753 44.25 351.92 44.25H353.095C353.262 44.25 353.395 44.3083 353.495 44.425C353.612 44.525 353.67 44.6583 353.67 44.825V49H356.77C356.937 49 357.07 49.0583 357.17 49.175C357.287 49.275 357.345 49.4083 357.345 49.575V50.425C357.345 50.5917 357.287 50.7333 357.17 50.85C357.07 50.95 356.937 51 356.77 51H353.67V57.425C353.67 58.2083 353.803 58.825 354.07 59.275C354.337 59.725 354.812 59.95 355.495 59.95H357.02C357.187 59.95 357.32 60.0083 357.42 60.125C357.537 60.225 357.595 60.3583 357.595 60.525V61.425C357.595 61.5917 357.537 61.7333 357.42 61.85C357.32 61.95 357.187 62 357.02 62H355.295ZM364.486 62.25C363.552 62.25 362.752 62.1333 362.086 61.9C361.419 61.6667 360.877 61.3833 360.461 61.05C360.044 60.7167 359.727 60.3833 359.511 60.05C359.311 59.7167 359.202 59.45 359.186 59.25C359.169 59.0667 359.227 58.925 359.361 58.825C359.494 58.725 359.627 58.675 359.761 58.675H360.861C360.961 58.675 361.036 58.6917 361.086 58.725C361.152 58.7417 361.236 58.8083 361.336 58.925C361.552 59.1583 361.794 59.3917 362.061 59.625C362.327 59.8583 362.652 60.05 363.036 60.2C363.436 60.35 363.927 60.425 364.511 60.425C365.361 60.425 366.061 60.2667 366.611 59.95C367.161 59.6167 367.436 59.1333 367.436 58.5C367.436 58.0833 367.319 57.75 367.086 57.5C366.869 57.25 366.469 57.025 365.886 56.825C365.319 56.625 364.536 56.4167 363.536 56.2C362.536 55.9667 361.744 55.6833 361.161 55.35C360.577 55 360.161 54.5917 359.911 54.125C359.661 53.6417 359.536 53.1 359.536 52.5C359.536 51.8833 359.719 51.2917 360.086 50.725C360.452 50.1417 360.986 49.6667 361.686 49.3C362.402 48.9333 363.294 48.75 364.361 48.75C365.227 48.75 365.969 48.8583 366.586 49.075C367.202 49.2917 367.711 49.5667 368.111 49.9C368.511 50.2167 368.811 50.5333 369.011 50.85C369.211 51.1667 369.319 51.4333 369.336 51.65C369.352 51.8167 369.302 51.9583 369.186 52.075C369.069 52.175 368.936 52.225 368.786 52.225H367.736C367.619 52.225 367.519 52.2 367.436 52.15C367.369 52.1 367.302 52.0417 367.236 51.975C367.069 51.7583 366.869 51.5417 366.636 51.325C366.419 51.1083 366.127 50.9333 365.761 50.8C365.411 50.65 364.944 50.575 364.361 50.575C363.527 50.575 362.902 50.75 362.486 51.1C362.069 51.45 361.861 51.8917 361.861 52.425C361.861 52.7417 361.952 53.025 362.136 53.275C362.319 53.525 362.669 53.75 363.186 53.95C363.702 54.15 364.469 54.3667 365.486 54.6C366.586 54.8167 367.452 55.1083 368.086 55.475C368.719 55.8417 369.169 56.2667 369.436 56.75C369.702 57.2333 369.836 57.7917 369.836 58.425C369.836 59.125 369.627 59.7667 369.211 60.35C368.811 60.9333 368.211 61.4 367.411 61.75C366.627 62.0833 365.652 62.25 364.486 62.25ZM124.475 92.25C123.642 92.25 122.883 92.0833 122.2 91.75C121.517 91.4167 120.967 90.9667 120.55 90.4C120.133 89.8333 119.925 89.1917 119.925 88.475C119.925 87.325 120.392 86.4083 121.325 85.725C122.258 85.0417 123.475 84.5917 124.975 84.375L128.7 83.85V83.125C128.7 82.325 128.467 81.7 128 81.25C127.55 80.8 126.808 80.575 125.775 80.575C125.025 80.575 124.417 80.725 123.95 81.025C123.5 81.325 123.183 81.7083 123 82.175C122.9 82.425 122.725 82.55 122.475 82.55H121.35C121.167 82.55 121.025 82.5 120.925 82.4C120.842 82.2833 120.8 82.15 120.8 82C120.8 81.75 120.892 81.4417 121.075 81.075C121.275 80.7083 121.575 80.35 121.975 80C122.375 79.65 122.883 79.3583 123.5 79.125C124.133 78.875 124.9 78.75 125.8 78.75C126.8 78.75 127.642 78.8833 128.325 79.15C129.008 79.4 129.542 79.7417 129.925 80.175C130.325 80.6083 130.608 81.1 130.775 81.65C130.958 82.2 131.05 82.7583 131.05 83.325V91.425C131.05 91.5917 130.992 91.7333 130.875 91.85C130.775 91.95 130.642 92 130.475 92H129.325C129.142 92 129 91.95 128.9 91.85C128.8 91.7333 128.75 91.5917 128.75 91.425V90.35C128.533 90.65 128.242 90.95 127.875 91.25C127.508 91.5333 127.05 91.775 126.5 91.975C125.95 92.1583 125.275 92.25 124.475 92.25ZM125 90.375C125.683 90.375 126.308 90.2333 126.875 89.95C127.442 89.65 127.883 89.1917 128.2 88.575C128.533 87.9583 128.7 87.1833 128.7 86.25V85.55L125.8 85.975C124.617 86.1417 123.725 86.425 123.125 86.825C122.525 87.2083 122.225 87.7 122.225 88.3C122.225 88.7667 122.358 89.1583 122.625 89.475C122.908 89.775 123.258 90 123.675 90.15C124.108 90.3 124.55 90.375 125 90.375ZM139.894 92.25C138.711 92.25 137.686 92.025 136.819 91.575C135.969 91.1083 135.311 90.45 134.844 89.6C134.377 88.7333 134.127 87.7 134.094 86.5C134.077 86.25 134.069 85.9167 134.069 85.5C134.069 85.0833 134.077 84.75 134.094 84.5C134.127 83.3 134.377 82.275 134.844 81.425C135.311 80.5583 135.969 79.9 136.819 79.45C137.686 78.9833 138.711 78.75 139.894 78.75C140.861 78.75 141.686 78.8833 142.369 79.15C143.069 79.4167 143.644 79.7583 144.094 80.175C144.544 80.5917 144.877 81.0417 145.094 81.525C145.327 82.0083 145.452 82.4667 145.469 82.9C145.486 83.0667 145.436 83.2 145.319 83.3C145.202 83.4 145.061 83.45 144.894 83.45H143.694C143.527 83.45 143.402 83.4167 143.319 83.35C143.236 83.2667 143.152 83.1333 143.069 82.95C142.769 82.1333 142.361 81.5583 141.844 81.225C141.327 80.8917 140.686 80.725 139.919 80.725C138.919 80.725 138.102 81.0333 137.469 81.65C136.852 82.2667 136.519 83.2583 136.469 84.625C136.452 85.225 136.452 85.8083 136.469 86.375C136.519 87.7583 136.852 88.7583 137.469 89.375C138.102 89.975 138.919 90.275 139.919 90.275C140.686 90.275 141.327 90.1083 141.844 89.775C142.361 89.4417 142.769 88.8667 143.069 88.05C143.152 87.8667 143.236 87.7417 143.319 87.675C143.402 87.5917 143.527 87.55 143.694 87.55H144.894C145.061 87.55 145.202 87.6 145.319 87.7C145.436 87.8 145.486 87.9333 145.469 88.1C145.452 88.45 145.377 88.8083 145.244 89.175C145.111 89.5417 144.894 89.9167 144.594 90.3C144.311 90.6667 143.952 91 143.519 91.3C143.086 91.5833 142.561 91.8167 141.944 92C141.344 92.1667 140.661 92.25 139.894 92.25ZM149.013 92C148.846 92 148.705 91.95 148.588 91.85C148.488 91.7333 148.438 91.5917 148.438 91.425V79.6C148.438 79.4333 148.488 79.2917 148.588 79.175C148.705 79.0583 148.846 79 149.013 79H150.163C150.33 79 150.471 79.0583 150.588 79.175C150.705 79.2917 150.763 79.4333 150.763 79.6V80.7C151.096 80.1333 151.555 79.7083 152.138 79.425C152.721 79.1417 153.421 79 154.238 79H155.238C155.405 79 155.538 79.0583 155.638 79.175C155.738 79.275 155.788 79.4083 155.788 79.575V80.6C155.788 80.7667 155.738 80.9 155.638 81C155.538 81.1 155.405 81.15 155.238 81.15H153.738C152.838 81.15 152.13 81.4167 151.613 81.95C151.096 82.4667 150.838 83.175 150.838 84.075V91.425C150.838 91.5917 150.78 91.7333 150.663 91.85C150.546 91.95 150.405 92 150.238 92H149.013ZM163.016 92.25C161.749 92.25 160.691 92.0083 159.841 91.525C158.991 91.0417 158.341 90.375 157.891 89.525C157.441 88.6583 157.191 87.675 157.141 86.575C157.124 86.2917 157.116 85.9333 157.116 85.5C157.116 85.05 157.124 84.6917 157.141 84.425C157.191 83.3083 157.441 82.325 157.891 81.475C158.357 80.625 159.016 79.9583 159.866 79.475C160.716 78.9917 161.766 78.75 163.016 78.75C164.266 78.75 165.316 78.9917 166.166 79.475C167.016 79.9583 167.666 80.625 168.116 81.475C168.582 82.325 168.841 83.3083 168.891 84.425C168.907 84.6917 168.916 85.05 168.916 85.5C168.916 85.9333 168.907 86.2917 168.891 86.575C168.841 87.675 168.591 88.6583 168.141 89.525C167.691 90.375 167.041 91.0417 166.191 91.525C165.341 92.0083 164.282 92.25 163.016 92.25ZM163.016 90.325C164.049 90.325 164.874 90 165.491 89.35C166.107 88.6833 166.441 87.7167 166.491 86.45C166.507 86.2 166.516 85.8833 166.516 85.5C166.516 85.1167 166.507 84.8 166.491 84.55C166.441 83.2833 166.107 82.325 165.491 81.675C164.874 81.0083 164.049 80.675 163.016 80.675C161.982 80.675 161.149 81.0083 160.516 81.675C159.899 82.325 159.574 83.2833 159.541 84.55C159.524 84.8 159.516 85.1167 159.516 85.5C159.516 85.8833 159.524 86.2 159.541 86.45C159.574 87.7167 159.899 88.6833 160.516 89.35C161.149 90 161.982 90.325 163.016 90.325ZM176.546 92.25C175.613 92.25 174.813 92.1333 174.146 91.9C173.48 91.6667 172.938 91.3833 172.521 91.05C172.105 90.7167 171.788 90.3833 171.571 90.05C171.371 89.7167 171.263 89.45 171.246 89.25C171.23 89.0667 171.288 88.925 171.421 88.825C171.555 88.725 171.688 88.675 171.821 88.675H172.921C173.021 88.675 173.096 88.6917 173.146 88.725C173.213 88.7417 173.296 88.8083 173.396 88.925C173.613 89.1583 173.855 89.3917 174.121 89.625C174.388 89.8583 174.713 90.05 175.096 90.2C175.496 90.35 175.988 90.425 176.571 90.425C177.421 90.425 178.121 90.2667 178.671 89.95C179.221 89.6167 179.496 89.1333 179.496 88.5C179.496 88.0833 179.38 87.75 179.146 87.5C178.93 87.25 178.53 87.025 177.946 86.825C177.38 86.625 176.596 86.4167 175.596 86.2C174.596 85.9667 173.805 85.6833 173.221 85.35C172.638 85 172.221 84.5917 171.971 84.125C171.721 83.6417 171.596 83.1 171.596 82.5C171.596 81.8833 171.78 81.2917 172.146 80.725C172.513 80.1417 173.046 79.6667 173.746 79.3C174.463 78.9333 175.355 78.75 176.421 78.75C177.288 78.75 178.03 78.8583 178.646 79.075C179.263 79.2917 179.771 79.5667 180.171 79.9C180.571 80.2167 180.871 80.5333 181.071 80.85C181.271 81.1667 181.38 81.4333 181.396 81.65C181.413 81.8167 181.363 81.9583 181.246 82.075C181.13 82.175 180.996 82.225 180.846 82.225H179.796C179.68 82.225 179.58 82.2 179.496 82.15C179.43 82.1 179.363 82.0417 179.296 81.975C179.13 81.7583 178.93 81.5417 178.696 81.325C178.48 81.1083 178.188 80.9333 177.821 80.8C177.471 80.65 177.005 80.575 176.421 80.575C175.588 80.575 174.963 80.75 174.546 81.1C174.13 81.45 173.921 81.8917 173.921 82.425C173.921 82.7417 174.013 83.025 174.196 83.275C174.38 83.525 174.73 83.75 175.246 83.95C175.763 84.15 176.53 84.3667 177.546 84.6C178.646 84.8167 179.513 85.1083 180.146 85.475C180.78 85.8417 181.23 86.2667 181.496 86.75C181.763 87.2333 181.896 87.7917 181.896 88.425C181.896 89.125 181.688 89.7667 181.271 90.35C180.871 90.9333 180.271 91.4 179.471 91.75C178.688 92.0833 177.713 92.25 176.546 92.25ZM189.29 92.25C188.357 92.25 187.557 92.1333 186.89 91.9C186.224 91.6667 185.682 91.3833 185.265 91.05C184.849 90.7167 184.532 90.3833 184.315 90.05C184.115 89.7167 184.007 89.45 183.99 89.25C183.974 89.0667 184.032 88.925 184.165 88.825C184.299 88.725 184.432 88.675 184.565 88.675H185.665C185.765 88.675 185.84 88.6917 185.89 88.725C185.957 88.7417 186.04 88.8083 186.14 88.925C186.357 89.1583 186.599 89.3917 186.865 89.625C187.132 89.8583 187.457 90.05 187.84 90.2C188.24 90.35 188.732 90.425 189.315 90.425C190.165 90.425 190.865 90.2667 191.415 89.95C191.965 89.6167 192.24 89.1333 192.24 88.5C192.24 88.0833 192.124 87.75 191.89 87.5C191.674 87.25 191.274 87.025 190.69 86.825C190.124 86.625 189.34 86.4167 188.34 86.2C187.34 85.9667 186.549 85.6833 185.965 85.35C185.382 85 184.965 84.5917 184.715 84.125C184.465 83.6417 184.34 83.1 184.34 82.5C184.34 81.8833 184.524 81.2917 184.89 80.725C185.257 80.1417 185.79 79.6667 186.49 79.3C187.207 78.9333 188.099 78.75 189.165 78.75C190.032 78.75 190.774 78.8583 191.39 79.075C192.007 79.2917 192.515 79.5667 192.915 79.9C193.315 80.2167 193.615 80.5333 193.815 80.85C194.015 81.1667 194.124 81.4333 194.14 81.65C194.157 81.8167 194.107 81.9583 193.99 82.075C193.874 82.175 193.74 82.225 193.59 82.225H192.54C192.424 82.225 192.324 82.2 192.24 82.15C192.174 82.1 192.107 82.0417 192.04 81.975C191.874 81.7583 191.674 81.5417 191.44 81.325C191.224 81.1083 190.932 80.9333 190.565 80.8C190.215 80.65 189.749 80.575 189.165 80.575C188.332 80.575 187.707 80.75 187.29 81.1C186.874 81.45 186.665 81.8917 186.665 82.425C186.665 82.7417 186.757 83.025 186.94 83.275C187.124 83.525 187.474 83.75 187.99 83.95C188.507 84.15 189.274 84.3667 190.29 84.6C191.39 84.8167 192.257 85.1083 192.89 85.475C193.524 85.8417 193.974 86.2667 194.24 86.75C194.507 87.2333 194.64 87.7917 194.64 88.425C194.64 89.125 194.432 89.7667 194.015 90.35C193.615 90.9333 193.015 91.4 192.215 91.75C191.432 92.0833 190.457 92.25 189.29 92.25ZM210.088 92.25C209.088 92.25 208.254 92.075 207.588 91.725C206.921 91.3583 206.388 90.9083 205.988 90.375V91.425C205.988 91.5917 205.929 91.7333 205.813 91.85C205.713 91.95 205.579 92 205.413 92H204.263C204.096 92 203.954 91.95 203.838 91.85C203.738 91.7333 203.688 91.5917 203.688 91.425V74.825C203.688 74.6583 203.738 74.525 203.838 74.425C203.954 74.3083 204.096 74.25 204.263 74.25H205.463C205.646 74.25 205.788 74.3083 205.888 74.425C205.988 74.525 206.038 74.6583 206.038 74.825V80.575C206.454 80.0583 206.988 79.625 207.638 79.275C208.304 78.925 209.121 78.75 210.088 78.75C211.021 78.75 211.813 78.9167 212.463 79.25C213.129 79.5667 213.671 80.0083 214.088 80.575C214.521 81.1417 214.846 81.7833 215.063 82.5C215.279 83.2167 215.396 83.9667 215.413 84.75C215.429 85.0167 215.438 85.2667 215.438 85.5C215.438 85.7333 215.429 85.9833 215.413 86.25C215.396 87.05 215.279 87.8083 215.063 88.525C214.846 89.2417 214.521 89.8833 214.088 90.45C213.671 91 213.129 91.4417 212.463 91.775C211.813 92.0917 211.021 92.25 210.088 92.25ZM209.563 90.225C210.429 90.225 211.104 90.0417 211.588 89.675C212.088 89.2917 212.446 88.8 212.663 88.2C212.879 87.5833 213.004 86.925 213.038 86.225C213.054 85.7417 213.054 85.2583 213.038 84.775C213.004 84.075 212.879 83.425 212.663 82.825C212.446 82.2083 212.088 81.7167 211.588 81.35C211.104 80.9667 210.429 80.775 209.563 80.775C208.779 80.775 208.129 80.9583 207.613 81.325C207.096 81.6917 206.704 82.1583 206.438 82.725C206.188 83.2917 206.054 83.8667 206.038 84.45C206.021 84.7167 206.013 85.0417 206.013 85.425C206.013 85.7917 206.021 86.1083 206.038 86.375C206.071 86.9917 206.204 87.6 206.438 88.2C206.688 88.7833 207.063 89.2667 207.563 89.65C208.079 90.0333 208.746 90.225 209.563 90.225ZM223.856 92.25C222.589 92.25 221.531 92.0083 220.681 91.525C219.831 91.0417 219.181 90.375 218.731 89.525C218.281 88.6583 218.031 87.675 217.981 86.575C217.964 86.2917 217.956 85.9333 217.956 85.5C217.956 85.05 217.964 84.6917 217.981 84.425C218.031 83.3083 218.281 82.325 218.731 81.475C219.197 80.625 219.856 79.9583 220.706 79.475C221.556 78.9917 222.606 78.75 223.856 78.75C225.106 78.75 226.156 78.9917 227.006 79.475C227.856 79.9583 228.506 80.625 228.956 81.475C229.422 82.325 229.681 83.3083 229.731 84.425C229.747 84.6917 229.756 85.05 229.756 85.5C229.756 85.9333 229.747 86.2917 229.731 86.575C229.681 87.675 229.431 88.6583 228.981 89.525C228.531 90.375 227.881 91.0417 227.031 91.525C226.181 92.0083 225.122 92.25 223.856 92.25ZM223.856 90.325C224.889 90.325 225.714 90 226.331 89.35C226.947 88.6833 227.281 87.7167 227.331 86.45C227.347 86.2 227.356 85.8833 227.356 85.5C227.356 85.1167 227.347 84.8 227.331 84.55C227.281 83.2833 226.947 82.325 226.331 81.675C225.714 81.0083 224.889 80.675 223.856 80.675C222.822 80.675 221.989 81.0083 221.356 81.675C220.739 82.325 220.414 83.2833 220.381 84.55C220.364 84.8 220.356 85.1167 220.356 85.5C220.356 85.8833 220.364 86.2 220.381 86.45C220.414 87.7167 220.739 88.6833 221.356 89.35C221.989 90 222.822 90.325 223.856 90.325ZM233.461 92C233.294 92 233.153 91.95 233.036 91.85C232.936 91.7333 232.886 91.5917 232.886 91.425V79.6C232.886 79.4333 232.936 79.2917 233.036 79.175C233.153 79.0583 233.294 79 233.461 79H234.611C234.778 79 234.919 79.0583 235.036 79.175C235.153 79.2917 235.211 79.4333 235.211 79.6V80.7C235.544 80.1333 236.003 79.7083 236.586 79.425C237.169 79.1417 237.869 79 238.686 79H239.686C239.853 79 239.986 79.0583 240.086 79.175C240.186 79.275 240.236 79.4083 240.236 79.575V80.6C240.236 80.7667 240.186 80.9 240.086 81C239.986 81.1 239.853 81.15 239.686 81.15H238.186C237.286 81.15 236.578 81.4167 236.061 81.95C235.544 82.4667 235.286 83.175 235.286 84.075V91.425C235.286 91.5917 235.228 91.7333 235.111 91.85C234.994 91.95 234.853 92 234.686 92H233.461ZM246.865 92.25C245.948 92.25 245.156 92.0917 244.49 91.775C243.823 91.4417 243.273 91 242.84 90.45C242.423 89.8833 242.106 89.2417 241.89 88.525C241.69 87.8083 241.573 87.05 241.54 86.25C241.523 85.9833 241.515 85.7333 241.515 85.5C241.515 85.2667 241.523 85.0167 241.54 84.75C241.573 83.9667 241.69 83.2167 241.89 82.5C242.106 81.7833 242.423 81.1417 242.84 80.575C243.273 80.0083 243.823 79.5667 244.49 79.25C245.156 78.9167 245.948 78.75 246.865 78.75C247.848 78.75 248.665 78.925 249.315 79.275C249.965 79.625 250.498 80.0583 250.915 80.575V74.825C250.915 74.6583 250.965 74.525 251.065 74.425C251.181 74.3083 251.323 74.25 251.49 74.25H252.69C252.856 74.25 252.99 74.3083 253.09 74.425C253.206 74.525 253.265 74.6583 253.265 74.825V91.425C253.265 91.5917 253.206 91.7333 253.09 91.85C252.99 91.95 252.856 92 252.69 92H251.565C251.381 92 251.24 91.95 251.14 91.85C251.04 91.7333 250.99 91.5917 250.99 91.425V90.375C250.573 90.9083 250.031 91.3583 249.365 91.725C248.698 92.075 247.865 92.25 246.865 92.25ZM247.39 90.225C248.223 90.225 248.89 90.0333 249.39 89.65C249.89 89.2667 250.265 88.7833 250.515 88.2C250.765 87.6 250.898 86.9917 250.915 86.375C250.931 86.1083 250.94 85.7917 250.94 85.425C250.94 85.0417 250.931 84.7167 250.915 84.45C250.898 83.8667 250.756 83.2917 250.49 82.725C250.24 82.1583 249.856 81.6917 249.34 81.325C248.84 80.9583 248.19 80.775 247.39 80.775C246.54 80.775 245.865 80.9667 245.365 81.35C244.865 81.7167 244.506 82.2083 244.29 82.825C244.073 83.425 243.948 84.075 243.915 84.775C243.898 85.2583 243.898 85.7417 243.915 86.225C243.948 86.925 244.073 87.5833 244.29 88.2C244.506 88.8 244.865 89.2917 245.365 89.675C245.865 90.0417 246.54 90.225 247.39 90.225ZM262.158 92.25C260.441 92.25 259.074 91.725 258.058 90.675C257.041 89.6083 256.483 88.1583 256.383 86.325C256.366 86.1083 256.358 85.8333 256.358 85.5C256.358 85.15 256.366 84.8667 256.383 84.65C256.449 83.4667 256.724 82.4333 257.208 81.55C257.691 80.65 258.349 79.9583 259.183 79.475C260.033 78.9917 261.024 78.75 262.158 78.75C263.424 78.75 264.483 79.0167 265.333 79.55C266.199 80.0833 266.858 80.8417 267.308 81.825C267.758 82.8083 267.983 83.9583 267.983 85.275V85.7C267.983 85.8833 267.924 86.025 267.808 86.125C267.708 86.225 267.574 86.275 267.408 86.275H258.758C258.758 86.2917 258.758 86.325 258.758 86.375C258.758 86.425 258.758 86.4667 258.758 86.5C258.791 87.1833 258.941 87.825 259.208 88.425C259.474 89.0083 259.858 89.4833 260.358 89.85C260.858 90.2167 261.458 90.4 262.158 90.4C262.758 90.4 263.258 90.3083 263.658 90.125C264.058 89.9417 264.383 89.7417 264.633 89.525C264.883 89.2917 265.049 89.1167 265.133 89C265.283 88.7833 265.399 88.6583 265.483 88.625C265.566 88.575 265.699 88.55 265.883 88.55H267.083C267.249 88.55 267.383 88.6 267.483 88.7C267.599 88.7833 267.649 88.9083 267.633 89.075C267.616 89.325 267.483 89.6333 267.233 90C266.983 90.35 266.624 90.7 266.158 91.05C265.691 91.4 265.124 91.6917 264.458 91.925C263.791 92.1417 263.024 92.25 262.158 92.25ZM258.758 84.55H265.608V84.475C265.608 83.725 265.466 83.0583 265.183 82.475C264.916 81.8917 264.524 81.4333 264.008 81.1C263.491 80.75 262.874 80.575 262.158 80.575C261.441 80.575 260.824 80.75 260.308 81.1C259.808 81.4333 259.424 81.8917 259.158 82.475C258.891 83.0583 258.758 83.725 258.758 84.475V84.55ZM271.547 92C271.38 92 271.239 91.95 271.122 91.85C271.022 91.7333 270.972 91.5917 270.972 91.425V79.6C270.972 79.4333 271.022 79.2917 271.122 79.175C271.239 79.0583 271.38 79 271.547 79H272.697C272.864 79 273.005 79.0583 273.122 79.175C273.239 79.2917 273.297 79.4333 273.297 79.6V80.7C273.63 80.1333 274.089 79.7083 274.672 79.425C275.255 79.1417 275.955 79 276.772 79H277.772C277.939 79 278.072 79.0583 278.172 79.175C278.272 79.275 278.322 79.4083 278.322 79.575V80.6C278.322 80.7667 278.272 80.9 278.172 81C278.072 81.1 277.939 81.15 277.772 81.15H276.272C275.372 81.15 274.664 81.4167 274.147 81.95C273.63 82.4667 273.372 83.175 273.372 84.075V91.425C273.372 91.5917 273.314 91.7333 273.197 91.85C273.08 91.95 272.939 92 272.772 92H271.547ZM284.969 92.25C284.036 92.25 283.236 92.1333 282.569 91.9C281.902 91.6667 281.361 91.3833 280.944 91.05C280.527 90.7167 280.211 90.3833 279.994 90.05C279.794 89.7167 279.686 89.45 279.669 89.25C279.652 89.0667 279.711 88.925 279.844 88.825C279.977 88.725 280.111 88.675 280.244 88.675H281.344C281.444 88.675 281.519 88.6917 281.569 88.725C281.636 88.7417 281.719 88.8083 281.819 88.925C282.036 89.1583 282.277 89.3917 282.544 89.625C282.811 89.8583 283.136 90.05 283.519 90.2C283.919 90.35 284.411 90.425 284.994 90.425C285.844 90.425 286.544 90.2667 287.094 89.95C287.644 89.6167 287.919 89.1333 287.919 88.5C287.919 88.0833 287.802 87.75 287.569 87.5C287.352 87.25 286.952 87.025 286.369 86.825C285.802 86.625 285.019 86.4167 284.019 86.2C283.019 85.9667 282.227 85.6833 281.644 85.35C281.061 85 280.644 84.5917 280.394 84.125C280.144 83.6417 280.019 83.1 280.019 82.5C280.019 81.8833 280.202 81.2917 280.569 80.725C280.936 80.1417 281.469 79.6667 282.169 79.3C282.886 78.9333 283.777 78.75 284.844 78.75C285.711 78.75 286.452 78.8583 287.069 79.075C287.686 79.2917 288.194 79.5667 288.594 79.9C288.994 80.2167 289.294 80.5333 289.494 80.85C289.694 81.1667 289.802 81.4333 289.819 81.65C289.836 81.8167 289.786 81.9583 289.669 82.075C289.552 82.175 289.419 82.225 289.269 82.225H288.219C288.102 82.225 288.002 82.2 287.919 82.15C287.852 82.1 287.786 82.0417 287.719 81.975C287.552 81.7583 287.352 81.5417 287.119 81.325C286.902 81.1083 286.611 80.9333 286.244 80.8C285.894 80.65 285.427 80.575 284.844 80.575C284.011 80.575 283.386 80.75 282.969 81.1C282.552 81.45 282.344 81.8917 282.344 82.425C282.344 82.7417 282.436 83.025 282.619 83.275C282.802 83.525 283.152 83.75 283.669 83.95C284.186 84.15 284.952 84.3667 285.969 84.6C287.069 84.8167 287.936 85.1083 288.569 85.475C289.202 85.8417 289.652 86.2667 289.919 86.75C290.186 87.2333 290.319 87.7917 290.319 88.425C290.319 89.125 290.111 89.7667 289.694 90.35C289.294 90.9333 288.694 91.4 287.894 91.75C287.111 92.0833 286.136 92.25 284.969 92.25Z" fill="#1C1F35"/>
<path d="M97.5 72C97.5 89.9565 83.1659 104.5 65.5 104.5C47.8341 104.5 33.5 89.9565 33.5 72C33.5 54.0435 47.8341 39.5 65.5 39.5C83.1659 39.5 97.5 54.0435 97.5 72Z" fill="#FFE6A5" stroke="#1C1F35"/>
<path d="M81.5 43.5C81.5 50.6627 75.4731 56.5 68 56.5C60.5269 56.5 54.5 50.6627 54.5 43.5C54.5 36.3373 60.5269 30.5 68 30.5C75.4731 30.5 81.5 36.3373 81.5 43.5Z" fill="#FFE6A5" stroke="#1C1F35"/>
<path d="M93.5 96.5C93.5 103.663 87.4731 109.5 80 109.5C72.5269 109.5 66.5 103.663 66.5 96.5C66.5 89.3373 72.5269 83.5 80 83.5C87.4731 83.5 93.5 89.3373 93.5 96.5Z" fill="#FFE6A5" stroke="#1C1F35"/>
<path d="M68.026 50.9304C72.012 50.9304 75.2434 47.6991 75.2434 43.713C75.2434 39.7269 72.012 36.4956 68.026 36.4956C64.0399 36.4956 60.8086 39.7269 60.8086 43.713C60.8086 47.6991 64.0399 50.9304 68.026 50.9304Z" stroke="#1C1F35" stroke-linecap="round" stroke-linejoin="round"/>
<path d="M61.3638 41.4923H74.6882" stroke="#1C1F35" stroke-linecap="round" stroke-linejoin="round"/>
<path d="M61.3638 45.9337H74.6882" stroke="#1C1F35" stroke-linecap="round" stroke-linejoin="round"/>
<path d="M68.0259 50.3752C69.559 50.3752 70.8018 47.3924 70.8018 43.713C70.8018 40.0336 69.559 37.0508 68.0259 37.0508C66.4928 37.0508 65.25 40.0336 65.25 43.713C65.25 47.3924 66.4928 50.3752 68.0259 50.3752Z" stroke="#1C1F35" stroke-linecap="round" stroke-linejoin="round"/>
<path d="M77.0132 77.3867L88.4295 70.4743" stroke="#1C1F35" stroke-linecap="round" stroke-linejoin="round"/>
<path d="M75.145 78.3809L69.9804 81.3627" stroke="#1C1F35" stroke-linecap="round" stroke-linejoin="round"/>
<path d="M42.5204 76.9932L50.2363 84.2267C51.2651 85.1923 52.5778 85.7997 53.979 85.9584C55.3803 86.1172 56.7953 85.8188 58.0136 85.1078L89 67.0752L85.1932 62.4032C84.2029 61.1923 82.8128 60.3759 81.2739 60.1015C79.7349 59.8272 78.1488 60.113 76.8019 60.9073L67.7147 66.2556L55.4348 62.1573L52.0578 63.6122C51.8052 63.7206 51.5838 63.8909 51.4142 64.1075C51.2446 64.3241 51.1322 64.5799 51.0874 64.8514C51.0425 65.1229 51.0667 65.4014 51.1576 65.6611C51.2485 65.9208 51.4032 66.1535 51.6075 66.3375L57.8908 71.9932L52.1601 75.2719L46.4295 72.8129L42.9911 74.2883C42.7409 74.3959 42.5215 74.5642 42.3527 74.7781C42.1839 74.9919 42.071 75.2446 42.0243 75.5131C41.9776 75.7817 41.9985 76.0576 42.0851 76.3161C42.1717 76.5745 42.3213 76.8072 42.5204 76.9932V76.9932Z" stroke="#1C1F35" stroke-linecap="round" stroke-linejoin="round"/>
<path d="M55.7485 82.6577L67.1649 75.7453" stroke="#1C1F35" stroke-linecap="round" stroke-linejoin="round"/>
<path d="M86.513 100.339V93.6787C86.5125 93.5825 86.4866 93.4881 86.4379 93.4051C86.3892 93.3221 86.3194 93.2533 86.2356 93.2058L80.2813 89.8621C80.201 89.8158 80.11 89.7915 80.0174 89.7915C79.9247 89.7915 79.8337 89.8158 79.7535 89.8621L73.7991 93.2058C73.7153 93.2533 73.6456 93.3221 73.5969 93.4051C73.5482 93.4881 73.5222 93.5825 73.5217 93.6787V100.339C73.5222 100.435 73.5482 100.53 73.5969 100.613C73.6456 100.696 73.7153 100.764 73.7991 100.812L79.7535 104.156C79.8337 104.202 79.9247 104.226 80.0174 104.226C80.11 104.226 80.201 104.202 80.2813 104.156L86.2356 100.812C86.3194 100.764 86.3892 100.696 86.4379 100.613C86.4866 100.53 86.5125 100.435 86.513 100.339V100.339Z" stroke="#1C1F35" stroke-linecap="round" stroke-linejoin="round"/>
<path d="M86.513 93.4002L80.079 97.0089L73.5217 93.4002" stroke="#1C1F35" stroke-linecap="round" stroke-linejoin="round"/>
<path d="M80.0173 97.0089V104.226" stroke="#1C1F35" stroke-linecap="round" stroke-linejoin="round"/>
<defs>
<linearGradient id="paint0_linear_1_1337" x1="-11.8222" y1="30.1166" x2="492.522" y2="137.564" gradientUnits="userSpaceOnUse">
<stop stop-color="#FFB629"/>
<stop offset="0.507189" stop-color="#FFDA56"/>
<stop offset="1" stop-color="#FFD7A6"/>
</linearGradient>
</defs>
</svg>
