<svg xmlns="http://www.w3.org/2000/svg" width="23" height="18" viewBox="0 0 23 18" fill="none">
  <path d="M22.3385 2.58411C21.5302 2.93507 20.675 3.16629 19.7998 3.27047C20.7195 2.73232 21.4112 1.87737 21.745 0.865968C20.8755 1.37405 19.9258 1.73054 18.9366 1.92018C18.52 1.48393 18.019 1.13688 17.4641 0.900127C16.9091 0.663374 16.3118 0.541862 15.7084 0.542976C13.2653 0.542976 11.2883 2.4899 11.2883 4.88991C11.2866 5.22374 11.3248 5.55658 11.4023 5.88132C9.6505 5.79925 7.9351 5.35268 6.36587 4.57017C4.79665 3.78767 3.40816 2.68646 2.28923 1.337C1.89668 1.99829 1.68908 2.7528 1.68813 3.52168C1.68813 5.02898 2.47508 6.36132 3.66338 7.14188C2.95935 7.12519 2.26974 6.93898 1.65311 6.59908V6.65291C1.65311 8.76133 3.17944 10.5154 5.19959 10.9146C4.8197 11.0158 4.42823 11.0671 4.03508 11.0671C3.75611 11.0676 3.47778 11.0406 3.20413 10.9864C3.76573 12.7135 5.40025 13.9696 7.33645 14.0055C5.76315 15.2171 3.83155 15.872 1.84525 15.8672C1.49267 15.8666 1.14043 15.8457 0.790283 15.8044C2.81096 17.0937 5.15983 17.7757 7.55732 17.7692C15.6989 17.7692 20.1469 11.1434 20.1469 5.39683C20.1469 5.20842 20.1419 5.02001 20.1329 4.83608C20.9963 4.22242 21.7431 3.45982 22.3385 2.58411Z" fill="#1C1F35"/>
</svg>