<svg xmlns="http://www.w3.org/2000/svg" width="23" height="23" viewBox="0 0 23 23" fill="none">
  <path d="M20.9609 0.542969L2.80889 0.542969C1.81704 0.542969 0.950439 1.25664 0.950439 2.23684L0.950439 20.4291C0.950439 21.4146 1.81704 22.2929 2.80889 22.2929L20.9555 22.2929C21.9527 22.2929 22.7004 21.4088 22.7004 20.4291L22.7004 2.23684C22.7062 1.25664 21.9527 0.542969 20.9609 0.542969ZM7.69243 18.6726L4.57656 18.6726L4.57656 8.98466L7.69243 8.98466L7.69243 18.6726ZM6.24227 7.51168H6.21994C5.22275 7.51168 4.57704 6.76937 4.57704 5.84014C4.57704 4.89392 5.23974 4.16909 6.25927 4.16909C7.27879 4.16909 7.90265 4.88858 7.92498 5.84014C7.92449 6.76937 7.27879 7.51168 6.24227 7.51168ZM19.0801 18.6726L15.9642 18.6726L15.9642 13.3754C15.9642 12.1064 15.5108 11.2393 14.3834 11.2393C13.5222 11.2393 13.0124 11.8219 12.7857 12.3894C12.7007 12.5933 12.6779 12.871 12.6779 13.1545L12.6779 18.6726L9.56205 18.6726L9.56205 8.98466L12.6779 8.98466L12.6779 10.3329C13.1314 9.68716 13.8397 8.75793 15.4879 8.75793C17.5333 8.75793 19.0806 10.1061 19.0806 13.0128L19.0801 18.6726Z" fill="#1C1F35"/>
</svg>