<svg xmlns="http://www.w3.org/2000/svg" width="24" height="23" viewBox="0 0 24 23" fill="none">
  <path fill-rule="evenodd" clip-rule="evenodd" d="M23.5109 11.3532C23.5109 5.38346 18.343 0.542969 11.9695 0.542969C5.59605 0.542969 0.428223 5.38346 0.428223 11.3532C0.428223 16.7487 4.64802 21.221 10.1662 22.0327L10.1662 14.4791L7.23503 14.4791L7.23503 11.3532L10.1662 11.3532L10.1662 8.97161C10.1662 6.26276 11.8897 4.76525 14.5256 4.76525C15.7885 4.76525 17.1096 4.97663 17.1096 4.97663L17.1096 7.63721L15.6535 7.63721C14.2206 7.63721 13.7724 8.47018 13.7724 9.32632L13.7724 11.3532L16.973 11.3532L16.4619 14.4791L13.7729 14.4791L13.7729 22.0337C19.2911 21.2224 23.5109 16.7502 23.5109 11.3532Z" fill="#1C1F35"/>
</svg>