<svg xmlns="http://www.w3.org/2000/svg" width="23" height="23" viewBox="0 0 23 23" fill="none">
  <path d="M16.4235 2.3341C17.6567 2.33764 18.8384 2.81062 19.7104 3.64974C20.5824 4.48886 21.0739 5.62594 21.0776 6.81263L21.0776 15.7687C21.0739 16.9554 20.5824 18.0925 19.7104 18.9316C18.8384 19.7708 17.6567 20.2437 16.4235 20.2473L7.11628 20.2473C5.88307 20.2437 4.70142 19.7708 3.8294 18.9316C2.95738 18.0925 2.46586 16.9554 2.46218 15.7687L2.46218 6.81263C2.46586 5.62594 2.95738 4.48886 3.8294 3.64974C4.70142 2.81062 5.88307 2.33764 7.11628 2.3341L16.4235 2.3341ZM16.4235 0.542969L7.11628 0.542969C3.53271 0.542969 0.60083 3.36424 0.60083 6.81263L0.60083 15.7687C0.60083 19.2171 3.53271 22.0384 7.11628 22.0384L16.4235 22.0384C20.0071 22.0384 22.939 19.2171 22.939 15.7687L22.939 6.81263C22.939 3.36424 20.0071 0.542969 16.4235 0.542969Z" fill="#1C1F35"/>
  <path d="M17.8196 6.81303C17.5435 6.81303 17.2735 6.73424 17.0439 6.58661C16.8143 6.43899 16.6354 6.22917 16.5297 5.98369C16.4241 5.7382 16.3964 5.46807 16.4503 5.20747C16.5041 4.94686 16.6371 4.70748 16.8324 4.51959C17.0276 4.3317 17.2764 4.20375 17.5472 4.15191C17.818 4.10008 18.0987 4.12668 18.3539 4.22836C18.609 4.33005 18.827 4.50224 18.9804 4.72317C19.1338 4.94411 19.2157 5.20385 19.2157 5.46956C19.2161 5.6461 19.1803 5.82097 19.1102 5.98413C19.0402 6.1473 18.9374 6.29556 18.8077 6.42038C18.678 6.54521 18.5239 6.64415 18.3543 6.71154C18.1848 6.77892 18.003 6.81341 17.8196 6.81303ZM11.7698 7.70835C12.5062 7.70835 13.2261 7.91847 13.8383 8.31215C14.4506 8.70583 14.9278 9.26537 15.2096 9.92003C15.4914 10.5747 15.5651 11.2951 15.4215 11.99C15.2778 12.685 14.9232 13.3234 14.4025 13.8245C13.8818 14.3255 13.2184 14.6667 12.4962 14.805C11.774 14.9432 11.0254 14.8723 10.345 14.6011C9.66471 14.3299 9.08323 13.8707 8.67412 13.2815C8.26501 12.6924 8.04665 11.9997 8.04665 11.2911C8.04771 10.3412 8.44031 9.4305 9.13831 8.75883C9.83632 8.08716 10.7827 7.70937 11.7698 7.70835ZM11.7698 5.91723C10.6653 5.91723 9.58561 6.2324 8.66724 6.82288C7.74887 7.41337 7.03308 8.25265 6.6104 9.2346C6.18772 10.2165 6.07713 11.297 6.29261 12.3395C6.50809 13.3819 7.03997 14.3394 7.82098 15.091C8.60199 15.8425 9.59706 16.3543 10.6803 16.5617C11.7636 16.769 12.8865 16.6626 13.9069 16.2559C14.9274 15.8491 15.7996 15.1604 16.4132 14.2766C17.0268 13.3929 17.3544 12.3539 17.3544 11.2911C17.3544 9.86585 16.766 8.49899 15.7187 7.49119C14.6714 6.4834 13.2509 5.91723 11.7698 5.91723Z" fill="#1C1F35"/>
</svg>