<svg width="185" height="63" viewBox="0 0 185 63" fill="none" xmlns="http://www.w3.org/2000/svg">
<circle cx="32" cy="31.5" r="31" fill="#111C55" stroke="#273270"/>
<path d="M24.4741 22.1408C24.3394 22.1449 24.2071 22.1743 24.0848 22.2272C23.9625 22.28 23.8528 22.3554 23.7622 22.4487C23.6715 22.542 23.6018 22.6514 23.5571 22.7704C23.5124 22.8894 23.4936 23.0156 23.5019 23.1416C23.6364 25.3015 24.2704 30.5716 27.3059 33.8583C30.9409 37.8181 35.6748 39.1824 40.5317 38.9808C40.792 38.9662 41.0368 38.8596 41.2165 38.6826C41.3962 38.5055 41.4975 38.2712 41.5 38.0268V34.5674C41.497 34.2446 41.3783 33.9322 41.163 33.6802C40.9476 33.4282 40.6482 33.2513 40.3127 33.1779L37.8804 32.6739C37.5796 32.6138 37.2664 32.6397 36.9815 32.7481C36.6965 32.8566 36.4528 33.0427 36.2819 33.2823L35.744 34.0454C35.6946 34.1153 35.6208 34.1668 35.5352 34.1911C35.4496 34.2154 35.3577 34.211 35.2752 34.1786C34.0379 33.6783 29.1081 31.5184 28.5663 27.8753C28.5557 27.805 28.5675 27.7333 28.6003 27.6692C28.6332 27.6051 28.6855 27.5516 28.7507 27.5154L29.7267 26.9574C29.9944 26.802 30.2047 26.5732 30.3291 26.3022C30.4535 26.0311 30.486 25.7308 30.4222 25.4419L29.8881 23.1236C29.81 22.7988 29.6142 22.5093 29.3339 22.3045C29.0537 22.0998 28.7064 21.9923 28.3511 22.0004L24.4741 22.1408Z" stroke="#F6B426"/>
<path d="M82.568 26.64C81.1773 26.64 80.104 26.206 79.348 25.338C78.6013 24.4607 78.228 23.2147 78.228 21.6C78.228 19.9947 78.606 18.7533 79.362 17.876C80.118 16.9987 81.1867 16.56 82.568 16.56C83.128 16.56 83.6507 16.658 84.136 16.854C84.6307 17.0407 85.046 17.3067 85.382 17.652C85.326 17.8667 85.2327 18.0487 85.102 18.198C84.9713 18.3473 84.836 18.422 84.696 18.422C84.5653 18.422 84.444 18.38 84.332 18.296C84.052 18.0813 83.7673 17.9273 83.478 17.834C83.198 17.7313 82.8853 17.68 82.54 17.68C81.588 17.68 80.8693 18.0113 80.384 18.674C79.8987 19.3273 79.656 20.3027 79.656 21.6C79.656 22.8787 79.8987 23.8493 80.384 24.512C80.8787 25.1747 81.5973 25.506 82.54 25.506C82.9693 25.506 83.366 25.4407 83.73 25.31C84.094 25.17 84.4393 24.9553 84.766 24.666C84.9153 24.7033 85.0413 24.7827 85.144 24.904C85.2467 25.0253 85.298 25.1607 85.298 25.31C85.298 25.5433 85.172 25.7627 84.92 25.968C84.668 26.164 84.3273 26.3273 83.898 26.458C83.478 26.5793 83.0347 26.64 82.568 26.64ZM92.8353 24.26C92.8353 24.8013 92.8679 25.212 92.9333 25.492C93.0079 25.772 93.1339 26.0147 93.3113 26.22C93.1806 26.3227 93.0219 26.4113 92.8353 26.486C92.6486 26.5513 92.4759 26.584 92.3173 26.584C91.8879 26.584 91.6313 26.2013 91.5473 25.436C91.2673 25.8187 90.9079 26.1173 90.4693 26.332C90.0399 26.5373 89.5546 26.64 89.0133 26.64C88.3133 26.64 87.7486 26.458 87.3193 26.094C86.8993 25.73 86.6893 25.2447 86.6893 24.638C86.6893 22.9207 88.2946 21.9827 91.5053 21.824V21.278C91.5053 20.7367 91.3699 20.3353 91.0993 20.074C90.8286 19.8127 90.4086 19.682 89.8393 19.682C89.4659 19.682 89.1159 19.7567 88.7893 19.906C88.4626 20.0553 88.0893 20.3167 87.6693 20.69C87.6039 20.7367 87.5433 20.76 87.4873 20.76C87.3659 20.76 87.2353 20.6993 87.0953 20.578C86.9553 20.4473 86.8246 20.27 86.7033 20.046C87.0953 19.6073 87.5806 19.2667 88.1593 19.024C88.7379 18.7813 89.3399 18.66 89.9653 18.66C90.8613 18.66 91.5613 18.8933 92.0653 19.36C92.5786 19.8173 92.8353 20.4567 92.8353 21.278V24.26ZM89.3073 25.674C89.7366 25.674 90.1379 25.548 90.5113 25.296C90.8846 25.0347 91.2159 24.666 91.5053 24.19V22.692C89.1906 22.7947 88.0333 23.4153 88.0333 24.554C88.0333 24.918 88.1406 25.198 88.3553 25.394C88.5793 25.5807 88.8966 25.674 89.3073 25.674ZM95.0969 15.426H96.4129V26.5H95.0969V15.426ZM98.843 15.426H100.159V26.5H98.843V15.426ZM109.964 26.64C108.686 26.64 107.729 26.3367 107.094 25.73C106.46 25.1233 106.142 24.2087 106.142 22.986V16.7H107.528V23.182C107.528 23.9847 107.729 24.582 108.13 24.974C108.532 25.3567 109.143 25.548 109.964 25.548C110.795 25.548 111.406 25.3567 111.798 24.974C112.19 24.5913 112.386 23.994 112.386 23.182V16.7H113.772V22.986C113.772 24.2367 113.46 25.1607 112.834 25.758C112.218 26.346 111.262 26.64 109.964 26.64ZM118.336 26.64C117.851 26.64 117.384 26.57 116.936 26.43C116.488 26.29 116.124 26.108 115.844 25.884C115.574 25.6507 115.438 25.3987 115.438 25.128C115.438 24.96 115.494 24.8153 115.606 24.694C115.728 24.5633 115.882 24.484 116.068 24.456C116.358 24.876 116.684 25.184 117.048 25.38C117.412 25.576 117.86 25.674 118.392 25.674C118.924 25.674 119.326 25.5573 119.596 25.324C119.867 25.0813 120.002 24.764 120.002 24.372C120.002 24.12 119.918 23.9147 119.75 23.756C119.592 23.588 119.386 23.4573 119.134 23.364C118.892 23.2613 118.56 23.154 118.14 23.042C117.59 22.8927 117.146 22.748 116.81 22.608C116.484 22.4587 116.199 22.244 115.956 21.964C115.723 21.6747 115.606 21.2967 115.606 20.83C115.606 20.3633 115.737 19.9667 115.998 19.64C116.26 19.3133 116.596 19.0707 117.006 18.912C117.417 18.744 117.846 18.66 118.294 18.66C118.92 18.66 119.475 18.786 119.96 19.038C120.455 19.2807 120.838 19.6213 121.108 20.06C120.996 20.2187 120.875 20.3447 120.744 20.438C120.614 20.5313 120.492 20.578 120.38 20.578C120.24 20.578 120.114 20.5127 120.002 20.382C119.554 19.8593 118.98 19.598 118.28 19.598C117.851 19.598 117.51 19.696 117.258 19.892C117.006 20.088 116.88 20.3867 116.88 20.788C116.88 21.04 116.96 21.2453 117.118 21.404C117.277 21.5533 117.478 21.6747 117.72 21.768C117.963 21.852 118.29 21.9453 118.7 22.048C119.26 22.1973 119.708 22.342 120.044 22.482C120.38 22.622 120.67 22.8413 120.912 23.14C121.155 23.4387 121.276 23.8353 121.276 24.33C121.276 25.0487 121.01 25.6133 120.478 26.024C119.956 26.4347 119.242 26.64 118.336 26.64ZM80.776 46.886C80.048 45.9247 79.4973 44.856 79.124 43.68C78.76 42.504 78.578 41.3373 78.578 40.18C78.578 39.032 78.76 37.8747 79.124 36.708C79.4973 35.532 80.048 34.4633 80.776 33.502H81.952C81.2707 34.5193 80.762 35.5927 80.426 36.722C80.0993 37.8513 79.936 39.004 79.936 40.18C79.936 42.6533 80.608 44.8887 81.952 46.886H80.776ZM87.2951 45.668C86.0631 45.668 85.1297 45.2433 84.4951 44.394C83.8697 43.5353 83.5571 42.3267 83.5571 40.768C83.5571 39.1067 83.8697 37.8233 84.4951 36.918C85.1297 36.0127 86.0631 35.56 87.2951 35.56C88.5271 35.56 89.4557 36.0127 90.0811 36.918C90.7157 37.8233 91.0331 39.1067 91.0331 40.768C91.0331 42.3267 90.7157 43.5353 90.0811 44.394C89.4557 45.2433 88.5271 45.668 87.2951 45.668ZM87.2951 44.618C88.1164 44.618 88.7231 44.282 89.1151 43.61C89.5071 42.938 89.7031 41.9907 89.7031 40.768C89.7031 39.4333 89.5071 38.4067 89.1151 37.688C88.7231 36.9693 88.1164 36.61 87.2951 36.61C85.6897 36.61 84.8871 37.996 84.8871 40.768C84.8871 43.3347 85.6897 44.618 87.2951 44.618ZM95.9767 45.668C94.7447 45.668 93.8114 45.2433 93.1767 44.394C92.5514 43.5353 92.2387 42.3267 92.2387 40.768C92.2387 39.1067 92.5514 37.8233 93.1767 36.918C93.8114 36.0127 94.7447 35.56 95.9767 35.56C97.2087 35.56 98.1374 36.0127 98.7627 36.918C99.3974 37.8233 99.7147 39.1067 99.7147 40.768C99.7147 42.3267 99.3974 43.5353 98.7627 44.394C98.1374 45.2433 97.2087 45.668 95.9767 45.668ZM95.9767 44.618C96.7981 44.618 97.4047 44.282 97.7967 43.61C98.1887 42.938 98.3847 41.9907 98.3847 40.768C98.3847 39.4333 98.1887 38.4067 97.7967 37.688C97.4047 36.9693 96.7981 36.61 95.9767 36.61C94.3714 36.61 93.5687 37.996 93.5687 40.768C93.5687 43.3347 94.3714 44.618 95.9767 44.618ZM101.326 46.886C102.67 44.8887 103.342 42.6533 103.342 40.18C103.342 39.004 103.174 37.8513 102.838 36.722C102.512 35.5927 102.008 34.5193 101.326 33.502H102.502C103.23 34.4633 103.776 35.532 104.14 36.708C104.514 37.8747 104.7 39.032 104.7 40.18C104.7 41.3373 104.514 42.504 104.14 43.68C103.776 44.856 103.23 45.9247 102.502 46.886H101.326ZM114.913 44.548V45.5H110.293V44.548H112.001V37.268C111.767 37.4453 111.515 37.5993 111.245 37.73C110.974 37.8513 110.727 37.912 110.503 37.912C110.297 37.912 110.134 37.856 110.013 37.744C109.891 37.632 109.831 37.478 109.831 37.282C109.831 37.142 109.854 37.0253 109.901 36.932C110.293 36.8947 110.727 36.7687 111.203 36.554C111.679 36.3393 112.099 36.0547 112.463 35.7H113.275V44.548H114.913ZM121.339 44.548V45.5H116.719V44.548H118.427V37.268C118.193 37.4453 117.941 37.5993 117.671 37.73C117.4 37.8513 117.153 37.912 116.929 37.912C116.723 37.912 116.56 37.856 116.439 37.744C116.317 37.632 116.257 37.478 116.257 37.282C116.257 37.142 116.28 37.0253 116.327 36.932C116.719 36.8947 117.153 36.7687 117.629 36.554C118.105 36.3393 118.525 36.0547 118.889 35.7H119.701V44.548H121.339ZM129.08 38.668C129.08 39.6013 128.726 40.53 128.016 41.454C127.307 42.3687 126.257 43.3813 124.866 44.492H128.968V45.5H122.962V44.814C124.176 43.8247 125.123 42.9847 125.804 42.294C126.495 41.6033 126.999 40.964 127.316 40.376C127.643 39.7787 127.806 39.172 127.806 38.556C127.806 37.968 127.652 37.5107 127.344 37.184C127.036 36.8573 126.598 36.694 126.028 36.694C124.824 36.694 124.152 37.422 124.012 38.878C123.63 38.878 123.359 38.8173 123.2 38.696C123.051 38.5747 122.976 38.374 122.976 38.094C122.976 37.674 123.098 37.282 123.34 36.918C123.592 36.5447 123.947 36.2507 124.404 36.036C124.871 35.812 125.412 35.7 126.028 35.7C126.971 35.7 127.713 35.952 128.254 36.456C128.805 36.9507 129.08 37.688 129.08 38.668ZM138.585 40.446C139.071 40.5673 139.477 40.8053 139.803 41.16C140.13 41.5053 140.293 42.0187 140.293 42.7C140.293 43.6053 139.981 44.3193 139.355 44.842C138.739 45.3647 137.909 45.626 136.863 45.626C136.229 45.626 135.669 45.5513 135.183 45.402C134.707 45.2527 134.339 45.0567 134.077 44.814C133.816 44.562 133.685 44.2913 133.685 44.002C133.685 43.778 133.76 43.6007 133.909 43.47C134.059 43.33 134.231 43.26 134.427 43.26C134.698 43.6987 135.015 44.0347 135.379 44.268C135.753 44.5013 136.261 44.618 136.905 44.618C137.577 44.618 138.095 44.45 138.459 44.114C138.823 43.7687 139.005 43.302 139.005 42.714C139.005 42.126 138.842 41.6873 138.515 41.398C138.189 41.0993 137.75 40.95 137.199 40.95L136.751 40.964C136.546 40.9827 136.383 40.992 136.261 40.992C136.103 40.992 135.963 40.908 135.841 40.74C135.729 40.5627 135.673 40.3947 135.673 40.236C135.673 40.0867 135.725 40.012 135.827 40.012H136.975C137.545 40.012 137.979 39.8627 138.277 39.564C138.585 39.2653 138.739 38.8127 138.739 38.206C138.739 37.73 138.585 37.3613 138.277 37.1C137.969 36.8293 137.517 36.694 136.919 36.694C136.397 36.694 135.972 36.8247 135.645 37.086C135.328 37.338 135.048 37.7113 134.805 38.206C134.535 38.206 134.32 38.1453 134.161 38.024C134.012 37.8933 133.937 37.716 133.937 37.492C133.937 37.24 134.063 36.974 134.315 36.694C134.567 36.414 134.922 36.1807 135.379 35.994C135.846 35.798 136.369 35.7 136.947 35.7C137.89 35.7 138.637 35.9193 139.187 36.358C139.747 36.7873 140.027 37.4033 140.027 38.206C140.027 38.7847 139.892 39.2607 139.621 39.634C139.351 40.0073 139.005 40.278 138.585 40.446ZM145.247 39.214C145.835 39.214 146.362 39.34 146.829 39.592C147.305 39.844 147.673 40.2173 147.935 40.712C148.205 41.1973 148.341 41.7853 148.341 42.476C148.341 43.092 148.205 43.638 147.935 44.114C147.673 44.5807 147.295 44.9447 146.801 45.206C146.315 45.4673 145.751 45.598 145.107 45.598C144.379 45.598 143.753 45.4253 143.231 45.08C142.717 44.7253 142.325 44.2493 142.055 43.652C141.793 43.0453 141.663 42.364 141.663 41.608C141.663 40.5253 141.863 39.5267 142.265 38.612C142.675 37.6973 143.226 36.974 143.917 36.442C144.617 35.9007 145.373 35.63 146.185 35.63C146.502 35.63 146.726 35.714 146.857 35.882C146.997 36.0407 147.067 36.2787 147.067 36.596C146.059 36.596 145.214 36.8993 144.533 37.506C143.851 38.1033 143.385 38.9153 143.133 39.942C143.413 39.7273 143.739 39.5547 144.113 39.424C144.486 39.284 144.864 39.214 145.247 39.214ZM145.135 44.59C145.751 44.59 146.222 44.394 146.549 44.002C146.885 43.6007 147.053 43.078 147.053 42.434C147.053 41.678 146.88 41.1227 146.535 40.768C146.199 40.404 145.723 40.222 145.107 40.222C144.696 40.222 144.304 40.3107 143.931 40.488C143.567 40.656 143.245 40.8847 142.965 41.174C142.955 41.2673 142.951 41.412 142.951 41.608C142.951 42.504 143.128 43.2273 143.483 43.778C143.837 44.3193 144.388 44.59 145.135 44.59ZM153.187 39.06C153.803 39.06 154.349 39.1907 154.825 39.452C155.301 39.704 155.669 40.0727 155.931 40.558C156.201 41.034 156.337 41.5987 156.337 42.252C156.337 43.288 156.038 44.1093 155.441 44.716C154.843 45.3227 154.041 45.626 153.033 45.626C152.426 45.626 151.899 45.542 151.451 45.374C151.003 45.1967 150.657 44.9727 150.415 44.702C150.181 44.4313 150.065 44.156 150.065 43.876C150.065 43.428 150.303 43.1713 150.779 43.106C151.171 44.1233 151.908 44.632 152.991 44.632C153.663 44.632 154.171 44.422 154.517 44.002C154.871 43.5727 155.049 43.008 155.049 42.308C155.049 41.552 154.871 40.992 154.517 40.628C154.171 40.264 153.677 40.082 153.033 40.082C152.603 40.082 152.235 40.166 151.927 40.334C151.619 40.502 151.339 40.7633 151.087 41.118L150.177 40.964L150.513 35.7H155.665V36.694H151.619L151.423 39.578C151.899 39.2327 152.487 39.06 153.187 39.06ZM165.065 43.26H160.809V42.616C161.705 41.3747 162.377 40.2267 162.825 39.172C163.273 38.1173 163.544 36.96 163.637 35.7C163.721 35.6813 163.843 35.672 164.001 35.672C164.608 35.672 164.911 35.994 164.911 36.638C164.911 37.4313 164.631 38.36 164.071 39.424C163.521 40.488 162.9 41.4307 162.209 42.252H165.065V39.55H166.339V42.252H167.571V43.26H166.339V45.5H165.065V43.26ZM173.276 40.46C173.966 40.7493 174.447 41.104 174.718 41.524C174.988 41.944 175.124 42.448 175.124 43.036C175.124 43.876 174.825 44.52 174.228 44.968C173.64 45.4067 172.828 45.626 171.792 45.626C170.765 45.626 169.953 45.4067 169.356 44.968C168.768 44.52 168.474 43.876 168.474 43.036C168.474 42.448 168.614 41.944 168.894 41.524C169.174 41.0947 169.654 40.74 170.336 40.46C169.794 40.18 169.388 39.8627 169.118 39.508C168.856 39.144 168.726 38.7007 168.726 38.178C168.726 37.4033 169.006 36.7873 169.566 36.33C170.126 35.8633 170.868 35.63 171.792 35.63C172.725 35.63 173.467 35.8633 174.018 36.33C174.568 36.7873 174.844 37.4033 174.844 38.178C174.844 38.71 174.713 39.158 174.452 39.522C174.2 39.886 173.808 40.1987 173.276 40.46ZM171.792 36.61C171.25 36.61 170.816 36.75 170.49 37.03C170.163 37.3007 170 37.6693 170 38.136C170 38.556 170.154 38.9247 170.462 39.242C170.779 39.55 171.222 39.802 171.792 39.998C172.464 39.7833 172.926 39.5313 173.178 39.242C173.439 38.9527 173.57 38.584 173.57 38.136C173.57 37.6693 173.406 37.3007 173.08 37.03C172.762 36.75 172.333 36.61 171.792 36.61ZM171.792 44.632C172.417 44.632 172.912 44.492 173.276 44.212C173.649 43.9227 173.836 43.5307 173.836 43.036C173.836 42.7187 173.775 42.4527 173.654 42.238C173.542 42.014 173.341 41.8087 173.052 41.622C172.762 41.4353 172.342 41.2393 171.792 41.034C171.073 41.3047 170.555 41.5893 170.238 41.888C169.92 42.1867 169.762 42.5693 169.762 43.036C169.762 43.5307 169.944 43.9227 170.308 44.212C170.672 44.492 171.166 44.632 171.792 44.632ZM179.624 35.672C180.791 35.672 181.649 36.0313 182.2 36.75C182.751 37.4687 183.026 38.4253 183.026 39.62C183.026 40.712 182.816 41.7153 182.396 42.63C181.985 43.5353 181.421 44.2587 180.702 44.8C179.983 45.332 179.19 45.598 178.322 45.598C178.005 45.598 177.776 45.5187 177.636 45.36C177.496 45.192 177.426 44.9493 177.426 44.632C178.49 44.632 179.372 44.3427 180.072 43.764C180.772 43.1853 181.257 42.3967 181.528 41.398C181.257 41.5847 180.945 41.7387 180.59 41.86C180.245 41.9813 179.885 42.042 179.512 42.042C178.569 42.042 177.804 41.7667 177.216 41.216C176.637 40.6653 176.348 39.8907 176.348 38.892C176.348 38.2667 176.493 37.7113 176.782 37.226C177.071 36.7313 177.463 36.3487 177.958 36.078C178.453 35.8073 179.008 35.672 179.624 35.672ZM179.652 41.034C180.455 41.034 181.145 40.7447 181.724 40.166C181.733 40.0447 181.738 39.8627 181.738 39.62C181.738 38.696 181.579 37.9773 181.262 37.464C180.945 36.9507 180.389 36.694 179.596 36.694C178.971 36.694 178.485 36.904 178.14 37.324C177.804 37.7347 177.636 38.276 177.636 38.948C177.636 39.648 177.809 40.1707 178.154 40.516C178.509 40.8613 179.008 41.034 179.652 41.034Z" fill="white"/>
</svg>
