<svg width="228" height="63" viewBox="0 0 228 63" fill="none" xmlns="http://www.w3.org/2000/svg">
<circle cx="32" cy="31.5" r="31" fill="#111C55" stroke="#273270"/>
<path d="M41.496 23H23.504C22.9495 23 22.5 23.3755 22.5 23.8387V37.1613C22.5 37.6245 22.9495 38 23.504 38H41.496C42.0505 38 42.5 37.6245 42.5 37.1613V23.8387C42.5 23.3755 42.0505 23 41.496 23Z" stroke="#F6B426"/>
<path d="M22.5 23L32.9247 30L42.5 23.2294" stroke="#F6B426"/>
<path d="M84.612 25.45C84.612 25.87 84.5607 26.15 84.458 26.29C84.3647 26.43 84.1733 26.5 83.884 26.5H78.606V16.7H84.556V17.75H80.006V20.942H83.884V22.006H80.006V25.45H84.612ZM94.63 18.66C95.3207 18.66 95.876 18.8747 96.296 19.304C96.716 19.7333 96.926 20.3027 96.926 21.012V26.5H95.582V21.054C95.582 20.5407 95.4793 20.172 95.274 19.948C95.078 19.7147 94.7513 19.598 94.294 19.598C93.6033 19.598 92.964 19.92 92.376 20.564C92.3853 20.6293 92.39 20.7227 92.39 20.844V26.5H91.074V20.914C91.074 20.494 90.9667 20.172 90.752 19.948C90.5373 19.7147 90.234 19.598 89.842 19.598C89.4967 19.598 89.1607 19.6867 88.834 19.864C88.5167 20.032 88.19 20.298 87.854 20.662V26.5H86.524V21.46C86.524 20.1067 86.468 19.29 86.356 19.01C86.5147 18.9353 86.678 18.8747 86.846 18.828C87.0233 18.772 87.1773 18.744 87.308 18.744C87.4947 18.744 87.63 18.8187 87.714 18.968C87.798 19.108 87.8447 19.3367 87.854 19.654C88.1993 19.3087 88.5587 19.0567 88.932 18.898C89.3053 18.7393 89.73 18.66 90.206 18.66C90.6353 18.66 91.018 18.758 91.354 18.954C91.69 19.1407 91.9467 19.402 92.124 19.738C92.4693 19.3647 92.8427 19.094 93.244 18.926C93.6547 18.7487 94.1167 18.66 94.63 18.66ZM104.908 24.26C104.908 24.8013 104.94 25.212 105.006 25.492C105.08 25.772 105.206 26.0147 105.384 26.22C105.253 26.3227 105.094 26.4113 104.908 26.486C104.721 26.5513 104.548 26.584 104.39 26.584C103.96 26.584 103.704 26.2013 103.62 25.436C103.34 25.8187 102.98 26.1173 102.542 26.332C102.112 26.5373 101.627 26.64 101.086 26.64C100.386 26.64 99.8208 26.458 99.3915 26.094C98.9715 25.73 98.7615 25.2447 98.7615 24.638C98.7615 22.9207 100.367 21.9827 103.578 21.824V21.278C103.578 20.7367 103.442 20.3353 103.172 20.074C102.901 19.8127 102.481 19.682 101.912 19.682C101.538 19.682 101.188 19.7567 100.862 19.906C100.535 20.0553 100.162 20.3167 99.7415 20.69C99.6762 20.7367 99.6155 20.76 99.5595 20.76C99.4382 20.76 99.3075 20.6993 99.1675 20.578C99.0275 20.4473 98.8968 20.27 98.7755 20.046C99.1675 19.6073 99.6528 19.2667 100.232 19.024C100.81 18.7813 101.412 18.66 102.038 18.66C102.934 18.66 103.634 18.8933 104.138 19.36C104.651 19.8173 104.908 20.4567 104.908 21.278V24.26ZM101.38 25.674C101.809 25.674 102.21 25.548 102.584 25.296C102.957 25.0347 103.288 24.666 103.578 24.19V22.692C101.263 22.7947 100.106 23.4153 100.106 24.554C100.106 24.918 100.213 25.198 100.428 25.394C100.652 25.5807 100.969 25.674 101.38 25.674ZM107.309 18.8H108.625V26.5H107.309V18.8ZM107.897 17.386C107.375 17.386 107.113 17.1247 107.113 16.602V16.448C107.113 15.9253 107.375 15.664 107.897 15.664H108.037C108.56 15.664 108.821 15.9253 108.821 16.448V16.602C108.821 17.1247 108.56 17.386 108.037 17.386H107.897ZM111.202 15.426H112.518V26.5H111.202V15.426ZM81.686 45.64C80.51 45.64 79.6047 45.2947 78.97 44.604C78.3353 43.904 78.018 42.9053 78.018 41.608C78.018 40.8053 78.1627 40.1053 78.452 39.508C78.7413 38.9107 79.1567 38.4533 79.698 38.136C80.2393 37.8187 80.8787 37.66 81.616 37.66C82.4933 37.66 83.212 37.884 83.772 38.332C84.3413 38.7707 84.6773 39.3633 84.78 40.11C84.6307 40.194 84.472 40.264 84.304 40.32C84.136 40.3667 83.9867 40.39 83.856 40.39C83.744 40.39 83.6553 40.3573 83.59 40.292C83.534 40.2267 83.4827 40.1053 83.436 39.928C83.3147 39.4987 83.1 39.1767 82.792 38.962C82.484 38.738 82.092 38.626 81.616 38.626C80.9253 38.626 80.3747 38.8967 79.964 39.438C79.5627 39.97 79.362 40.6933 79.362 41.608C79.362 42.5693 79.5673 43.316 79.978 43.848C80.3887 44.38 80.958 44.646 81.686 44.646C82.7873 44.646 83.52 44.0767 83.884 42.938C84.136 42.938 84.3273 43.008 84.458 43.148C84.598 43.2787 84.668 43.4653 84.668 43.708C84.668 44.044 84.528 44.3613 84.248 44.66C83.9773 44.9587 83.6133 45.1967 83.156 45.374C82.6987 45.5513 82.2087 45.64 81.686 45.64ZM89.212 45.64C88.1107 45.64 87.2753 45.2993 86.706 44.618C86.1367 43.9367 85.852 42.9427 85.852 41.636C85.852 40.3293 86.1367 39.34 86.706 38.668C87.2753 37.996 88.1107 37.66 89.212 37.66C90.3133 37.66 91.1487 37.996 91.718 38.668C92.2967 39.34 92.586 40.3293 92.586 41.636C92.586 42.9427 92.2967 43.9367 91.718 44.618C91.1487 45.2993 90.3133 45.64 89.212 45.64ZM89.212 44.674C89.912 44.674 90.4207 44.4313 90.738 43.946C91.0647 43.4607 91.228 42.6907 91.228 41.636C91.228 40.5907 91.0647 39.83 90.738 39.354C90.4207 38.8687 89.912 38.626 89.212 38.626C88.512 38.626 87.9987 38.8687 87.672 39.354C87.3547 39.83 87.196 40.5907 87.196 41.636C87.196 42.6907 87.3593 43.4607 87.686 43.946C88.0127 44.4313 88.5213 44.674 89.212 44.674ZM100.478 43.666C100.478 44.1887 100.487 44.5573 100.506 44.772C100.534 44.9867 100.58 45.1827 100.646 45.36C100.31 45.5 99.9596 45.57 99.5956 45.57C99.4183 45.57 99.2969 45.4673 99.2316 45.262C99.1756 45.0473 99.1476 44.6507 99.1476 44.072V40.32C99.1476 39.7227 99.0403 39.298 98.8256 39.046C98.6203 38.7847 98.2749 38.654 97.7896 38.654C97.0709 38.654 96.3243 39.004 95.5496 39.704V45.5H94.2196V40.39C94.2196 39.102 94.1636 38.304 94.0516 37.996C94.4903 37.828 94.8356 37.744 95.0876 37.744C95.3956 37.744 95.5496 38.0147 95.5496 38.556V38.696C95.9976 38.332 96.4176 38.0707 96.8096 37.912C97.2109 37.744 97.6356 37.66 98.0836 37.66C98.8863 37.66 99.4836 37.8793 99.8756 38.318C100.277 38.7473 100.478 39.4053 100.478 40.292V43.666ZM106.573 44.422C106.647 44.4593 106.708 44.5247 106.755 44.618C106.801 44.702 106.825 44.8 106.825 44.912C106.825 45.0987 106.755 45.234 106.615 45.318C106.475 45.4207 106.279 45.5 106.027 45.556C105.784 45.612 105.518 45.64 105.229 45.64C104.603 45.64 104.104 45.472 103.731 45.136C103.357 44.7907 103.171 44.3333 103.171 43.764V38.738H101.813V37.8H103.171V35.7H104.501V37.8H106.335V38.738H104.501V43.582C104.501 43.9553 104.575 44.2307 104.725 44.408C104.874 44.576 105.103 44.66 105.411 44.66C105.784 44.66 106.171 44.5807 106.573 44.422ZM113.822 43.26C113.822 43.8013 113.854 44.212 113.92 44.492C113.994 44.772 114.12 45.0147 114.298 45.22C114.167 45.3227 114.008 45.4113 113.822 45.486C113.635 45.5513 113.462 45.584 113.304 45.584C112.874 45.584 112.618 45.2013 112.534 44.436C112.254 44.8187 111.894 45.1173 111.456 45.332C111.026 45.5373 110.541 45.64 110 45.64C109.3 45.64 108.735 45.458 108.306 45.094C107.886 44.73 107.676 44.2447 107.676 43.638C107.676 41.9207 109.281 40.9827 112.492 40.824V40.278C112.492 39.7367 112.356 39.3353 112.086 39.074C111.815 38.8127 111.395 38.682 110.826 38.682C110.452 38.682 110.102 38.7567 109.776 38.906C109.449 39.0553 109.076 39.3167 108.656 39.69C108.59 39.7367 108.53 39.76 108.474 39.76C108.352 39.76 108.222 39.6993 108.082 39.578C107.942 39.4473 107.811 39.27 107.69 39.046C108.082 38.6073 108.567 38.2667 109.146 38.024C109.724 37.7813 110.326 37.66 110.952 37.66C111.848 37.66 112.548 37.8933 113.052 38.36C113.565 38.8173 113.822 39.4567 113.822 40.278V43.26ZM110.294 44.674C110.723 44.674 111.124 44.548 111.498 44.296C111.871 44.0347 112.202 43.666 112.492 43.19V41.692C110.177 41.7947 109.02 42.4153 109.02 43.554C109.02 43.918 109.127 44.198 109.342 44.394C109.566 44.5807 109.883 44.674 110.294 44.674ZM119.051 45.64C117.875 45.64 116.97 45.2947 116.335 44.604C115.701 43.904 115.383 42.9053 115.383 41.608C115.383 40.8053 115.528 40.1053 115.817 39.508C116.107 38.9107 116.522 38.4533 117.063 38.136C117.605 37.8187 118.244 37.66 118.981 37.66C119.859 37.66 120.577 37.884 121.137 38.332C121.707 38.7707 122.043 39.3633 122.145 40.11C121.996 40.194 121.837 40.264 121.669 40.32C121.501 40.3667 121.352 40.39 121.221 40.39C121.109 40.39 121.021 40.3573 120.955 40.292C120.899 40.2267 120.848 40.1053 120.801 39.928C120.68 39.4987 120.465 39.1767 120.157 38.962C119.849 38.738 119.457 38.626 118.981 38.626C118.291 38.626 117.74 38.8967 117.329 39.438C116.928 39.97 116.727 40.6933 116.727 41.608C116.727 42.5693 116.933 43.316 117.343 43.848C117.754 44.38 118.323 44.646 119.051 44.646C120.153 44.646 120.885 44.0767 121.249 42.938C121.501 42.938 121.693 43.008 121.823 43.148C121.963 43.2787 122.033 43.4653 122.033 43.708C122.033 44.044 121.893 44.3613 121.613 44.66C121.343 44.9587 120.979 45.1967 120.521 45.374C120.064 45.5513 119.574 45.64 119.051 45.64ZM127.627 44.422C127.702 44.4593 127.763 44.5247 127.809 44.618C127.856 44.702 127.879 44.8 127.879 44.912C127.879 45.0987 127.809 45.234 127.669 45.318C127.529 45.4207 127.333 45.5 127.081 45.556C126.839 45.612 126.573 45.64 126.283 45.64C125.658 45.64 125.159 45.472 124.785 45.136C124.412 44.7907 124.225 44.3333 124.225 43.764V38.738H122.867V37.8H124.225V35.7H125.555V37.8H127.389V38.738H125.555V43.582C125.555 43.9553 125.63 44.2307 125.779 44.408C125.929 44.576 126.157 44.66 126.465 44.66C126.839 44.66 127.226 44.5807 127.627 44.422ZM135.898 41.664C135.889 41.7293 135.875 41.8227 135.856 41.944C135.838 42.056 135.828 42.1493 135.828 42.224C135.828 42.532 135.982 42.686 136.29 42.686C136.598 42.686 136.892 42.5647 137.172 42.322C137.452 42.07 137.681 41.7293 137.858 41.3C138.036 40.8613 138.124 40.3713 138.124 39.83C138.124 39.1113 137.956 38.4813 137.62 37.94C137.284 37.3893 136.813 36.9693 136.206 36.68C135.609 36.3813 134.918 36.232 134.134 36.232C133.285 36.232 132.534 36.4187 131.88 36.792C131.236 37.1653 130.732 37.6833 130.368 38.346C130.014 39.0087 129.836 39.76 129.836 40.6C129.836 41.5053 130.018 42.2893 130.382 42.952C130.746 43.6147 131.264 44.1233 131.936 44.478C132.608 44.8327 133.397 45.01 134.302 45.01C134.946 45.01 135.488 44.94 135.926 44.8C136.365 44.66 136.785 44.4547 137.186 44.184C137.41 44.3053 137.522 44.4687 137.522 44.674C137.522 44.8607 137.373 45.038 137.074 45.206C136.785 45.374 136.388 45.5093 135.884 45.612C135.39 45.724 134.862 45.78 134.302 45.78C133.229 45.78 132.291 45.5793 131.488 45.178C130.695 44.7673 130.079 44.1747 129.64 43.4C129.202 42.616 128.982 41.6733 128.982 40.572C128.982 39.6293 129.202 38.7707 129.64 37.996C130.088 37.212 130.704 36.596 131.488 36.148C132.272 35.6907 133.15 35.462 134.12 35.462C135.082 35.462 135.926 35.6487 136.654 36.022C137.392 36.3953 137.961 36.918 138.362 37.59C138.773 38.2527 138.978 39.0087 138.978 39.858C138.978 40.5767 138.848 41.216 138.586 41.776C138.325 42.3267 137.98 42.7513 137.55 43.05C137.13 43.3487 136.687 43.498 136.22 43.498C135.94 43.498 135.693 43.4233 135.478 43.274C135.273 43.1153 135.133 42.91 135.058 42.658C134.722 43.218 134.195 43.498 133.476 43.498C132.86 43.498 132.366 43.2973 131.992 42.896C131.628 42.4853 131.446 41.9113 131.446 41.174C131.446 40.5487 131.549 39.9933 131.754 39.508C131.969 39.0133 132.268 38.6307 132.65 38.36C133.033 38.0893 133.476 37.954 133.98 37.954C134.662 37.954 135.142 38.2153 135.422 38.738L135.52 38.178H136.458L135.898 41.664ZM133.588 42.686C134.064 42.686 134.438 42.448 134.708 41.972C134.988 41.496 135.128 40.936 135.128 40.292C135.128 39.7973 135.026 39.4193 134.82 39.158C134.624 38.8967 134.354 38.766 134.008 38.766C133.532 38.766 133.168 38.99 132.916 39.438C132.674 39.886 132.552 40.4553 132.552 41.146C132.552 41.6407 132.636 42.0233 132.804 42.294C132.982 42.5553 133.243 42.686 133.588 42.686ZM140.966 34.426H142.282V45.5H140.966V34.426ZM147.372 45.64C146.271 45.64 145.435 45.2993 144.866 44.618C144.297 43.9367 144.012 42.9427 144.012 41.636C144.012 40.3293 144.297 39.34 144.866 38.668C145.435 37.996 146.271 37.66 147.372 37.66C148.473 37.66 149.309 37.996 149.878 38.668C150.457 39.34 150.746 40.3293 150.746 41.636C150.746 42.9427 150.457 43.9367 149.878 44.618C149.309 45.2993 148.473 45.64 147.372 45.64ZM147.372 44.674C148.072 44.674 148.581 44.4313 148.898 43.946C149.225 43.4607 149.388 42.6907 149.388 41.636C149.388 40.5907 149.225 39.83 148.898 39.354C148.581 38.8687 148.072 38.626 147.372 38.626C146.672 38.626 146.159 38.8687 145.832 39.354C145.515 39.83 145.356 40.5907 145.356 41.636C145.356 42.6907 145.519 43.4607 145.846 43.946C146.173 44.4313 146.681 44.674 147.372 44.674ZM158.638 37.254C158.852 37.254 159.006 37.3193 159.1 37.45C159.202 37.5713 159.254 37.7767 159.254 38.066C159.254 38.206 159.249 38.3133 159.24 38.388C158.568 38.388 158.096 38.4767 157.826 38.654C158.18 39.0927 158.358 39.62 158.358 40.236C158.358 41.1227 158.087 41.7947 157.546 42.252C157.004 42.7 156.211 42.924 155.166 42.924C154.596 42.924 154.186 42.966 153.934 43.05C153.691 43.1247 153.57 43.2507 153.57 43.428C153.57 43.624 153.724 43.7687 154.032 43.862C154.349 43.946 154.867 43.988 155.586 43.988C156.659 43.988 157.485 44.17 158.064 44.534C158.652 44.898 158.946 45.4113 158.946 46.074C158.946 46.7927 158.628 47.3527 157.994 47.754C157.359 48.1553 156.463 48.356 155.306 48.356C154.195 48.356 153.341 48.1787 152.744 47.824C152.156 47.4787 151.862 46.9747 151.862 46.312C151.862 45.92 151.997 45.5887 152.268 45.318C152.548 45.038 152.944 44.842 153.458 44.73V44.688C153.15 44.6133 152.902 44.478 152.716 44.282C152.538 44.0767 152.45 43.8387 152.45 43.568C152.45 43.3347 152.543 43.1247 152.73 42.938C152.926 42.7513 153.187 42.616 153.514 42.532C153.094 42.308 152.762 42.014 152.52 41.65C152.286 41.2767 152.17 40.8613 152.17 40.404C152.17 39.508 152.445 38.8267 152.996 38.36C153.556 37.8933 154.368 37.66 155.432 37.66C156.048 37.66 156.594 37.786 157.07 38.038C157.294 37.7953 157.546 37.604 157.826 37.464C158.106 37.324 158.376 37.254 158.638 37.254ZM155.25 41.958C155.866 41.958 156.309 41.8273 156.58 41.566C156.85 41.3047 156.986 40.88 156.986 40.292C156.986 39.704 156.846 39.2747 156.566 39.004C156.295 38.7333 155.856 38.598 155.25 38.598C154.662 38.598 154.228 38.738 153.948 39.018C153.668 39.2887 153.528 39.7133 153.528 40.292C153.528 41.4027 154.102 41.958 155.25 41.958ZM155.362 44.996C153.943 44.996 153.234 45.3833 153.234 46.158C153.234 46.97 153.924 47.376 155.306 47.376C156.071 47.376 156.65 47.2733 157.042 47.068C157.434 46.8627 157.63 46.5593 157.63 46.158C157.63 45.7567 157.448 45.4627 157.084 45.276C156.729 45.0893 156.155 44.996 155.362 44.996ZM160.807 37.8H162.123V45.5H160.807V37.8ZM161.395 36.386C160.873 36.386 160.611 36.1247 160.611 35.602V35.448C160.611 34.9253 160.873 34.664 161.395 34.664H161.535C162.058 34.664 162.319 34.9253 162.319 35.448V35.602C162.319 36.1247 162.058 36.386 161.535 36.386H161.395ZM166.912 45.64C166.427 45.64 165.96 45.57 165.512 45.43C165.064 45.29 164.7 45.108 164.42 44.884C164.15 44.6507 164.014 44.3987 164.014 44.128C164.014 43.96 164.07 43.8153 164.182 43.694C164.304 43.5633 164.458 43.484 164.644 43.456C164.934 43.876 165.26 44.184 165.624 44.38C165.988 44.576 166.436 44.674 166.968 44.674C167.5 44.674 167.902 44.5573 168.172 44.324C168.443 44.0813 168.578 43.764 168.578 43.372C168.578 43.12 168.494 42.9147 168.326 42.756C168.168 42.588 167.962 42.4573 167.71 42.364C167.468 42.2613 167.136 42.154 166.716 42.042C166.166 41.8927 165.722 41.748 165.386 41.608C165.06 41.4587 164.775 41.244 164.532 40.964C164.299 40.6747 164.182 40.2967 164.182 39.83C164.182 39.3633 164.313 38.9667 164.574 38.64C164.836 38.3133 165.172 38.0707 165.582 37.912C165.993 37.744 166.422 37.66 166.87 37.66C167.496 37.66 168.051 37.786 168.536 38.038C169.031 38.2807 169.414 38.6213 169.684 39.06C169.572 39.2187 169.451 39.3447 169.32 39.438C169.19 39.5313 169.068 39.578 168.956 39.578C168.816 39.578 168.69 39.5127 168.578 39.382C168.13 38.8593 167.556 38.598 166.856 38.598C166.427 38.598 166.086 38.696 165.834 38.892C165.582 39.088 165.456 39.3867 165.456 39.788C165.456 40.04 165.536 40.2453 165.694 40.404C165.853 40.5533 166.054 40.6747 166.296 40.768C166.539 40.852 166.866 40.9453 167.276 41.048C167.836 41.1973 168.284 41.342 168.62 41.482C168.956 41.622 169.246 41.8413 169.488 42.14C169.731 42.4387 169.852 42.8353 169.852 43.33C169.852 44.0487 169.586 44.6133 169.054 45.024C168.532 45.4347 167.818 45.64 166.912 45.64ZM175.301 44.422C175.376 44.4593 175.436 44.5247 175.483 44.618C175.53 44.702 175.553 44.8 175.553 44.912C175.553 45.0987 175.483 45.234 175.343 45.318C175.203 45.4207 175.007 45.5 174.755 45.556C174.512 45.612 174.246 45.64 173.957 45.64C173.332 45.64 172.832 45.472 172.459 45.136C172.086 44.7907 171.899 44.3333 171.899 43.764V38.738H170.541V37.8H171.899V35.7H173.229V37.8H175.063V38.738H173.229V43.582C173.229 43.9553 173.304 44.2307 173.453 44.408C173.602 44.576 173.831 44.66 174.139 44.66C174.512 44.66 174.9 44.5807 175.301 44.422ZM177.104 37.8H178.42V45.5H177.104V37.8ZM177.692 36.386C177.169 36.386 176.908 36.1247 176.908 35.602V35.448C176.908 34.9253 177.169 34.664 177.692 34.664H177.832C178.355 34.664 178.616 34.9253 178.616 35.448V35.602C178.616 36.1247 178.355 36.386 177.832 36.386H177.692ZM183.965 45.64C182.789 45.64 181.884 45.2947 181.249 44.604C180.615 43.904 180.297 42.9053 180.297 41.608C180.297 40.8053 180.442 40.1053 180.731 39.508C181.021 38.9107 181.436 38.4533 181.977 38.136C182.519 37.8187 183.158 37.66 183.895 37.66C184.773 37.66 185.491 37.884 186.051 38.332C186.621 38.7707 186.957 39.3633 187.059 40.11C186.91 40.194 186.751 40.264 186.583 40.32C186.415 40.3667 186.266 40.39 186.135 40.39C186.023 40.39 185.935 40.3573 185.869 40.292C185.813 40.2267 185.762 40.1053 185.715 39.928C185.594 39.4987 185.379 39.1767 185.071 38.962C184.763 38.738 184.371 38.626 183.895 38.626C183.205 38.626 182.654 38.8967 182.243 39.438C181.842 39.97 181.641 40.6933 181.641 41.608C181.641 42.5693 181.847 43.316 182.257 43.848C182.668 44.38 183.237 44.646 183.965 44.646C185.067 44.646 185.799 44.0767 186.163 42.938C186.415 42.938 186.607 43.008 186.737 43.148C186.877 43.2787 186.947 43.4653 186.947 43.708C186.947 44.044 186.807 44.3613 186.527 44.66C186.257 44.9587 185.893 45.1967 185.435 45.374C184.978 45.5513 184.488 45.64 183.965 45.64ZM191.043 45.64C190.558 45.64 190.091 45.57 189.643 45.43C189.195 45.29 188.831 45.108 188.551 44.884C188.281 44.6507 188.145 44.3987 188.145 44.128C188.145 43.96 188.201 43.8153 188.313 43.694C188.435 43.5633 188.589 43.484 188.775 43.456C189.065 43.876 189.391 44.184 189.755 44.38C190.119 44.576 190.567 44.674 191.099 44.674C191.631 44.674 192.033 44.5573 192.303 44.324C192.574 44.0813 192.709 43.764 192.709 43.372C192.709 43.12 192.625 42.9147 192.457 42.756C192.299 42.588 192.093 42.4573 191.841 42.364C191.599 42.2613 191.267 42.154 190.847 42.042C190.297 41.8927 189.853 41.748 189.517 41.608C189.191 41.4587 188.906 41.244 188.663 40.964C188.43 40.6747 188.313 40.2967 188.313 39.83C188.313 39.3633 188.444 38.9667 188.705 38.64C188.967 38.3133 189.303 38.0707 189.713 37.912C190.124 37.744 190.553 37.66 191.001 37.66C191.627 37.66 192.182 37.786 192.667 38.038C193.162 38.2807 193.545 38.6213 193.815 39.06C193.703 39.2187 193.582 39.3447 193.451 39.438C193.321 39.5313 193.199 39.578 193.087 39.578C192.947 39.578 192.821 39.5127 192.709 39.382C192.261 38.8593 191.687 38.598 190.987 38.598C190.558 38.598 190.217 38.696 189.965 38.892C189.713 39.088 189.587 39.3867 189.587 39.788C189.587 40.04 189.667 40.2453 189.825 40.404C189.984 40.5533 190.185 40.6747 190.427 40.768C190.67 40.852 190.997 40.9453 191.407 41.048C191.967 41.1973 192.415 41.342 192.751 41.482C193.087 41.622 193.377 41.8413 193.619 42.14C193.862 42.4387 193.983 42.8353 193.983 43.33C193.983 44.0487 193.717 44.6133 193.185 45.024C192.663 45.4347 191.949 45.64 191.043 45.64ZM196.59 45.528C196.067 45.528 195.806 45.2667 195.806 44.744V44.59C195.806 44.0673 196.067 43.806 196.59 43.806H196.73C197.253 43.806 197.514 44.0673 197.514 44.59V44.744C197.514 45.2667 197.253 45.528 196.73 45.528H196.59ZM203.01 45.64C201.834 45.64 200.929 45.2947 200.294 44.604C199.66 43.904 199.342 42.9053 199.342 41.608C199.342 40.8053 199.487 40.1053 199.776 39.508C200.066 38.9107 200.481 38.4533 201.022 38.136C201.564 37.8187 202.203 37.66 202.94 37.66C203.818 37.66 204.536 37.884 205.096 38.332C205.666 38.7707 206.002 39.3633 206.104 40.11C205.955 40.194 205.796 40.264 205.628 40.32C205.46 40.3667 205.311 40.39 205.18 40.39C205.068 40.39 204.98 40.3573 204.914 40.292C204.858 40.2267 204.807 40.1053 204.76 39.928C204.639 39.4987 204.424 39.1767 204.116 38.962C203.808 38.738 203.416 38.626 202.94 38.626C202.25 38.626 201.699 38.8967 201.288 39.438C200.887 39.97 200.686 40.6933 200.686 41.608C200.686 42.5693 200.892 43.316 201.302 43.848C201.713 44.38 202.282 44.646 203.01 44.646C204.112 44.646 204.844 44.0767 205.208 42.938C205.46 42.938 205.652 43.008 205.782 43.148C205.922 43.2787 205.992 43.4653 205.992 43.708C205.992 44.044 205.852 44.3613 205.572 44.66C205.302 44.9587 204.938 45.1967 204.48 45.374C204.023 45.5513 203.533 45.64 203.01 45.64ZM210.536 45.64C209.435 45.64 208.6 45.2993 208.03 44.618C207.461 43.9367 207.176 42.9427 207.176 41.636C207.176 40.3293 207.461 39.34 208.03 38.668C208.6 37.996 209.435 37.66 210.536 37.66C211.638 37.66 212.473 37.996 213.042 38.668C213.621 39.34 213.91 40.3293 213.91 41.636C213.91 42.9427 213.621 43.9367 213.042 44.618C212.473 45.2993 211.638 45.64 210.536 45.64ZM210.536 44.674C211.236 44.674 211.745 44.4313 212.062 43.946C212.389 43.4607 212.552 42.6907 212.552 41.636C212.552 40.5907 212.389 39.83 212.062 39.354C211.745 38.8687 211.236 38.626 210.536 38.626C209.836 38.626 209.323 38.8687 208.996 39.354C208.679 39.83 208.52 40.5907 208.52 41.636C208.52 42.6907 208.684 43.4607 209.01 43.946C209.337 44.4313 209.846 44.674 210.536 44.674ZM223.72 37.66C224.41 37.66 224.966 37.8747 225.386 38.304C225.806 38.7333 226.016 39.3027 226.016 40.012V45.5H224.672V40.054C224.672 39.5407 224.569 39.172 224.364 38.948C224.168 38.7147 223.841 38.598 223.384 38.598C222.693 38.598 222.054 38.92 221.466 39.564C221.475 39.6293 221.48 39.7227 221.48 39.844V45.5H220.164V39.914C220.164 39.494 220.056 39.172 219.842 38.948C219.627 38.7147 219.324 38.598 218.932 38.598C218.586 38.598 218.25 38.6867 217.924 38.864C217.606 39.032 217.28 39.298 216.944 39.662V45.5H215.614V40.46C215.614 39.1067 215.558 38.29 215.446 38.01C215.604 37.9353 215.768 37.8747 215.936 37.828C216.113 37.772 216.267 37.744 216.398 37.744C216.584 37.744 216.72 37.8187 216.804 37.968C216.888 38.108 216.934 38.3367 216.944 38.654C217.289 38.3087 217.648 38.0567 218.022 37.898C218.395 37.7393 218.82 37.66 219.296 37.66C219.725 37.66 220.108 37.758 220.444 37.954C220.78 38.1407 221.036 38.402 221.214 38.738C221.559 38.3647 221.932 38.094 222.334 37.926C222.744 37.7487 223.206 37.66 223.72 37.66Z" fill="white"/>
</svg>
