<svg width="257" height="63" viewBox="0 0 257 63" fill="none" xmlns="http://www.w3.org/2000/svg">
<circle cx="32" cy="31.5" r="31" fill="#111C55" stroke="#273270"/>
<path d="M32.5 42C38.5751 42 43.5 37.0751 43.5 31C43.5 24.9249 38.5751 20 32.5 20C26.4249 20 21.5 24.9249 21.5 31C21.5 37.0751 26.4249 42 32.5 42Z" stroke="#F6B426"/>
<path d="M32.5 22V31.2058L37.5 35" stroke="#F6B426"/>
<path d="M89.838 25.5C89.8007 22.4853 89.5673 19.7833 89.138 17.394C88.7927 18.2527 88.4707 19.1253 88.172 20.012C87.8827 20.8893 87.444 22.3313 86.856 24.338H85.806C85.302 22.574 84.8913 21.216 84.574 20.264C84.2567 19.3027 83.9113 18.36 83.538 17.436C83.1273 19.788 82.8893 22.476 82.824 25.5H81.438C81.522 21.776 81.9047 18.5093 82.586 15.7H84.14C84.6813 16.96 85.106 18.024 85.414 18.892C85.7313 19.7507 86.0347 20.7167 86.324 21.79C86.6413 20.698 86.9587 19.718 87.276 18.85C87.5933 17.982 88.018 16.932 88.55 15.7H90.104C90.804 18.556 91.182 21.8227 91.238 25.5H89.838ZM96.0675 25.64C94.9661 25.64 94.1308 25.2993 93.5615 24.618C92.9921 23.9367 92.7075 22.9427 92.7075 21.636C92.7075 20.3293 92.9921 19.34 93.5615 18.668C94.1308 17.996 94.9661 17.66 96.0675 17.66C97.1688 17.66 98.0041 17.996 98.5735 18.668C99.1521 19.34 99.4415 20.3293 99.4415 21.636C99.4415 22.9427 99.1521 23.9367 98.5735 24.618C98.0041 25.2993 97.1688 25.64 96.0675 25.64ZM96.0675 24.674C96.7675 24.674 97.2761 24.4313 97.5935 23.946C97.9201 23.4607 98.0835 22.6907 98.0835 21.636C98.0835 20.5907 97.9201 19.83 97.5935 19.354C97.2761 18.8687 96.7675 18.626 96.0675 18.626C95.3675 18.626 94.8541 18.8687 94.5275 19.354C94.2101 19.83 94.0515 20.5907 94.0515 21.636C94.0515 22.6907 94.2148 23.4607 94.5415 23.946C94.8681 24.4313 95.3768 24.674 96.0675 24.674ZM107.333 23.666C107.333 24.1887 107.342 24.5573 107.361 24.772C107.389 24.9867 107.436 25.1827 107.501 25.36C107.165 25.5 106.815 25.57 106.451 25.57C106.274 25.57 106.152 25.4673 106.087 25.262C106.031 25.0473 106.003 24.6507 106.003 24.072V20.32C106.003 19.7227 105.896 19.298 105.681 19.046C105.476 18.7847 105.13 18.654 104.645 18.654C103.926 18.654 103.18 19.004 102.405 19.704V25.5H101.075V20.39C101.075 19.102 101.019 18.304 100.907 17.996C101.346 17.828 101.691 17.744 101.943 17.744C102.251 17.744 102.405 18.0147 102.405 18.556V18.696C102.853 18.332 103.273 18.0707 103.665 17.912C104.066 17.744 104.491 17.66 104.939 17.66C105.742 17.66 106.339 17.8793 106.731 18.318C107.132 18.7473 107.333 19.4053 107.333 20.292V23.666ZM112.949 20.74H117.989V21.664H112.949V20.74ZM126.995 25.64C126.314 25.64 125.698 25.5467 125.147 25.36C124.606 25.164 124.181 24.898 123.873 24.562C123.565 24.2167 123.411 23.8293 123.411 23.4C123.411 23.1667 123.5 22.98 123.677 22.84C123.864 22.7 124.116 22.6253 124.433 22.616C124.555 23.2413 124.835 23.722 125.273 24.058C125.721 24.3847 126.305 24.548 127.023 24.548C127.742 24.548 128.307 24.394 128.717 24.086C129.137 23.7687 129.347 23.344 129.347 22.812C129.347 22.3547 129.161 21.9907 128.787 21.72C128.414 21.44 127.761 21.174 126.827 20.922C126.043 20.7073 125.423 20.4787 124.965 20.236C124.508 19.984 124.172 19.6947 123.957 19.368C123.752 19.032 123.649 18.6307 123.649 18.164C123.649 17.3613 123.953 16.7267 124.559 16.26C125.166 15.7933 125.997 15.56 127.051 15.56C127.947 15.56 128.699 15.77 129.305 16.19C129.921 16.61 130.337 17.2027 130.551 17.968C130.458 18.0613 130.332 18.1407 130.173 18.206C130.015 18.262 129.861 18.29 129.711 18.29C129.571 18.29 129.45 18.2573 129.347 18.192C129.254 18.1267 129.175 18.0193 129.109 17.87C128.913 17.478 128.633 17.1747 128.269 16.96C127.915 16.7453 127.509 16.638 127.051 16.638C126.389 16.638 125.889 16.7593 125.553 17.002C125.217 17.2447 125.049 17.6087 125.049 18.094C125.049 18.3647 125.11 18.5933 125.231 18.78C125.362 18.9573 125.577 19.1253 125.875 19.284C126.183 19.4333 126.622 19.592 127.191 19.76C128.171 20.0493 128.913 20.32 129.417 20.572C129.921 20.824 130.271 21.1087 130.467 21.426C130.673 21.734 130.775 22.1307 130.775 22.616C130.775 23.2227 130.617 23.7547 130.299 24.212C129.991 24.6693 129.553 25.024 128.983 25.276C128.414 25.5187 127.751 25.64 126.995 25.64ZM138.232 23.26C138.232 23.8013 138.264 24.212 138.33 24.492C138.404 24.772 138.53 25.0147 138.708 25.22C138.577 25.3227 138.418 25.4113 138.232 25.486C138.045 25.5513 137.872 25.584 137.714 25.584C137.284 25.584 137.028 25.2013 136.944 24.436C136.664 24.8187 136.304 25.1173 135.866 25.332C135.436 25.5373 134.951 25.64 134.41 25.64C133.71 25.64 133.145 25.458 132.716 25.094C132.296 24.73 132.086 24.2447 132.086 23.638C132.086 21.9207 133.691 20.9827 136.902 20.824V20.278C136.902 19.7367 136.766 19.3353 136.496 19.074C136.225 18.8127 135.805 18.682 135.236 18.682C134.862 18.682 134.512 18.7567 134.186 18.906C133.859 19.0553 133.486 19.3167 133.066 19.69C133 19.7367 132.94 19.76 132.884 19.76C132.762 19.76 132.632 19.6993 132.492 19.578C132.352 19.4473 132.221 19.27 132.1 19.046C132.492 18.6073 132.977 18.2667 133.556 18.024C134.134 17.7813 134.736 17.66 135.362 17.66C136.258 17.66 136.958 17.8933 137.462 18.36C137.975 18.8173 138.232 19.4567 138.232 20.278V23.26ZM134.704 24.674C135.133 24.674 135.534 24.548 135.908 24.296C136.281 24.0347 136.612 23.666 136.902 23.19V21.692C134.587 21.7947 133.43 22.4153 133.43 23.554C133.43 23.918 133.537 24.198 133.752 24.394C133.976 24.5807 134.293 24.674 134.704 24.674ZM144.203 24.422C144.278 24.4593 144.339 24.5247 144.385 24.618C144.432 24.702 144.455 24.8 144.455 24.912C144.455 25.0987 144.385 25.234 144.245 25.318C144.105 25.4207 143.909 25.5 143.657 25.556C143.415 25.612 143.149 25.64 142.859 25.64C142.234 25.64 141.735 25.472 141.361 25.136C140.988 24.7907 140.801 24.3333 140.801 23.764V18.738H139.443V17.8H140.801V15.7H142.131V17.8H143.965V18.738H142.131V23.582C142.131 23.9553 142.206 24.2307 142.355 24.408C142.505 24.576 142.733 24.66 143.041 24.66C143.415 24.66 143.802 24.5807 144.203 24.422ZM152.136 15.672C153.302 15.672 154.161 16.0313 154.712 16.75C155.262 17.4687 155.538 18.4253 155.538 19.62C155.538 20.712 155.328 21.7153 154.908 22.63C154.497 23.5353 153.932 24.2587 153.214 24.8C152.495 25.332 151.702 25.598 150.834 25.598C150.516 25.598 150.288 25.5187 150.148 25.36C150.008 25.192 149.938 24.9493 149.938 24.632C151.002 24.632 151.884 24.3427 152.584 23.764C153.284 23.1853 153.769 22.3967 154.04 21.398C153.769 21.5847 153.456 21.7387 153.102 21.86C152.756 21.9813 152.397 22.042 152.024 22.042C151.081 22.042 150.316 21.7667 149.728 21.216C149.149 20.6653 148.86 19.8907 148.86 18.892C148.86 18.2667 149.004 17.7113 149.294 17.226C149.583 16.7313 149.975 16.3487 150.47 16.078C150.964 15.8073 151.52 15.672 152.136 15.672ZM152.164 21.034C152.966 21.034 153.657 20.7447 154.236 20.166C154.245 20.0447 154.25 19.8627 154.25 19.62C154.25 18.696 154.091 17.9773 153.774 17.464C153.456 16.9507 152.901 16.694 152.108 16.694C151.482 16.694 150.997 16.904 150.652 17.324C150.316 17.7347 150.148 18.276 150.148 18.948C150.148 19.648 150.32 20.1707 150.666 20.516C151.02 20.8613 151.52 21.034 152.164 21.034ZM158.424 25.528C157.901 25.528 157.64 25.2667 157.64 24.744V24.59C157.64 24.0673 157.901 23.806 158.424 23.806H158.564C159.087 23.806 159.348 24.0673 159.348 24.59V24.744C159.348 25.2667 159.087 25.528 158.564 25.528H158.424ZM164.998 25.668C163.766 25.668 162.833 25.2433 162.198 24.394C161.573 23.5353 161.26 22.3267 161.26 20.768C161.26 19.1067 161.573 17.8233 162.198 16.918C162.833 16.0127 163.766 15.56 164.998 15.56C166.23 15.56 167.159 16.0127 167.784 16.918C168.419 17.8233 168.736 19.1067 168.736 20.768C168.736 22.3267 168.419 23.5353 167.784 24.394C167.159 25.2433 166.23 25.668 164.998 25.668ZM164.998 24.618C165.82 24.618 166.426 24.282 166.818 23.61C167.21 22.938 167.406 21.9907 167.406 20.768C167.406 19.4333 167.21 18.4067 166.818 17.688C166.426 16.9693 165.82 16.61 164.998 16.61C163.393 16.61 162.59 17.996 162.59 20.768C162.59 23.3347 163.393 24.618 164.998 24.618ZM173.68 25.668C172.448 25.668 171.515 25.2433 170.88 24.394C170.255 23.5353 169.942 22.3267 169.942 20.768C169.942 19.1067 170.255 17.8233 170.88 16.918C171.515 16.0127 172.448 15.56 173.68 15.56C174.912 15.56 175.841 16.0127 176.466 16.918C177.101 17.8233 177.418 19.1067 177.418 20.768C177.418 22.3267 177.101 23.5353 176.466 24.394C175.841 25.2433 174.912 25.668 173.68 25.668ZM173.68 24.618C174.501 24.618 175.108 24.282 175.5 23.61C175.892 22.938 176.088 21.9907 176.088 20.768C176.088 19.4333 175.892 18.4067 175.5 17.688C175.108 16.9693 174.501 16.61 173.68 16.61C172.075 16.61 171.272 17.996 171.272 20.768C171.272 23.3347 172.075 24.618 173.68 24.618ZM182.471 20.74H187.511V21.664H182.471V20.74ZM197.497 24.548V25.5H192.877V24.548H194.585V17.268C194.351 17.4453 194.099 17.5993 193.829 17.73C193.558 17.8513 193.311 17.912 193.087 17.912C192.881 17.912 192.718 17.856 192.597 17.744C192.475 17.632 192.415 17.478 192.415 17.282C192.415 17.142 192.438 17.0253 192.485 16.932C192.877 16.8947 193.311 16.7687 193.787 16.554C194.263 16.3393 194.683 16.0547 195.047 15.7H195.859V24.548H197.497ZM203.825 20.46C204.515 20.7493 204.996 21.104 205.267 21.524C205.537 21.944 205.673 22.448 205.673 23.036C205.673 23.876 205.374 24.52 204.777 24.968C204.189 25.4067 203.377 25.626 202.341 25.626C201.314 25.626 200.502 25.4067 199.905 24.968C199.317 24.52 199.023 23.876 199.023 23.036C199.023 22.448 199.163 21.944 199.443 21.524C199.723 21.0947 200.203 20.74 200.885 20.46C200.343 20.18 199.937 19.8627 199.667 19.508C199.405 19.144 199.275 18.7007 199.275 18.178C199.275 17.4033 199.555 16.7873 200.115 16.33C200.675 15.8633 201.417 15.63 202.341 15.63C203.274 15.63 204.016 15.8633 204.567 16.33C205.117 16.7873 205.393 17.4033 205.393 18.178C205.393 18.71 205.262 19.158 205.001 19.522C204.749 19.886 204.357 20.1987 203.825 20.46ZM202.341 16.61C201.799 16.61 201.365 16.75 201.039 17.03C200.712 17.3007 200.549 17.6693 200.549 18.136C200.549 18.556 200.703 18.9247 201.011 19.242C201.328 19.55 201.771 19.802 202.341 19.998C203.013 19.7833 203.475 19.5313 203.727 19.242C203.988 18.9527 204.119 18.584 204.119 18.136C204.119 17.6693 203.955 17.3007 203.629 17.03C203.311 16.75 202.882 16.61 202.341 16.61ZM202.341 24.632C202.966 24.632 203.461 24.492 203.825 24.212C204.198 23.9227 204.385 23.5307 204.385 23.036C204.385 22.7187 204.324 22.4527 204.203 22.238C204.091 22.014 203.89 21.8087 203.601 21.622C203.311 21.4353 202.891 21.2393 202.341 21.034C201.622 21.3047 201.104 21.5893 200.787 21.888C200.469 22.1867 200.311 22.5693 200.311 23.036C200.311 23.5307 200.493 23.9227 200.857 24.212C201.221 24.492 201.715 24.632 202.341 24.632ZM208.381 25.528C207.858 25.528 207.597 25.2667 207.597 24.744V24.59C207.597 24.0673 207.858 23.806 208.381 23.806H208.521C209.044 23.806 209.305 24.0673 209.305 24.59V24.744C209.305 25.2667 209.044 25.528 208.521 25.528H208.381ZM214.955 25.668C213.723 25.668 212.79 25.2433 212.155 24.394C211.53 23.5353 211.217 22.3267 211.217 20.768C211.217 19.1067 211.53 17.8233 212.155 16.918C212.79 16.0127 213.723 15.56 214.955 15.56C216.187 15.56 217.116 16.0127 217.741 16.918C218.376 17.8233 218.693 19.1067 218.693 20.768C218.693 22.3267 218.376 23.5353 217.741 24.394C217.116 25.2433 216.187 25.668 214.955 25.668ZM214.955 24.618C215.777 24.618 216.383 24.282 216.775 23.61C217.167 22.938 217.363 21.9907 217.363 20.768C217.363 19.4333 217.167 18.4067 216.775 17.688C216.383 16.9693 215.777 16.61 214.955 16.61C213.35 16.61 212.547 17.996 212.547 20.768C212.547 23.3347 213.35 24.618 214.955 24.618ZM223.637 25.668C222.405 25.668 221.472 25.2433 220.837 24.394C220.212 23.5353 219.899 22.3267 219.899 20.768C219.899 19.1067 220.212 17.8233 220.837 16.918C221.472 16.0127 222.405 15.56 223.637 15.56C224.869 15.56 225.798 16.0127 226.423 16.918C227.058 17.8233 227.375 19.1067 227.375 20.768C227.375 22.3267 227.058 23.5353 226.423 24.394C225.798 25.2433 224.869 25.668 223.637 25.668ZM223.637 24.618C224.458 24.618 225.065 24.282 225.457 23.61C225.849 22.938 226.045 21.9907 226.045 20.768C226.045 19.4333 225.849 18.4067 225.457 17.688C225.065 16.9693 224.458 16.61 223.637 16.61C222.032 16.61 221.229 17.996 221.229 20.768C221.229 23.3347 222.032 24.618 223.637 24.618ZM85.05 44.64C84.3687 44.64 83.7527 44.5467 83.202 44.36C82.6607 44.164 82.236 43.898 81.928 43.562C81.62 43.2167 81.466 42.8293 81.466 42.4C81.466 42.1667 81.5547 41.98 81.732 41.84C81.9187 41.7 82.1707 41.6253 82.488 41.616C82.6093 42.2413 82.8893 42.722 83.328 43.058C83.776 43.3847 84.3593 43.548 85.078 43.548C85.7967 43.548 86.3613 43.394 86.772 43.086C87.192 42.7687 87.402 42.344 87.402 41.812C87.402 41.3547 87.2153 40.9907 86.842 40.72C86.4687 40.44 85.8153 40.174 84.882 39.922C84.098 39.7073 83.4773 39.4787 83.02 39.236C82.5627 38.984 82.2267 38.6947 82.012 38.368C81.8067 38.032 81.704 37.6307 81.704 37.164C81.704 36.3613 82.0073 35.7267 82.614 35.26C83.2207 34.7933 84.0513 34.56 85.106 34.56C86.002 34.56 86.7533 34.77 87.36 35.19C87.976 35.61 88.3913 36.2027 88.606 36.968C88.5127 37.0613 88.3867 37.1407 88.228 37.206C88.0693 37.262 87.9153 37.29 87.766 37.29C87.626 37.29 87.5047 37.2573 87.402 37.192C87.3087 37.1267 87.2293 37.0193 87.164 36.87C86.968 36.478 86.688 36.1747 86.324 35.96C85.9693 35.7453 85.5633 35.638 85.106 35.638C84.4433 35.638 83.944 35.7593 83.608 36.002C83.272 36.2447 83.104 36.6087 83.104 37.094C83.104 37.3647 83.1647 37.5933 83.286 37.78C83.4167 37.9573 83.6313 38.1253 83.93 38.284C84.238 38.4333 84.6767 38.592 85.246 38.76C86.226 39.0493 86.968 39.32 87.472 39.572C87.976 39.824 88.326 40.1087 88.522 40.426C88.7273 40.734 88.83 41.1307 88.83 41.616C88.83 42.2227 88.6713 42.7547 88.354 43.212C88.046 43.6693 87.6073 44.024 87.038 44.276C86.4687 44.5187 85.806 44.64 85.05 44.64ZM96.9024 42.82C96.9024 43.4267 96.9724 43.94 97.1124 44.36C96.8511 44.5 96.5618 44.57 96.2444 44.57C96.0204 44.57 95.8571 44.4953 95.7544 44.346C95.6611 44.1967 95.6051 43.9213 95.5864 43.52C95.3158 43.8653 94.9564 44.1407 94.5084 44.346C94.0698 44.542 93.5891 44.64 93.0664 44.64C92.2638 44.64 91.6571 44.4253 91.2464 43.996C90.8451 43.5573 90.6444 42.9087 90.6444 42.05V36.8H91.9744V41.952C91.9744 42.568 92.0818 43.016 92.2964 43.296C92.5204 43.5667 92.8798 43.702 93.3744 43.702C93.8131 43.702 94.2238 43.59 94.6064 43.366C94.9891 43.1327 95.3111 42.806 95.5724 42.386V36.8H96.9024V42.82ZM105.501 42.666C105.501 43.1887 105.51 43.5573 105.529 43.772C105.557 43.9867 105.604 44.1827 105.669 44.36C105.333 44.5 104.983 44.57 104.619 44.57C104.442 44.57 104.32 44.4673 104.255 44.262C104.199 44.0473 104.171 43.6507 104.171 43.072V39.32C104.171 38.7227 104.064 38.298 103.849 38.046C103.644 37.7847 103.298 37.654 102.813 37.654C102.094 37.654 101.348 38.004 100.573 38.704V44.5H99.243V39.39C99.243 38.102 99.187 37.304 99.075 36.996C99.5137 36.828 99.859 36.744 100.111 36.744C100.419 36.744 100.573 37.0147 100.573 37.556V37.696C101.021 37.332 101.441 37.0707 101.833 36.912C102.234 36.744 102.659 36.66 103.107 36.66C103.91 36.66 104.507 36.8793 104.899 37.318C105.3 37.7473 105.501 38.4053 105.501 39.292V42.666ZM113.906 42.344C113.906 43.24 113.999 43.8933 114.186 44.304C113.85 44.4813 113.523 44.57 113.206 44.57C112.898 44.57 112.702 44.2527 112.618 43.618C112.338 43.9727 112.021 44.234 111.666 44.402C111.311 44.5607 110.887 44.64 110.392 44.64C109.393 44.64 108.609 44.29 108.04 43.59C107.471 42.89 107.186 41.9193 107.186 40.678C107.186 39.4273 107.499 38.4473 108.124 37.738C108.749 37.0193 109.613 36.66 110.714 36.66C111.031 36.66 111.363 36.716 111.708 36.828C112.063 36.9307 112.352 37.0613 112.576 37.22V33.426H113.906V42.344ZM110.56 43.674C110.989 43.674 111.367 43.5807 111.694 43.394C112.021 43.198 112.315 42.8993 112.576 42.498V38.298C112.38 38.0927 112.114 37.9247 111.778 37.794C111.451 37.6633 111.12 37.598 110.784 37.598C110.056 37.598 109.496 37.864 109.104 38.396C108.721 38.9187 108.53 39.6793 108.53 40.678C108.53 41.6673 108.703 42.414 109.048 42.918C109.393 43.422 109.897 43.674 110.56 43.674ZM121.839 42.26C121.839 42.8013 121.872 43.212 121.937 43.492C122.012 43.772 122.138 44.0147 122.315 44.22C122.184 44.3227 122.026 44.4113 121.839 44.486C121.652 44.5513 121.48 44.584 121.321 44.584C120.892 44.584 120.635 44.2013 120.551 43.436C120.271 43.8187 119.912 44.1173 119.473 44.332C119.044 44.5373 118.558 44.64 118.017 44.64C117.317 44.64 116.752 44.458 116.323 44.094C115.903 43.73 115.693 43.2447 115.693 42.638C115.693 40.9207 117.298 39.9827 120.509 39.824V39.278C120.509 38.7367 120.374 38.3353 120.103 38.074C119.832 37.8127 119.412 37.682 118.843 37.682C118.47 37.682 118.12 37.7567 117.793 37.906C117.466 38.0553 117.093 38.3167 116.673 38.69C116.608 38.7367 116.547 38.76 116.491 38.76C116.37 38.76 116.239 38.6993 116.099 38.578C115.959 38.4473 115.828 38.27 115.707 38.046C116.099 37.6073 116.584 37.2667 117.163 37.024C117.742 36.7813 118.344 36.66 118.969 36.66C119.865 36.66 120.565 36.8933 121.069 37.36C121.582 37.8173 121.839 38.4567 121.839 39.278V42.26ZM118.311 43.674C118.74 43.674 119.142 43.548 119.515 43.296C119.888 43.0347 120.22 42.666 120.509 42.19V40.692C118.194 40.7947 117.037 41.4153 117.037 42.554C117.037 42.918 117.144 43.198 117.359 43.394C117.583 43.5807 117.9 43.674 118.311 43.674ZM129.827 36.8L126.845 45.088C126.555 45.8813 126.205 46.4507 125.795 46.796C125.393 47.1413 124.866 47.314 124.213 47.314C123.821 47.314 123.508 47.244 123.275 47.104C123.041 46.9733 122.925 46.8007 122.925 46.586C122.925 46.3713 123.018 46.1753 123.205 45.998C123.307 46.0727 123.447 46.1287 123.625 46.166C123.802 46.2127 123.979 46.236 124.157 46.236C124.53 46.236 124.838 46.0867 125.081 45.788C125.333 45.4987 125.557 45.0273 125.753 44.374L123.009 36.8H124.395L126.425 42.666L128.441 36.8H129.827ZM138.588 44.64C137.197 44.64 136.124 44.206 135.368 43.338C134.621 42.4607 134.248 41.2147 134.248 39.6C134.248 37.9947 134.626 36.7533 135.382 35.876C136.138 34.9987 137.206 34.56 138.588 34.56C139.148 34.56 139.67 34.658 140.156 34.854C140.65 35.0407 141.066 35.3067 141.402 35.652C141.346 35.8667 141.252 36.0487 141.122 36.198C140.991 36.3473 140.856 36.422 140.716 36.422C140.585 36.422 140.464 36.38 140.352 36.296C140.072 36.0813 139.787 35.9273 139.498 35.834C139.218 35.7313 138.905 35.68 138.56 35.68C137.608 35.68 136.889 36.0113 136.404 36.674C135.918 37.3273 135.676 38.3027 135.676 39.6C135.676 40.8787 135.918 41.8493 136.404 42.512C136.898 43.1747 137.617 43.506 138.56 43.506C138.989 43.506 139.386 43.4407 139.75 43.31C140.114 43.17 140.459 42.9553 140.786 42.666C140.935 42.7033 141.061 42.7827 141.164 42.904C141.266 43.0253 141.318 43.1607 141.318 43.31C141.318 43.5433 141.192 43.7627 140.94 43.968C140.688 44.164 140.347 44.3273 139.918 44.458C139.498 44.5793 139.054 44.64 138.588 44.64ZM143.269 33.426H144.585V44.5H143.269V33.426ZM149.675 44.64C148.574 44.64 147.738 44.2993 147.169 43.618C146.6 42.9367 146.315 41.9427 146.315 40.636C146.315 39.3293 146.6 38.34 147.169 37.668C147.738 36.996 148.574 36.66 149.675 36.66C150.776 36.66 151.612 36.996 152.181 37.668C152.76 38.34 153.049 39.3293 153.049 40.636C153.049 41.9427 152.76 42.9367 152.181 43.618C151.612 44.2993 150.776 44.64 149.675 44.64ZM149.675 43.674C150.375 43.674 150.884 43.4313 151.201 42.946C151.528 42.4607 151.691 41.6907 151.691 40.636C151.691 39.5907 151.528 38.83 151.201 38.354C150.884 37.8687 150.375 37.626 149.675 37.626C148.975 37.626 148.462 37.8687 148.135 38.354C147.818 38.83 147.659 39.5907 147.659 40.636C147.659 41.6907 147.822 42.4607 148.149 42.946C148.476 43.4313 148.984 43.674 149.675 43.674ZM156.993 44.64C156.507 44.64 156.041 44.57 155.593 44.43C155.145 44.29 154.781 44.108 154.501 43.884C154.23 43.6507 154.095 43.3987 154.095 43.128C154.095 42.96 154.151 42.8153 154.263 42.694C154.384 42.5633 154.538 42.484 154.725 42.456C155.014 42.876 155.341 43.184 155.705 43.38C156.069 43.576 156.517 43.674 157.049 43.674C157.581 43.674 157.982 43.5573 158.253 43.324C158.523 43.0813 158.659 42.764 158.659 42.372C158.659 42.12 158.575 41.9147 158.407 41.756C158.248 41.588 158.043 41.4573 157.791 41.364C157.548 41.2613 157.217 41.154 156.797 41.042C156.246 40.8927 155.803 40.748 155.467 40.608C155.14 40.4587 154.855 40.244 154.613 39.964C154.379 39.6747 154.263 39.2967 154.263 38.83C154.263 38.3633 154.393 37.9667 154.655 37.64C154.916 37.3133 155.252 37.0707 155.663 36.912C156.073 36.744 156.503 36.66 156.951 36.66C157.576 36.66 158.131 36.786 158.617 37.038C159.111 37.2807 159.494 37.6213 159.765 38.06C159.653 38.2187 159.531 38.3447 159.401 38.438C159.27 38.5313 159.149 38.578 159.037 38.578C158.897 38.578 158.771 38.5127 158.659 38.382C158.211 37.8593 157.637 37.598 156.937 37.598C156.507 37.598 156.167 37.696 155.915 37.892C155.663 38.088 155.537 38.3867 155.537 38.788C155.537 39.04 155.616 39.2453 155.775 39.404C155.933 39.5533 156.134 39.6747 156.377 39.768C156.619 39.852 156.946 39.9453 157.357 40.048C157.917 40.1973 158.365 40.342 158.701 40.482C159.037 40.622 159.326 40.8413 159.569 41.14C159.811 41.4387 159.933 41.8353 159.933 42.33C159.933 43.0487 159.667 43.6133 159.135 44.024C158.612 44.4347 157.898 44.64 156.993 44.64ZM167.873 40.118C167.873 40.3047 167.859 40.5473 167.831 40.846H162.455C162.492 41.7327 162.698 42.4233 163.071 42.918C163.444 43.4033 163.958 43.646 164.611 43.646C165.05 43.646 165.414 43.5573 165.703 43.38C166.002 43.2027 166.291 42.8947 166.571 42.456C166.646 42.3533 166.748 42.302 166.879 42.302C167.094 42.302 167.374 42.428 167.719 42.68C167.476 43.296 167.084 43.7767 166.543 44.122C166.002 44.4673 165.358 44.64 164.611 44.64C163.892 44.64 163.267 44.4813 162.735 44.164C162.212 43.8373 161.811 43.3753 161.531 42.778C161.251 42.1713 161.111 41.4573 161.111 40.636C161.111 39.3947 161.424 38.424 162.049 37.724C162.684 37.0147 163.556 36.66 164.667 36.66C165.684 36.66 166.473 36.9633 167.033 37.57C167.593 38.1767 167.873 39.026 167.873 40.118ZM166.515 39.95C166.515 38.41 165.885 37.64 164.625 37.64C164 37.64 163.505 37.836 163.141 38.228C162.777 38.62 162.558 39.194 162.483 39.95H166.515ZM175.634 42.344C175.634 43.24 175.728 43.8933 175.914 44.304C175.578 44.4813 175.252 44.57 174.934 44.57C174.626 44.57 174.43 44.2527 174.346 43.618C174.066 43.9727 173.749 44.234 173.394 44.402C173.04 44.5607 172.615 44.64 172.12 44.64C171.122 44.64 170.338 44.29 169.768 43.59C169.199 42.89 168.914 41.9193 168.914 40.678C168.914 39.4273 169.227 38.4473 169.852 37.738C170.478 37.0193 171.341 36.66 172.442 36.66C172.76 36.66 173.091 36.716 173.436 36.828C173.791 36.9307 174.08 37.0613 174.304 37.22V33.426H175.634V42.344ZM172.288 43.674C172.718 43.674 173.096 43.5807 173.422 43.394C173.749 43.198 174.043 42.8993 174.304 42.498V38.298C174.108 38.0927 173.842 37.9247 173.506 37.794C173.18 37.6633 172.848 37.598 172.512 37.598C171.784 37.598 171.224 37.864 170.832 38.396C170.45 38.9187 170.258 39.6793 170.258 40.678C170.258 41.6673 170.431 42.414 170.776 42.918C171.122 43.422 171.626 43.674 172.288 43.674Z" fill="white"/>
</svg>
