    <svg xmlns="http://www.w3.org/2000/svg" width="56" height="58" viewBox="0 0 56 58" fill="none">
  <path d="M24.8275 28.8953C32.3513 28.8953 38.4505 22.7961 38.4505 15.2724C38.4505 7.74862 32.3513 1.64941 24.8275 1.64941C17.3038 1.64941 11.2046 7.74862 11.2046 15.2724C11.2046 22.7961 17.3038 28.8953 24.8275 28.8953Z" fill="#FFD550" stroke="#1C1F35" stroke-width="2" stroke-linecap="round" stroke-linejoin="round"/>
  <path d="M5.3468 37.9774C7.73367 35.1326 10.7146 32.8451 14.0802 31.2756C17.4457 29.7061 21.1141 28.8928 24.8276 28.8928C28.5411 28.8928 32.2096 29.7061 35.5751 31.2756C38.9406 32.8451 41.9216 35.1326 44.3085 37.9774" stroke="#1C1F35" stroke-width="2" stroke-linecap="round" stroke-linejoin="round"/>
  <path d="M51.892 39.1123L41.6748 39.1123L41.6747 20.9484L51.892 20.9484L51.892 39.1123Z" fill="white" stroke="#141414" stroke-linecap="round" stroke-linejoin="round"/>
  <path d="M51.892 27.76L41.6748 27.76L41.6748 20.9485L51.892 20.9485L51.892 27.76Z" fill="#FFD550" stroke="black" stroke-linecap="round" stroke-linejoin="round"/>
  <path d="M48.4862 25.4895L45.0805 25.4895" stroke="#141414" stroke-linecap="round" stroke-linejoin="round"/>
  <path d="M48.4862 31.1653L45.0805 31.1653" stroke="#141414" stroke-linecap="round" stroke-linejoin="round"/>
  <path d="M55.2976 28.8953L55.2976 38.5526" stroke="#1C1F35" stroke-linecap="round" stroke-linejoin="round"/>
  <path d="M6.71961 22.6294C5.84388 21.4753 3.68521 17.6349 5.35522 10.4199" stroke="#1C1F35" stroke-width="1.5" stroke-linecap="round" stroke-linejoin="round"/>
  <path d="M35.2445 16.685C35.1962 17.8454 34.555 21.3291 29.7079 25.0125" stroke="#1C1F35" stroke-linecap="round" stroke-linejoin="round"/>
</svg>