<svg xmlns="http://www.w3.org/2000/svg" width="57" height="58" viewBox="0 0 57 58" fill="none">
  <path d="M2.05154 45.6494H54.4325" stroke="#141414" stroke-width="2" stroke-linecap="round" stroke-linejoin="round"/>
  <path d="M32.4325 45.6494V3.56246C32.4325 3.05509 32.2275 2.5685 31.8626 2.20973C31.4978 1.85097 31.0029 1.64941 30.4869 1.64941H7.13998C6.62398 1.64941 6.12911 1.85097 5.76424 2.20973C5.39938 2.5685 5.1944 3.05509 5.1944 3.56246V45.6494" stroke="#141414" stroke-width="2" stroke-linecap="round" stroke-linejoin="round"/>
  <path d="M32.4325 14.2209H48.2896C49.9465 14.2209 51.2896 15.5641 51.2896 17.2209V44.6019H32.4325V14.2209Z" fill="#FFD550" stroke="#141414" stroke-width="2" stroke-linecap="round" stroke-linejoin="round"/>
  <path d="M13.5753 11.0779H20.9087" stroke="#141414" stroke-width="2" stroke-linecap="round" stroke-linejoin="round"/>
  <path d="M1.00391 41.459L1.00391 26.7923" stroke="#141414" stroke-width="2" stroke-linecap="round" stroke-linejoin="round"/>
  <path d="M55.48 30.9824L55.48 16.3158" stroke="#141414" stroke-width="2" stroke-linecap="round" stroke-linejoin="round"/>
  <path d="M35.5753 10.0303L42.9087 10.0303" stroke="#141414" stroke-width="2" stroke-linecap="round" stroke-linejoin="round"/>
  <path d="M16.7183 26.792H24.0516" stroke="#141414" stroke-width="2" stroke-linecap="round" stroke-linejoin="round"/>
  <path d="M13.5753 36.2209H20.9087" stroke="#141414" stroke-width="2" stroke-linecap="round" stroke-linejoin="round"/>
  <path d="M39.7658 36.2209H43.9563" stroke="#141414" stroke-width="2" stroke-linecap="round" stroke-linejoin="round"/>
  <path d="M39.7659 26.792H43.9563" stroke="#141414" stroke-width="2" stroke-linecap="round" stroke-linejoin="round"/>
</svg>