<svg xmlns="http://www.w3.org/2000/svg" width="74" height="56" viewBox="0 0 74 56" fill="none">
  <path d="M17.4379 43.3777H53.0685" stroke="#1C1F35" stroke-width="2" stroke-linecap="round" stroke-linejoin="round"/>
  <path d="M34.3534 28.5188L49.772 19.2362" stroke="#1C1F35" stroke-width="2" stroke-linecap="round" stroke-linejoin="round"/>
  <path d="M9.87994 25.9482L15.8551 31.9234" stroke="#1C1F35" stroke-width="2" stroke-linecap="round" stroke-linejoin="round"/>
  <path d="M1.24219 23.7891L7.21731 29.7642" stroke="#1C1F35" stroke-width="2" stroke-linecap="round" stroke-linejoin="round"/>
  <path d="M15.9121 23.5191L25.3066 32.5308C26.5593 33.7338 28.1575 34.4905 29.8636 34.6882C31.5697 34.886 33.2925 34.5144 34.7759 33.6286L72.5034 11.1631L67.8685 5.34255C66.6628 3.83397 64.9702 2.81692 63.0964 2.47514C61.2227 2.13336 59.2915 2.48941 57.6516 3.47895L46.5875 10.142L31.6361 5.03621L27.5244 6.84876C27.2168 6.98381 26.9474 7.19603 26.7409 7.46585C26.5344 7.73566 26.3975 8.05439 26.3429 8.39265C26.2883 8.73092 26.3177 9.07782 26.4284 9.40138C26.539 9.72495 26.7274 10.0148 26.9762 10.2441L34.6264 17.2901L27.649 21.3747L20.6717 18.3112L16.4853 20.1493C16.1807 20.2833 15.9136 20.4931 15.708 20.7595C15.5025 21.0259 15.3651 21.3407 15.3082 21.6752C15.2513 22.0098 15.2767 22.3536 15.3821 22.6756C15.4876 22.9975 15.6698 23.2874 15.9121 23.5191V23.5191Z" stroke="#1C1F35" stroke-width="2" stroke-linecap="round" stroke-linejoin="round"/>
  <path d="M68.7243 6.66756C62.7345 11.3721 56.8217 11.9633 52.5286 6.66756L55.9019 4.47491C60.0938 1.75015 65.676 2.7047 68.7243 6.66756Z" fill="#FFD550" stroke="#1C1F35" stroke-width="2"/>
</svg>